KhmerDigital-Thin.ufo
<glyph name="u0021" format="2">
  <advance width="592"/>
  <unicode hex="0021"/>
  <outline>
    <contour>
      <point x="318" y="384" type="line"/>
      <point x="263" y="384" type="line"/>
      <point x="259" y="1576" type="line"/>
      <point x="323" y="1576" type="line"/>
    </contour>
    <contour>
      <point x="230" y="51" type="qcurve" smooth="yes"/>
      <point x="230" y="78"/>
      <point x="252" y="120"/>
      <point x="285" y="120" type="qcurve" smooth="yes"/>
      <point x="325" y="120"/>
      <point x="344" y="78"/>
      <point x="344" y="51" type="qcurve" smooth="yes"/>
      <point x="344" y="22"/>
      <point x="325" y="-17"/>
      <point x="285" y="-17" type="qcurve" smooth="yes"/>
      <point x="252" y="-17"/>
      <point x="230" y="22"/>
    </contour>
  </outline>
</glyph>
<glyph name="u0022" format="2">
  <advance width="900"/>
  <unicode hex="0022"/>
  <outline>
    <contour>
      <point x="621" y="1007" type="line"/>
      <point x="577" y="1007" type="line"/>
      <point x="568" y="1576" type="line"/>
      <point x="630" y="1576" type="line"/>
    </contour>
    <contour>
      <point x="299" y="1007" type="line"/>
      <point x="255" y="1007" type="line"/>
      <point x="246" y="1576" type="line"/>
      <point x="307" y="1576" type="line"/>
    </contour>
  </outline>
</glyph>
<glyph name="u0023" format="2">
  <advance width="1426"/>
  <unicode hex="0023"/>
  <outline>
    <contour>
      <point x="339" y="0" type="line"/>
      <point x="284" y="0" type="line"/>
      <point x="381" y="501" type="line"/>
      <point x="61" y="501" type="line"/>
      <point x="61" y="554" type="line"/>
      <point x="390" y="554" type="line"/>
      <point x="480" y="1020" type="line"/>
      <point x="147" y="1020" type="line"/>
      <point x="147" y="1073" type="line"/>
      <point x="489" y="1073" type="line"/>
      <point x="586" y="1576" type="line"/>
      <point x="642" y="1576" type="line"/>
      <point x="545" y="1073" type="line"/>
      <point x="984" y="1073" type="line"/>
      <point x="1081" y="1576" type="line"/>
      <point x="1136" y="1576" type="line"/>
      <point x="1039" y="1073" type="line"/>
      <point x="1363" y="1073" type="line"/>
      <point x="1363" y="1020" type="line"/>
      <point x="1030" y="1020" type="line"/>
      <point x="939" y="554" type="line"/>
      <point x="1277" y="554" type="line"/>
      <point x="1277" y="501" type="line"/>
      <point x="931" y="501" type="line"/>
      <point x="834" y="0" type="line"/>
      <point x="779" y="0" type="line"/>
      <point x="876" y="501" type="line"/>
      <point x="436" y="501" type="line"/>
    </contour>
    <contour>
      <point x="535" y="1020" type="line"/>
      <point x="445" y="554" type="line"/>
      <point x="885" y="554" type="line"/>
      <point x="975" y="1020" type="line"/>
    </contour>
  </outline>
</glyph>
<glyph name="u0024" format="2">
  <advance width="1262"/>
  <unicode hex="0024"/>
  <outline>
    <contour>
      <point x="665" y="1553" type="line"/>
      <point x="861" y="1548"/>
      <point x="1023" y="1472" type="qcurve"/>
      <point x="998" y="1422" type="line"/>
      <point x="847" y="1493"/>
      <point x="665" y="1498" type="qcurve"/>
      <point x="665" y="817" type="line"/>
      <point x="1089" y="658"/>
      <point x="1089" y="411" type="qcurve" smooth="yes"/>
      <point x="1089" y="232"/>
      <point x="857" y="31"/>
      <point x="665" y="23" type="qcurve"/>
      <point x="665" y="-128" type="line"/>
      <point x="612" y="-128" type="line"/>
      <point x="612" y="22" type="line"/>
      <point x="376" y="24"/>
      <point x="201" y="86" type="qcurve"/>
      <point x="201" y="150" type="line"/>
      <point x="393" y="81"/>
      <point x="612" y="78" type="qcurve"/>
      <point x="612" y="779" type="line"/>
      <point x="195" y="941"/>
      <point x="195" y="1184" type="qcurve" smooth="yes"/>
      <point x="195" y="1240"/>
      <point x="233" y="1366"/>
      <point x="325" y="1479"/>
      <point x="487" y="1551"/>
      <point x="612" y="1554" type="qcurve"/>
      <point x="612" y="1675" type="line"/>
      <point x="665" y="1675" type="line"/>
    </contour>
    <contour>
      <point x="612" y="1499" type="line"/>
      <point x="434" y="1496"/>
      <point x="254" y="1308"/>
      <point x="254" y="1188" type="qcurve" smooth="yes"/>
      <point x="254" y="985"/>
      <point x="612" y="838" type="qcurve"/>
    </contour>
    <contour>
      <point x="665" y="79" type="line"/>
      <point x="833" y="87"/>
      <point x="1029" y="259"/>
      <point x="1029" y="413" type="qcurve" smooth="yes"/>
      <point x="1029" y="613"/>
      <point x="665" y="759" type="qcurve"/>
    </contour>
  </outline>
</glyph>
<glyph name="u0025" format="2">
  <advance width="1833"/>
  <unicode hex="0025"/>
  <outline>
    <contour>
      <point x="183" y="1106" type="qcurve" smooth="yes"/>
      <point x="183" y="1351"/>
      <point x="347" y="1599"/>
      <point x="488" y="1599" type="qcurve" smooth="yes"/>
      <point x="640" y="1599"/>
      <point x="788" y="1346"/>
      <point x="788" y="1106" type="qcurve" smooth="yes"/>
      <point x="788" y="857"/>
      <point x="627" y="609"/>
      <point x="484" y="609" type="qcurve" smooth="yes"/>
      <point x="337" y="609"/>
      <point x="183" y="861"/>
    </contour>
    <contour>
      <point x="461" y="0" type="line"/>
      <point x="1335" y="1576" type="line"/>
      <point x="1397" y="1576" type="line"/>
      <point x="523" y="0" type="line"/>
    </contour>
    <contour>
      <point x="728" y="1106" type="qcurve" smooth="yes"/>
      <point x="728" y="1544"/>
      <point x="488" y="1544" type="qcurve" smooth="yes"/>
      <point x="242" y="1544"/>
      <point x="242" y="1106" type="qcurve" smooth="yes"/>
      <point x="242" y="664"/>
      <point x="484" y="664" type="qcurve" smooth="yes"/>
      <point x="728" y="664"/>
    </contour>
    <contour>
      <point x="1068" y="474" type="qcurve" smooth="yes"/>
      <point x="1068" y="720"/>
      <point x="1232" y="967"/>
      <point x="1373" y="967" type="qcurve" smooth="yes"/>
      <point x="1525" y="967"/>
      <point x="1673" y="716"/>
      <point x="1673" y="474" type="qcurve" smooth="yes"/>
      <point x="1673" y="225"/>
      <point x="1510" y="-22"/>
      <point x="1369" y="-22" type="qcurve" smooth="yes"/>
      <point x="1223" y="-22"/>
      <point x="1068" y="230"/>
    </contour>
    <contour>
      <point x="1613" y="474" type="qcurve" smooth="yes"/>
      <point x="1617" y="912"/>
      <point x="1373" y="912" type="qcurve" smooth="yes"/>
      <point x="1131" y="912"/>
      <point x="1128" y="474" type="qcurve" smooth="yes"/>
      <point x="1126" y="33"/>
      <point x="1369" y="33" type="qcurve" smooth="yes"/>
      <point x="1610" y="33"/>
    </contour>
  </outline>
</glyph>
<glyph name="u0026" format="2">
  <advance width="1615"/>
  <unicode hex="0026"/>
  <outline>
    <contour>
      <point x="160" y="385" type="qcurve" smooth="yes"/>
      <point x="160" y="675"/>
      <point x="566" y="860" type="qcurve"/>
      <point x="327" y="1099"/>
      <point x="328" y="1261" type="qcurve" smooth="yes"/>
      <point x="328" y="1590"/>
      <point x="692" y="1590" type="qcurve" smooth="yes"/>
      <point x="1036" y="1590"/>
      <point x="1036" y="1272" type="qcurve" smooth="yes"/>
      <point x="1036" y="1028"/>
      <point x="660" y="845" type="qcurve"/>
      <point x="1210" y="285" type="line"/>
      <point x="1334" y="449"/>
      <point x="1394" y="713" type="qcurve"/>
      <point x="1453" y="713" type="line"/>
      <point x="1387" y="422"/>
      <point x="1249" y="246" type="qcurve"/>
      <point x="1501" y="-11" type="line"/>
      <point x="1423" y="-11" type="line"/>
      <point x="1213" y="202" type="line"/>
      <point x="1002" y="-33"/>
      <point x="641" y="-33" type="qcurve" smooth="yes"/>
      <point x="160" y="-33"/>
    </contour>
    <contour>
      <point x="977" y="1272" type="qcurve" smooth="yes"/>
      <point x="977" y="1535"/>
      <point x="692" y="1535" type="qcurve" smooth="yes"/>
      <point x="387" y="1535"/>
      <point x="387" y="1265" type="qcurve" smooth="yes"/>
      <point x="387" y="1108"/>
      <point x="620" y="886" type="qcurve"/>
      <point x="977" y="1063"/>
    </contour>
    <contour>
      <point x="641" y="22" type="qcurve" smooth="yes"/>
      <point x="977" y="22"/>
      <point x="1174" y="242" type="qcurve"/>
      <point x="606" y="820" type="line"/>
      <point x="219" y="636"/>
      <point x="219" y="385" type="qcurve" smooth="yes"/>
      <point x="219" y="22"/>
    </contour>
  </outline>
</glyph>
<glyph name="u0027" format="2">
  <advance width="495"/>
  <unicode hex="0027"/>
  <outline>
    <contour>
      <point x="278" y="1007" type="line"/>
      <point x="234" y="1007" type="line"/>
      <point x="225" y="1576" type="line"/>
      <point x="286" y="1576" type="line"/>
    </contour>
  </outline>
</glyph>
<glyph name="u0028" format="2">
  <advance width="661"/>
  <unicode hex="0028"/>
  <outline>
    <contour>
      <point x="466" y="-349" type="line"/>
      <point x="146" y="46"/>
      <point x="146" y="605" type="qcurve" smooth="yes"/>
      <point x="146" y="1193"/>
      <point x="466" y="1576" type="qcurve"/>
      <point x="539" y="1576" type="line"/>
      <point x="205" y="1176"/>
      <point x="205" y="607" type="qcurve" smooth="yes"/>
      <point x="205" y="65"/>
      <point x="539" y="-349" type="qcurve"/>
    </contour>
  </outline>
</glyph>
<glyph name="u0029" format="2">
  <advance width="661"/>
  <unicode hex="0029"/>
  <outline>
    <contour>
      <point x="114" y="-349" type="line"/>
      <point x="448" y="65"/>
      <point x="448" y="607" type="qcurve" smooth="yes"/>
      <point x="448" y="1176"/>
      <point x="114" y="1576" type="qcurve"/>
      <point x="187" y="1576" type="line"/>
      <point x="507" y="1193"/>
      <point x="507" y="605" type="qcurve" smooth="yes"/>
      <point x="507" y="46"/>
      <point x="187" y="-349" type="qcurve"/>
    </contour>
  </outline>
</glyph>
<glyph name="u002A" format="2">
  <advance width="1215"/>
  <unicode hex="002A"/>
  <outline>
    <contour>
      <point x="857" y="788" type="line"/>
      <point x="601" y="1163" type="line"/>
      <point x="347" y="790" type="line"/>
      <point x="297" y="826" type="line"/>
      <point x="573" y="1186" type="line"/>
      <point x="135" y="1312" type="line"/>
      <point x="154" y="1371" type="line"/>
      <point x="583" y="1218" type="line"/>
      <point x="569" y="1673" type="line"/>
      <point x="632" y="1673" type="line"/>
      <point x="619" y="1218" type="line"/>
      <point x="1047" y="1371" type="line"/>
      <point x="1064" y="1312" type="line"/>
      <point x="632" y="1186" type="line"/>
      <point x="908" y="826" type="line"/>
    </contour>
  </outline>
</glyph>
<glyph name="u002B" format="2">
  <advance width="1262"/>
  <unicode hex="002B"/>
  <outline>
    <contour>
      <point x="677" y="272" type="line"/>
      <point x="623" y="272" type="line"/>
      <point x="623" y="752" type="line"/>
      <point x="142" y="752" type="line"/>
      <point x="142" y="806" type="line"/>
      <point x="623" y="806" type="line"/>
      <point x="623" y="1287" type="line"/>
      <point x="677" y="1287" type="line"/>
      <point x="677" y="806" type="line"/>
      <point x="1157" y="806" type="line"/>
      <point x="1157" y="752" type="line"/>
      <point x="677" y="752" type="line"/>
    </contour>
  </outline>
</glyph>
<glyph name="u002C" format="2">
  <advance width="590"/>
  <unicode hex="002C"/>
  <outline>
    <contour>
      <point x="332" y="257" type="line"/>
      <point x="339" y="230" type="line"/>
      <point x="315" y="106"/>
      <point x="242" y="-170"/>
      <point x="196" y="-285" type="qcurve"/>
      <point x="147" y="-285" type="line"/>
      <point x="196" y="-124"/>
      <point x="253" y="130"/>
      <point x="271" y="257" type="qcurve"/>
    </contour>
  </outline>
</glyph>
<glyph name="u002D" format="2">
  <advance width="710"/>
  <unicode hex="002D"/>
  <outline>
    <contour>
      <point x="622" y="571" type="line"/>
      <point x="87" y="571" type="line"/>
      <point x="87" y="627" type="line"/>
      <point x="622" y="627" type="line"/>
    </contour>
  </outline>
</glyph>
<glyph name="u002E" format="2">
  <advance width="590"/>
  <unicode hex="002E"/>
  <outline>
    <contour>
      <point x="187" y="51" type="qcurve" smooth="yes"/>
      <point x="187" y="78"/>
      <point x="209" y="120"/>
      <point x="242" y="120" type="qcurve" smooth="yes"/>
      <point x="282" y="120"/>
      <point x="301" y="78"/>
      <point x="301" y="51" type="qcurve" smooth="yes"/>
      <point x="301" y="22"/>
      <point x="282" y="-17"/>
      <point x="242" y="-17" type="qcurve" smooth="yes"/>
      <point x="209" y="-17"/>
      <point x="187" y="22"/>
    </contour>
  </outline>
</glyph>
<glyph name="u002F" format="2">
  <advance width="820"/>
  <unicode hex="002F"/>
  <outline>
    <contour>
      <point x="132" y="0" type="line"/>
      <point x="71" y="0" type="line"/>
      <point x="663" y="1576" type="line"/>
      <point x="724" y="1576" type="line"/>
    </contour>
  </outline>
</glyph>
<glyph name="u0030" format="2">
  <advance width="1262"/>
  <unicode hex="0030"/>
  <outline>
    <contour>
      <point x="146" y="754" type="qcurve" smooth="yes"/>
      <point x="146" y="1500"/>
      <point x="641" y="1500" type="qcurve" smooth="yes"/>
      <point x="1128" y="1500"/>
      <point x="1128" y="754" type="qcurve" smooth="yes"/>
      <point x="1128" y="0"/>
      <point x="639" y="0" type="qcurve" smooth="yes"/>
      <point x="146" y="0"/>
    </contour>
    <contour>
      <point x="1069" y="754" type="qcurve" smooth="yes"/>
      <point x="1069" y="1449"/>
      <point x="641" y="1449" type="qcurve" smooth="yes"/>
      <point x="205" y="1449"/>
      <point x="205" y="754" type="qcurve" smooth="yes"/>
      <point x="205" y="51"/>
      <point x="639" y="51" type="qcurve" smooth="yes"/>
      <point x="1069" y="51"/>
    </contour>
  </outline>
</glyph>
<glyph name="u0031" format="2">
  <advance width="1262"/>
  <unicode hex="0031"/>
  <outline>
    <contour>
      <point x="802" y="0" type="line"/>
      <point x="745" y="0" type="line"/>
      <point x="745" y="1439" type="line"/>
      <point x="357" y="1157" type="line"/>
      <point x="321" y="1201" type="line"/>
      <point x="751" y="1500" type="line"/>
      <point x="802" y="1500" type="line"/>
    </contour>
  </outline>
</glyph>
<glyph name="u0032" format="2">
  <advance width="1262"/>
  <unicode hex="0032"/>
  <outline>
    <contour>
      <point x="1137" y="0" type="line"/>
      <point x="183" y="0" type="line"/>
      <point x="183" y="48" type="line"/>
      <point x="1074" y="810"/>
      <point x="1074" y="1116" type="qcurve" smooth="yes"/>
      <point x="1074" y="1448"/>
      <point x="664" y="1448" type="qcurve" smooth="yes"/>
      <point x="438" y="1448"/>
      <point x="263" y="1314" type="qcurve"/>
      <point x="229" y="1356" type="line"/>
      <point x="419" y="1500"/>
      <point x="664" y="1500" type="qcurve" smooth="yes"/>
      <point x="1134" y="1500"/>
      <point x="1134" y="1116" type="qcurve" smooth="yes"/>
      <point x="1134" y="778"/>
      <point x="261" y="52" type="qcurve"/>
      <point x="1137" y="52" type="line"/>
    </contour>
  </outline>
</glyph>
<glyph name="u0033" format="2">
  <advance width="1262"/>
  <unicode hex="0033"/>
  <outline>
    <contour>
      <point x="135" y="86" type="qcurve"/>
      <point x="135" y="143" type="line"/>
      <point x="343" y="51"/>
      <point x="577" y="51" type="qcurve" smooth="yes"/>
      <point x="1058" y="51"/>
      <point x="1058" y="416" type="qcurve" smooth="yes"/>
      <point x="1058" y="753"/>
      <point x="559" y="753" type="qcurve" smooth="yes"/>
      <point x="375" y="753" type="line"/>
      <point x="375" y="804" type="line"/>
      <point x="559" y="804" type="line" smooth="yes"/>
      <point x="1009" y="804"/>
      <point x="1009" y="1146" type="qcurve" smooth="yes"/>
      <point x="1009" y="1449"/>
      <point x="634" y="1449" type="qcurve" smooth="yes"/>
      <point x="384" y="1449"/>
      <point x="184" y="1305" type="qcurve"/>
      <point x="152" y="1348" type="line"/>
      <point x="364" y="1500"/>
      <point x="634" y="1500" type="qcurve" smooth="yes"/>
      <point x="1068" y="1500"/>
      <point x="1068" y="1146" type="qcurve" smooth="yes"/>
      <point x="1068" y="840"/>
      <point x="733" y="787" type="qcurve"/>
      <point x="733" y="783" type="line"/>
      <point x="1117" y="735"/>
      <point x="1117" y="416" type="qcurve" smooth="yes"/>
      <point x="1117" y="0"/>
      <point x="577" y="0" type="qcurve" smooth="yes"/>
      <point x="331" y="0"/>
    </contour>
  </outline>
</glyph>
<glyph name="u0034" format="2">
  <advance width="1262"/>
  <unicode hex="0034"/>
  <outline>
    <contour>
      <point x="939" y="0" type="line"/>
      <point x="882" y="0" type="line"/>
      <point x="882" y="405" type="line"/>
      <point x="54" y="405" type="line"/>
      <point x="54" y="443" type="line"/>
      <point x="878" y="1500" type="line"/>
      <point x="939" y="1500" type="line"/>
      <point x="939" y="458" type="line"/>
      <point x="1235" y="458" type="line"/>
      <point x="1235" y="405" type="line"/>
      <point x="939" y="405" type="line"/>
    </contour>
    <contour>
      <point x="882" y="1433" type="line"/>
      <point x="132" y="458" type="line"/>
      <point x="882" y="458" type="line"/>
    </contour>
  </outline>
</glyph>
<glyph name="u0035" format="2">
  <advance width="1262"/>
  <unicode hex="0035"/>
  <outline>
    <contour>
      <point x="173" y="87" type="qcurve"/>
      <point x="173" y="149" type="line"/>
      <point x="361" y="52"/>
      <point x="569" y="52" type="qcurve" smooth="yes"/>
      <point x="1064" y="52"/>
      <point x="1064" y="470" type="qcurve" smooth="yes"/>
      <point x="1064" y="851"/>
      <point x="615" y="851" type="qcurve" smooth="yes"/>
      <point x="451" y="851"/>
      <point x="268" y="804" type="qcurve"/>
      <point x="226" y="835" type="line"/>
      <point x="293" y="1500" type="line"/>
      <point x="1030" y="1500" type="line"/>
      <point x="1030" y="1448" type="line"/>
      <point x="343" y="1448" type="line"/>
      <point x="287" y="862" type="line"/>
      <point x="448" y="903"/>
      <point x="615" y="903" type="qcurve" smooth="yes"/>
      <point x="1125" y="903"/>
      <point x="1125" y="470" type="qcurve" smooth="yes"/>
      <point x="1125" y="0"/>
      <point x="569" y="0" type="qcurve" smooth="yes"/>
      <point x="338" y="0"/>
    </contour>
  </outline>
</glyph>
<glyph name="u0036" format="2">
  <advance width="1262"/>
  <unicode hex="0036"/>
  <outline>
    <contour>
      <point x="149" y="638" type="qcurve" smooth="yes"/>
      <point x="149" y="1500"/>
      <point x="809" y="1500" type="qcurve" smooth="yes"/>
      <point x="935" y="1500"/>
      <point x="1025" y="1473" type="qcurve"/>
      <point x="1025" y="1418" type="line"/>
      <point x="919" y="1449"/>
      <point x="809" y="1449" type="qcurve" smooth="yes"/>
      <point x="217" y="1449"/>
      <point x="204" y="655" type="qcurve"/>
      <point x="374" y="915"/>
      <point x="670" y="915" type="qcurve" smooth="yes"/>
      <point x="1131" y="915"/>
      <point x="1131" y="479" type="qcurve" smooth="yes"/>
      <point x="1131" y="0"/>
      <point x="659" y="0" type="qcurve" smooth="yes"/>
      <point x="149" y="0"/>
    </contour>
    <contour>
      <point x="206" y="564" type="qcurve"/>
      <point x="234" y="51"/>
      <point x="659" y="51" type="qcurve" smooth="yes"/>
      <point x="1072" y="51"/>
      <point x="1072" y="479" type="qcurve" smooth="yes"/>
      <point x="1072" y="864"/>
      <point x="670" y="864" type="qcurve" smooth="yes"/>
      <point x="365" y="864"/>
    </contour>
  </outline>
</glyph>
<glyph name="u0037" format="2">
  <advance width="1262"/>
  <unicode hex="0037"/>
  <outline>
    <contour>
      <point x="499" y="0" type="line"/>
      <point x="435" y="0" type="line"/>
      <point x="1090" y="1448" type="line"/>
      <point x="159" y="1448" type="line"/>
      <point x="159" y="1500" type="line"/>
      <point x="1157" y="1500" type="line"/>
      <point x="1157" y="1464" type="line"/>
    </contour>
  </outline>
</glyph>
<glyph name="u0038" format="2">
  <advance width="1262"/>
  <unicode hex="0038"/>
  <outline>
    <contour>
      <point x="173" y="378" type="qcurve" smooth="yes"/>
      <point x="173" y="652"/>
      <point x="575" y="801" type="qcurve"/>
      <point x="224" y="938"/>
      <point x="224" y="1162" type="qcurve" smooth="yes"/>
      <point x="224" y="1500"/>
      <point x="657" y="1500" type="qcurve" smooth="yes"/>
      <point x="1089" y="1500"/>
      <point x="1089" y="1167" type="qcurve" smooth="yes"/>
      <point x="1089" y="948"/>
      <point x="725" y="803" type="qcurve"/>
      <point x="1142" y="662"/>
      <point x="1142" y="390" type="qcurve" smooth="yes"/>
      <point x="1142" y="0"/>
      <point x="647" y="0" type="qcurve" smooth="yes"/>
      <point x="173" y="0"/>
    </contour>
    <contour>
      <point x="652" y="828" type="qcurve"/>
      <point x="1030" y="972"/>
      <point x="1030" y="1167" type="qcurve" smooth="yes"/>
      <point x="1030" y="1449"/>
      <point x="657" y="1449" type="qcurve" smooth="yes"/>
      <point x="283" y="1449"/>
      <point x="283" y="1162" type="qcurve" smooth="yes"/>
      <point x="283" y="965"/>
    </contour>
    <contour>
      <point x="1083" y="388" type="qcurve" smooth="yes"/>
      <point x="1083" y="658"/>
      <point x="647" y="775" type="qcurve"/>
      <point x="232" y="625"/>
      <point x="232" y="378" type="qcurve" smooth="yes"/>
      <point x="232" y="51"/>
      <point x="647" y="51" type="qcurve" smooth="yes"/>
      <point x="1083" y="51"/>
    </contour>
  </outline>
</glyph>
<glyph name="u0039" format="2">
  <advance width="1262"/>
  <unicode hex="0039"/>
  <outline>
    <contour>
      <point x="259" y="28" type="qcurve"/>
      <point x="259" y="82" type="line"/>
      <point x="365" y="51"/>
      <point x="475" y="51" type="qcurve" smooth="yes"/>
      <point x="1067" y="51"/>
      <point x="1080" y="846" type="qcurve"/>
      <point x="910" y="585"/>
      <point x="614" y="585" type="qcurve" smooth="yes"/>
      <point x="153" y="585"/>
      <point x="153" y="1021" type="qcurve" smooth="yes"/>
      <point x="153" y="1500"/>
      <point x="625" y="1500" type="qcurve" smooth="yes"/>
      <point x="1135" y="1500"/>
      <point x="1135" y="862" type="qcurve" smooth="yes"/>
      <point x="1135" y="0"/>
      <point x="475" y="0" type="qcurve" smooth="yes"/>
      <point x="349" y="0"/>
    </contour>
    <contour>
      <point x="614" y="636" type="qcurve" smooth="yes"/>
      <point x="919" y="636"/>
      <point x="1078" y="937" type="qcurve"/>
      <point x="1050" y="1449"/>
      <point x="625" y="1449" type="qcurve" smooth="yes"/>
      <point x="212" y="1449"/>
      <point x="212" y="1021" type="qcurve" smooth="yes"/>
      <point x="212" y="636"/>
    </contour>
  </outline>
</glyph>
<glyph name="u003A" format="2">
  <advance width="590"/>
  <unicode hex="003A"/>
  <outline>
    <contour>
      <point x="198" y="1106" type="qcurve" smooth="yes"/>
      <point x="198" y="1133"/>
      <point x="220" y="1175"/>
      <point x="253" y="1175" type="qcurve" smooth="yes"/>
      <point x="293" y="1175"/>
      <point x="312" y="1133"/>
      <point x="312" y="1106" type="qcurve" smooth="yes"/>
      <point x="312" y="1077"/>
      <point x="293" y="1038"/>
      <point x="253" y="1038" type="qcurve" smooth="yes"/>
      <point x="220" y="1038"/>
      <point x="198" y="1077"/>
    </contour>
    <contour>
      <point x="198" y="51" type="qcurve" smooth="yes"/>
      <point x="198" y="78"/>
      <point x="220" y="120"/>
      <point x="253" y="120" type="qcurve" smooth="yes"/>
      <point x="293" y="120"/>
      <point x="312" y="78"/>
      <point x="312" y="51" type="qcurve" smooth="yes"/>
      <point x="312" y="22"/>
      <point x="293" y="-17"/>
      <point x="253" y="-17" type="qcurve" smooth="yes"/>
      <point x="220" y="-17"/>
      <point x="198" y="22"/>
    </contour>
  </outline>
</glyph>
<glyph name="u003B" format="2">
  <advance width="590"/>
  <unicode hex="003B"/>
  <outline>
    <contour>
      <point x="207" y="1106" type="qcurve" smooth="yes"/>
      <point x="207" y="1133"/>
      <point x="230" y="1175"/>
      <point x="262" y="1175" type="qcurve" smooth="yes"/>
      <point x="302" y="1175"/>
      <point x="323" y="1133"/>
      <point x="323" y="1106" type="qcurve" smooth="yes"/>
      <point x="323" y="1077"/>
      <point x="302" y="1038"/>
      <point x="262" y="1038" type="qcurve" smooth="yes"/>
      <point x="230" y="1038"/>
      <point x="207" y="1077"/>
    </contour>
    <contour>
      <point x="104" y="-285" type="line"/>
      <point x="153" y="-124"/>
      <point x="210" y="130"/>
      <point x="228" y="257" type="qcurve"/>
      <point x="289" y="257" type="line"/>
      <point x="296" y="230" type="line"/>
      <point x="272" y="106"/>
      <point x="199" y="-170"/>
      <point x="153" y="-285" type="qcurve"/>
    </contour>
  </outline>
</glyph>
<glyph name="u003C" format="2">
  <advance width="1262"/>
  <unicode hex="003C"/>
  <outline>
    <contour>
      <point x="1155" y="362" type="line"/>
      <point x="1155" y="305" type="line"/>
      <point x="144" y="779" type="line"/>
      <point x="144" y="819" type="line"/>
      <point x="1155" y="1293" type="line"/>
      <point x="1155" y="1236" type="line"/>
      <point x="222" y="799" type="line"/>
    </contour>
  </outline>
</glyph>
<glyph name="u003D" format="2">
  <advance width="1262"/>
  <unicode hex="003D"/>
  <outline>
    <contour>
      <point x="1135" y="978" type="line"/>
      <point x="120" y="978" type="line"/>
      <point x="120" y="1030" type="line"/>
      <point x="1135" y="1030" type="line"/>
    </contour>
    <contour>
      <point x="1135" y="527" type="line"/>
      <point x="120" y="527" type="line"/>
      <point x="120" y="581" type="line"/>
      <point x="1135" y="581" type="line"/>
    </contour>
  </outline>
</glyph>
<glyph name="u003E" format="2">
  <advance width="1262"/>
  <unicode hex="003E"/>
  <outline>
    <contour>
      <point x="1133" y="779" type="line"/>
      <point x="122" y="305" type="line"/>
      <point x="122" y="362" type="line"/>
      <point x="1055" y="799" type="line"/>
      <point x="122" y="1236" type="line"/>
      <point x="122" y="1293" type="line"/>
      <point x="1133" y="819" type="line"/>
    </contour>
  </outline>
</glyph>
<glyph name="u003F" format="2">
  <advance width="957"/>
  <unicode hex="003F"/>
  <outline>
    <contour>
      <point x="393" y="384" type="line"/>
      <point x="338" y="384" type="line"/>
      <point x="338" y="411" type="line" smooth="yes"/>
      <point x="338" y="690"/>
      <point x="525" y="819" type="qcurve" smooth="yes"/>
      <point x="786" y="999"/>
      <point x="786" y="1223" type="qcurve" smooth="yes"/>
      <point x="786" y="1544"/>
      <point x="435" y="1544" type="qcurve" smooth="yes"/>
      <point x="307" y="1544"/>
      <point x="126" y="1468" type="qcurve"/>
      <point x="104" y="1525" type="line"/>
      <point x="282" y="1599"/>
      <point x="435" y="1599" type="qcurve" smooth="yes"/>
      <point x="846" y="1599"/>
      <point x="846" y="1223" type="qcurve" smooth="yes"/>
      <point x="846" y="974"/>
      <point x="555" y="773" type="qcurve" smooth="yes"/>
      <point x="393" y="662"/>
      <point x="393" y="411" type="qcurve" smooth="yes"/>
    </contour>
    <contour>
      <point x="314" y="51" type="qcurve" smooth="yes"/>
      <point x="314" y="78"/>
      <point x="336" y="120"/>
      <point x="369" y="120" type="qcurve" smooth="yes"/>
      <point x="409" y="120"/>
      <point x="428" y="78"/>
      <point x="428" y="51" type="qcurve" smooth="yes"/>
      <point x="428" y="22"/>
      <point x="409" y="-17"/>
      <point x="369" y="-17" type="qcurve" smooth="yes"/>
      <point x="336" y="-17"/>
      <point x="314" y="22"/>
    </contour>
  </outline>
</glyph>
<glyph name="u0040" format="2">
  <advance width="1984"/>
  <unicode hex="0040"/>
  <outline>
    <contour>
      <point x="146" y="627" type="qcurve" smooth="yes"/>
      <point x="146" y="1559"/>
      <point x="1062" y="1559" type="qcurve" smooth="yes"/>
      <point x="1854" y="1559"/>
      <point x="1854" y="775" type="qcurve" smooth="yes"/>
      <point x="1854" y="236"/>
      <point x="1511" y="236" type="qcurve" smooth="yes"/>
      <point x="1336" y="236"/>
      <point x="1291" y="447" type="qcurve"/>
      <point x="1172" y="236"/>
      <point x="938" y="236" type="qcurve" smooth="yes"/>
      <point x="601" y="236"/>
      <point x="601" y="627" type="qcurve" smooth="yes"/>
      <point x="601" y="1117"/>
      <point x="1069" y="1117" type="qcurve" smooth="yes"/>
      <point x="1231" y="1117"/>
      <point x="1351" y="1073" type="qcurve"/>
      <point x="1334" y="698" type="line" smooth="yes"/>
      <point x="1314" y="291"/>
      <point x="1511" y="291" type="qcurve" smooth="yes"/>
      <point x="1795" y="291"/>
      <point x="1795" y="775" type="qcurve" smooth="yes"/>
      <point x="1795" y="1504"/>
      <point x="1062" y="1504" type="qcurve" smooth="yes"/>
      <point x="205" y="1504"/>
      <point x="205" y="627" type="qcurve" smooth="yes"/>
      <point x="205" y="-166"/>
      <point x="945" y="-166" type="qcurve" smooth="yes"/>
      <point x="1164" y="-166"/>
      <point x="1391" y="-75" type="qcurve"/>
      <point x="1391" y="-137" type="line"/>
      <point x="1189" y="-221"/>
      <point x="945" y="-221" type="qcurve" smooth="yes"/>
      <point x="146" y="-221"/>
    </contour>
    <contour>
      <point x="938" y="291" type="qcurve" smooth="yes"/>
      <point x="1175" y="291"/>
      <point x="1278" y="544" type="qcurve"/>
      <point x="1272" y="613"/>
      <point x="1277" y="697" type="qcurve" smooth="yes"/>
      <point x="1294" y="1028" type="line"/>
      <point x="1197" y="1062"/>
      <point x="1069" y="1062" type="qcurve" smooth="yes"/>
      <point x="660" y="1062"/>
      <point x="660" y="627" type="qcurve" smooth="yes"/>
      <point x="660" y="291"/>
    </contour>
  </outline>
</glyph>
<glyph name="u0041" format="2">
  <advance width="1409"/>
  <unicode hex="0041"/>
  <outline>
    <contour>
      <point x="1247" y="0" type="line"/>
      <point x="1032" y="568" type="line"/>
      <point x="376" y="568" type="line"/>
      <point x="154" y="0" type="line"/>
      <point x="96" y="0" type="line"/>
      <point x="688" y="1500" type="line"/>
      <point x="740" y="1500" type="line"/>
      <point x="1306" y="0" type="line"/>
    </contour>
    <contour>
      <point x="397" y="620" type="line"/>
      <point x="1013" y="620" type="line"/>
      <point x="778" y="1246" type="line" smooth="yes"/>
      <point x="731" y="1369"/>
      <point x="710" y="1430" type="qcurve"/>
      <point x="696" y="1384"/>
      <point x="640" y="1243" type="qcurve" smooth="yes"/>
    </contour>
  </outline>
</glyph>
<glyph name="u0042" format="2">
  <advance width="1434"/>
  <unicode hex="0042"/>
  <outline>
    <contour>
      <point x="282" y="0" type="line"/>
      <point x="282" y="1500" type="line"/>
      <point x="703" y="1500" type="line" smooth="yes"/>
      <point x="1199" y="1499"/>
      <point x="1199" y="1138" type="qcurve" smooth="yes"/>
      <point x="1199" y="846"/>
      <point x="902" y="792" type="qcurve"/>
      <point x="902" y="788" type="line"/>
      <point x="1236" y="737"/>
      <point x="1236" y="426" type="qcurve" smooth="yes"/>
      <point x="1236" y="0"/>
      <point x="703" y="0" type="qcurve" smooth="yes"/>
    </contour>
    <contour>
      <point x="336" y="1448" type="line"/>
      <point x="336" y="816" type="line"/>
      <point x="703" y="816" type="line" smooth="yes"/>
      <point x="1142" y="817"/>
      <point x="1142" y="1136" type="qcurve" smooth="yes"/>
      <point x="1141" y="1448"/>
      <point x="703" y="1448" type="qcurve" smooth="yes"/>
    </contour>
    <contour>
      <point x="336" y="762" type="line"/>
      <point x="336" y="52" type="line"/>
      <point x="703" y="52" type="line" smooth="yes"/>
      <point x="1179" y="53"/>
      <point x="1179" y="424" type="qcurve" smooth="yes"/>
      <point x="1178" y="762"/>
      <point x="703" y="762" type="qcurve" smooth="yes"/>
    </contour>
  </outline>
</glyph>
<glyph name="u0043" format="2">
  <advance width="1394"/>
  <unicode hex="0043"/>
  <outline>
    <contour>
      <point x="182" y="733" type="qcurve" smooth="yes"/>
      <point x="182" y="1478"/>
      <point x="880" y="1478" type="qcurve" smooth="yes"/>
      <point x="1079" y="1478"/>
      <point x="1244" y="1402" type="qcurve"/>
      <point x="1223" y="1351" type="line"/>
      <point x="1063" y="1427"/>
      <point x="880" y="1427" type="qcurve"/>
      <point x="236" y="1426"/>
      <point x="236" y="733" type="qcurve" smooth="yes"/>
      <point x="237" y="29"/>
      <point x="843" y="29" type="qcurve" smooth="yes"/>
      <point x="1069" y="29"/>
      <point x="1217" y="88" type="qcurve"/>
      <point x="1217" y="41" type="line"/>
      <point x="1062" y="-22"/>
      <point x="843" y="-22" type="qcurve" smooth="yes"/>
      <point x="182" y="-21"/>
    </contour>
  </outline>
</glyph>
<glyph name="u0044" format="2">
  <advance width="1611"/>
  <unicode hex="0044"/>
  <outline>
    <contour>
      <point x="286" y="0" type="line"/>
      <point x="286" y="1500" type="line"/>
      <point x="645" y="1500" type="line" smooth="yes"/>
      <point x="1389" y="1499"/>
      <point x="1389" y="750" type="qcurve" smooth="yes"/>
      <point x="1389" y="0"/>
      <point x="645" y="0" type="qcurve" smooth="yes"/>
    </contour>
    <contour>
      <point x="340" y="1448" type="line"/>
      <point x="340" y="52" type="line"/>
      <point x="645" y="52" type="line" smooth="yes"/>
      <point x="1332" y="53"/>
      <point x="1332" y="750" type="qcurve" smooth="yes"/>
      <point x="1331" y="1448"/>
      <point x="645" y="1448" type="qcurve" smooth="yes"/>
    </contour>
  </outline>
</glyph>
<glyph name="u0045" format="2">
  <advance width="1226"/>
  <unicode hex="0045"/>
  <outline>
    <contour>
      <point x="1055" y="0" type="line"/>
      <point x="246" y="0" type="line"/>
      <point x="246" y="1500" type="line"/>
      <point x="1055" y="1500" type="line"/>
      <point x="1055" y="1448" type="line"/>
      <point x="301" y="1448" type="line"/>
      <point x="301" y="818" type="line"/>
      <point x="1014" y="818" type="line"/>
      <point x="1014" y="764" type="line"/>
      <point x="301" y="764" type="line"/>
      <point x="301" y="52" type="line"/>
      <point x="1055" y="52" type="line"/>
    </contour>
  </outline>
</glyph>
<glyph name="u0046" format="2">
  <advance width="1144"/>
  <unicode hex="0046"/>
  <outline>
    <contour>
      <point x="301" y="0" type="line"/>
      <point x="247" y="0" type="line"/>
      <point x="247" y="1500" type="line"/>
      <point x="1058" y="1500" type="line"/>
      <point x="1058" y="1448" type="line"/>
      <point x="301" y="1448" type="line"/>
      <point x="301" y="743" type="line"/>
      <point x="1018" y="743" type="line"/>
      <point x="1018" y="692" type="line"/>
      <point x="301" y="692" type="line"/>
    </contour>
  </outline>
</glyph>
<glyph name="u0047" format="2">
  <advance width="1606"/>
  <unicode hex="0047"/>
  <outline>
    <contour>
      <point x="231" y="722" type="qcurve" smooth="yes"/>
      <point x="231" y="1478"/>
      <point x="967" y="1478" type="qcurve" smooth="yes"/>
      <point x="1204" y="1478"/>
      <point x="1388" y="1388" type="qcurve"/>
      <point x="1364" y="1338" type="line"/>
      <point x="1181" y="1427"/>
      <point x="964" y="1427" type="qcurve"/>
      <point x="285" y="1426"/>
      <point x="285" y="724" type="qcurve" smooth="yes"/>
      <point x="286" y="29"/>
      <point x="956" y="29" type="qcurve" smooth="yes"/>
      <point x="1204" y="29"/>
      <point x="1352" y="100" type="qcurve"/>
      <point x="1352" y="661" type="line"/>
      <point x="851" y="661" type="line"/>
      <point x="851" y="712" type="line"/>
      <point x="1405" y="712" type="line"/>
      <point x="1405" y="72" type="line"/>
      <point x="1208" y="-22"/>
      <point x="952" y="-22" type="qcurve" smooth="yes"/>
      <point x="231" y="-21"/>
    </contour>
  </outline>
</glyph>
<glyph name="u0048" format="2">
  <advance width="1635"/>
  <unicode hex="0048"/>
  <outline>
    <contour>
      <point x="339" y="0" type="line"/>
      <point x="285" y="0" type="line"/>
      <point x="285" y="1500" type="line"/>
      <point x="339" y="1500" type="line"/>
      <point x="339" y="816" type="line"/>
      <point x="1281" y="816" type="line"/>
      <point x="1281" y="1500" type="line"/>
      <point x="1335" y="1500" type="line"/>
      <point x="1335" y="0" type="line"/>
      <point x="1281" y="0" type="line"/>
      <point x="1281" y="762" type="line"/>
      <point x="339" y="762" type="line"/>
    </contour>
  </outline>
</glyph>
<glyph name="u0049" format="2">
  <advance width="748"/>
  <unicode hex="0049"/>
  <outline>
    <contour>
      <point x="547" y="0" type="line"/>
      <point x="207" y="0" type="line"/>
      <point x="207" y="42" type="line"/>
      <point x="349" y="49" type="line"/>
      <point x="349" y="1450" type="line"/>
      <point x="207" y="1458" type="line"/>
      <point x="207" y="1500" type="line"/>
      <point x="547" y="1500" type="line"/>
      <point x="547" y="1458" type="line"/>
      <point x="405" y="1450" type="line"/>
      <point x="405" y="49" type="line"/>
      <point x="547" y="42" type="line"/>
    </contour>
  </outline>
</glyph>
<glyph name="u004A" format="2">
  <advance width="602"/>
  <unicode hex="004A"/>
  <outline>
    <contour>
      <point x="-140" y="-358" type="qcurve"/>
      <point x="-140" y="-295" type="line"/>
      <point x="-34" y="-327"/>
      <point x="35" y="-327" type="qcurve" smooth="yes"/>
      <point x="311" y="-327"/>
      <point x="311" y="11" type="qcurve" smooth="yes"/>
      <point x="311" y="1500" type="line"/>
      <point x="368" y="1500" type="line"/>
      <point x="368" y="4" type="line" smooth="yes"/>
      <point x="368" y="-384"/>
      <point x="35" y="-384" type="qcurve" smooth="yes"/>
      <point x="-53" y="-384"/>
    </contour>
  </outline>
</glyph>
<glyph name="u004B" format="2">
  <advance width="1365"/>
  <unicode hex="004B"/>
  <outline>
    <contour>
      <point x="325" y="0" type="line"/>
      <point x="271" y="0" type="line"/>
      <point x="271" y="1500" type="line"/>
      <point x="325" y="1500" type="line"/>
      <point x="325" y="681" type="line"/>
      <point x="403" y="759"/>
      <point x="431" y="790" type="qcurve" smooth="yes"/>
      <point x="1135" y="1500" type="line"/>
      <point x="1215" y="1500" type="line"/>
      <point x="588" y="877" type="line"/>
      <point x="1228" y="0" type="line"/>
      <point x="1155" y="0" type="line"/>
      <point x="546" y="836" type="line"/>
      <point x="325" y="616" type="line"/>
    </contour>
  </outline>
</glyph>
<glyph name="u004C" format="2">
  <advance width="1156"/>
  <unicode hex="004C"/>
  <outline>
    <contour>
      <point x="1051" y="0" type="line"/>
      <point x="246" y="0" type="line"/>
      <point x="246" y="1500" type="line"/>
      <point x="301" y="1500" type="line"/>
      <point x="301" y="52" type="line"/>
      <point x="1051" y="52" type="line"/>
    </contour>
  </outline>
</glyph>
<glyph name="u004D" format="2">
  <advance width="2001"/>
  <unicode hex="004D"/>
  <outline>
    <contour>
      <point x="400" y="0" type="line"/>
      <point x="346" y="0" type="line"/>
      <point x="346" y="1500" type="line"/>
      <point x="434" y="1500" type="line"/>
      <point x="1005" y="101" type="line"/>
      <point x="1012" y="101" type="line"/>
      <point x="1585" y="1500" type="line"/>
      <point x="1668" y="1500" type="line"/>
      <point x="1668" y="0" type="line"/>
      <point x="1614" y="0" type="line"/>
      <point x="1614" y="1265" type="line" smooth="yes"/>
      <point x="1614" y="1297"/>
      <point x="1617" y="1425" type="qcurve"/>
      <point x="1612" y="1425" type="line"/>
      <point x="1029" y="0" type="line"/>
      <point x="987" y="0" type="line"/>
      <point x="402" y="1427" type="line"/>
      <point x="398" y="1427" type="line"/>
      <point x="400" y="1298"/>
      <point x="400" y="1253" type="qcurve" smooth="yes"/>
    </contour>
  </outline>
</glyph>
<glyph name="u004E" format="2">
  <advance width="1677"/>
  <unicode hex="004E"/>
  <outline>
    <contour>
      <point x="371" y="0" type="line"/>
      <point x="317" y="0" type="line"/>
      <point x="317" y="1500" type="line"/>
      <point x="359" y="1500" type="line"/>
      <point x="1292" y="128" type="line"/>
      <point x="1296" y="128" type="line"/>
      <point x="1294" y="370"/>
      <point x="1294" y="444" type="qcurve" smooth="yes"/>
      <point x="1294" y="1500" type="line"/>
      <point x="1349" y="1500" type="line"/>
      <point x="1349" y="0" type="line"/>
      <point x="1309" y="0" type="line"/>
      <point x="373" y="1375" type="line"/>
      <point x="369" y="1375" type="line"/>
      <point x="371" y="1137"/>
      <point x="371" y="1055" type="qcurve" smooth="yes"/>
    </contour>
  </outline>
</glyph>
<glyph name="u004F" format="2">
  <advance width="1723"/>
  <unicode hex="004F"/>
  <outline>
    <contour>
      <point x="223" y="728" type="qcurve" smooth="yes"/>
      <point x="223" y="1478"/>
      <point x="863" y="1478" type="qcurve" smooth="yes"/>
      <point x="1503" y="1477"/>
      <point x="1503" y="728" type="qcurve" smooth="yes"/>
      <point x="1503" y="-22"/>
      <point x="863" y="-22" type="qcurve" smooth="yes"/>
      <point x="223" y="-21"/>
    </contour>
    <contour>
      <point x="1448" y="728" type="qcurve" smooth="yes"/>
      <point x="1447" y="1427"/>
      <point x="863" y="1427" type="qcurve"/>
      <point x="278" y="1426"/>
      <point x="278" y="728" type="qcurve" smooth="yes"/>
      <point x="279" y="29"/>
      <point x="863" y="29" type="qcurve" smooth="yes"/>
      <point x="1448" y="30"/>
    </contour>
  </outline>
</glyph>
<glyph name="u0050" format="2">
  <advance width="1335"/>
  <unicode hex="0050"/>
  <outline>
    <contour>
      <point x="334" y="0" type="line"/>
      <point x="280" y="0" type="line"/>
      <point x="280" y="1500" type="line"/>
      <point x="628" y="1500" type="line" smooth="yes"/>
      <point x="1148" y="1499"/>
      <point x="1148" y="1071" type="qcurve" smooth="yes"/>
      <point x="1147" y="641"/>
      <point x="628" y="641" type="qcurve" smooth="yes"/>
      <point x="334" y="641" type="line"/>
    </contour>
    <contour>
      <point x="334" y="1448" type="line"/>
      <point x="334" y="694" type="line"/>
      <point x="628" y="694" type="line" smooth="yes"/>
      <point x="1092" y="695"/>
      <point x="1092" y="1071" type="qcurve" smooth="yes"/>
      <point x="1091" y="1448"/>
      <point x="628" y="1448" type="qcurve" smooth="yes"/>
    </contour>
  </outline>
</glyph>
<glyph name="u0051" format="2">
  <advance width="1723"/>
  <unicode hex="0051"/>
  <outline>
    <contour>
      <point x="182" y="790" type="qcurve" smooth="yes"/>
      <point x="182" y="1500"/>
      <point x="874" y="1500" type="qcurve" smooth="yes"/>
      <point x="1566" y="1500"/>
      <point x="1566" y="790" type="qcurve" smooth="yes"/>
      <point x="1566" y="70"/>
      <point x="1022" y="-11" type="qcurve"/>
      <point x="1334" y="-375" type="line"/>
      <point x="1255" y="-375" type="line"/>
      <point x="955" y="-18" type="line"/>
      <point x="916" y="-22"/>
      <point x="874" y="-22" type="qcurve" smooth="yes"/>
      <point x="182" y="-22"/>
    </contour>
    <contour>
      <point x="1507" y="790" type="qcurve" smooth="yes"/>
      <point x="1507" y="1445"/>
      <point x="874" y="1445" type="qcurve" smooth="yes"/>
      <point x="241" y="1445"/>
      <point x="241" y="790" type="qcurve" smooth="yes"/>
      <point x="241" y="33"/>
      <point x="874" y="33" type="qcurve" smooth="yes"/>
      <point x="1507" y="33"/>
    </contour>
  </outline>
</glyph>
<glyph name="u0052" format="2">
  <advance width="1372"/>
  <unicode hex="0052"/>
  <outline>
    <contour>
      <point x="325" y="641" type="line"/>
      <point x="325" y="0" type="line"/>
      <point x="271" y="0" type="line"/>
      <point x="271" y="1500" type="line"/>
      <point x="619" y="1500" type="line" smooth="yes"/>
      <point x="1139" y="1499"/>
      <point x="1139" y="1071" type="qcurve" smooth="yes"/>
      <point x="1138" y="732"/>
      <point x="815" y="661" type="qcurve"/>
      <point x="1213" y="0" type="line"/>
      <point x="1143" y="0" type="line"/>
      <point x="754" y="649" type="line"/>
      <point x="691" y="641"/>
      <point x="619" y="641" type="qcurve" smooth="yes"/>
    </contour>
    <contour>
      <point x="325" y="1448" type="line"/>
      <point x="325" y="694" type="line"/>
      <point x="619" y="694" type="line" smooth="yes"/>
      <point x="1083" y="695"/>
      <point x="1083" y="1071" type="qcurve" smooth="yes"/>
      <point x="1082" y="1448"/>
      <point x="619" y="1448" type="qcurve" smooth="yes"/>
    </contour>
  </outline>
</glyph>
<glyph name="u0053" format="2">
  <advance width="1211"/>
  <unicode hex="0053"/>
  <outline>
    <contour>
      <point x="169" y="37" type="qcurve"/>
      <point x="169" y="96" type="line"/>
      <point x="385" y="29"/>
      <point x="568" y="29" type="qcurve" smooth="yes"/>
      <point x="998" y="30"/>
      <point x="998" y="368" type="qcurve" smooth="yes"/>
      <point x="997" y="589"/>
      <point x="592" y="717" type="qcurve" smooth="yes"/>
      <point x="184" y="846"/>
      <point x="184" y="1110" type="qcurve" smooth="yes"/>
      <point x="184" y="1478"/>
      <point x="648" y="1478" type="qcurve" smooth="yes"/>
      <point x="840" y="1478"/>
      <point x="1016" y="1402" type="qcurve"/>
      <point x="993" y="1355" type="line"/>
      <point x="826" y="1427"/>
      <point x="644" y="1427" type="qcurve"/>
      <point x="241" y="1426"/>
      <point x="241" y="1113" type="qcurve" smooth="yes"/>
      <point x="242" y="884"/>
      <point x="620" y="765" type="qcurve" smooth="yes"/>
      <point x="1053" y="627"/>
      <point x="1053" y="367" type="qcurve" smooth="yes"/>
      <point x="1053" y="-22"/>
      <point x="565" y="-22" type="qcurve" smooth="yes"/>
      <point x="357" y="-22"/>
    </contour>
  </outline>
</glyph>
<glyph name="u0054" format="2">
  <advance width="1226"/>
  <unicode hex="0054"/>
  <outline>
    <contour>
      <point x="648" y="0" type="line"/>
      <point x="592" y="0" type="line"/>
      <point x="592" y="1448" type="line"/>
      <point x="95" y="1448" type="line"/>
      <point x="95" y="1500" type="line"/>
      <point x="1147" y="1500" type="line"/>
      <point x="1147" y="1448" type="line"/>
      <point x="648" y="1448" type="line"/>
    </contour>
  </outline>
</glyph>
<glyph name="u0055" format="2">
  <advance width="1613"/>
  <unicode hex="0055"/>
  <outline>
    <contour>
      <point x="265" y="525" type="qcurve" smooth="yes"/>
      <point x="265" y="1478" type="line"/>
      <point x="319" y="1478" type="line"/>
      <point x="319" y="525" type="line" smooth="yes"/>
      <point x="320" y="30"/>
      <point x="808" y="30" type="qcurve" smooth="yes"/>
      <point x="1295" y="31"/>
      <point x="1295" y="525" type="qcurve" smooth="yes"/>
      <point x="1295" y="1478" type="line"/>
      <point x="1349" y="1478" type="line"/>
      <point x="1349" y="525" type="line" smooth="yes"/>
      <point x="1349" y="-22"/>
      <point x="808" y="-22" type="qcurve" smooth="yes"/>
      <point x="265" y="-21"/>
    </contour>
  </outline>
</glyph>
<glyph name="u0056" format="2">
  <advance width="1323"/>
  <unicode hex="0056"/>
  <outline>
    <contour>
      <point x="691" y="0" type="line"/>
      <point x="638" y="0" type="line"/>
      <point x="73" y="1500" type="line"/>
      <point x="131" y="1500" type="line"/>
      <point x="586" y="301" type="line" smooth="yes"/>
      <point x="607" y="239"/>
      <point x="666" y="78" type="qcurve"/>
      <point x="718" y="228"/>
      <point x="745" y="301" type="qcurve" smooth="yes"/>
      <point x="1197" y="1500" type="line"/>
      <point x="1256" y="1500" type="line"/>
    </contour>
  </outline>
</glyph>
<glyph name="u0057" format="2">
  <advance width="2052"/>
  <unicode hex="0057"/>
  <outline>
    <contour>
      <point x="662" y="0" type="line"/>
      <point x="610" y="0" type="line"/>
      <point x="201" y="1500" type="line"/>
      <point x="257" y="1500" type="line"/>
      <point x="568" y="357" type="line" smooth="yes"/>
      <point x="590" y="280"/>
      <point x="636" y="109" type="qcurve"/>
      <point x="678" y="280"/>
      <point x="701" y="359" type="qcurve" smooth="yes"/>
      <point x="1015" y="1500" type="line"/>
      <point x="1067" y="1500" type="line"/>
      <point x="1388" y="353" type="line" smooth="yes"/>
      <point x="1412" y="270"/>
      <point x="1453" y="101" type="qcurve"/>
      <point x="1491" y="272"/>
      <point x="1514" y="353" type="qcurve" smooth="yes"/>
      <point x="1837" y="1500" type="line"/>
      <point x="1895" y="1500" type="line"/>
      <point x="1478" y="0" type="line"/>
      <point x="1428" y="0" type="line"/>
      <point x="1089" y="1223" type="line" smooth="yes"/>
      <point x="1073" y="1282"/>
      <point x="1037" y="1418" type="qcurve"/>
      <point x="1015" y="1306"/>
      <point x="1003" y="1269" type="qcurve"/>
    </contour>
  </outline>
</glyph>
<glyph name="u0058" format="2">
  <advance width="1293"/>
  <unicode hex="0058"/>
  <outline>
    <contour>
      <point x="1093" y="0" type="line"/>
      <point x="646" y="695" type="line"/>
      <point x="193" y="0" type="line"/>
      <point x="128" y="0" type="line"/>
      <point x="614" y="745" type="line"/>
      <point x="128" y="1500" type="line"/>
      <point x="194" y="1500" type="line"/>
      <point x="647" y="795" type="line"/>
      <point x="1107" y="1500" type="line"/>
      <point x="1173" y="1500" type="line"/>
      <point x="680" y="745" type="line"/>
      <point x="1158" y="0" type="line"/>
    </contour>
  </outline>
</glyph>
<glyph name="u0059" format="2">
  <advance width="1249"/>
  <unicode hex="0059"/>
  <outline>
    <contour>
      <point x="652" y="0" type="line"/>
      <point x="597" y="0" type="line"/>
      <point x="597" y="569" type="line"/>
      <point x="91" y="1500" type="line"/>
      <point x="154" y="1500" type="line"/>
      <point x="622" y="632" type="line"/>
      <point x="1089" y="1500" type="line"/>
      <point x="1152" y="1500" type="line"/>
      <point x="652" y="578" type="line"/>
    </contour>
  </outline>
</glyph>
<glyph name="u005A" format="2">
  <advance width="1262"/>
  <unicode hex="005A"/>
  <outline>
    <contour>
      <point x="1159" y="0" type="line"/>
      <point x="105" y="0" type="line"/>
      <point x="105" y="38" type="line"/>
      <point x="1056" y="1448" type="line"/>
      <point x="163" y="1448" type="line"/>
      <point x="163" y="1500" type="line"/>
      <point x="1135" y="1500" type="line"/>
      <point x="1135" y="1462" type="line"/>
      <point x="183" y="52" type="line"/>
      <point x="1159" y="52" type="line"/>
    </contour>
  </outline>
</glyph>
<glyph name="u005B" format="2">
  <advance width="725"/>
  <unicode hex="005B"/>
  <outline>
    <contour>
      <point x="636" y="-349" type="line"/>
      <point x="194" y="-349" type="line"/>
      <point x="194" y="1576" type="line"/>
      <point x="636" y="1576" type="line"/>
      <point x="636" y="1521" type="line"/>
      <point x="249" y="1521" type="line"/>
      <point x="249" y="-293" type="line"/>
      <point x="636" y="-293" type="line"/>
    </contour>
  </outline>
</glyph>
<glyph name="u005C" format="2">
  <advance width="820"/>
  <unicode hex="005C"/>
  <outline>
    <contour>
      <point x="734" y="0" type="line"/>
      <point x="673" y="0" type="line"/>
      <point x="81" y="1576" type="line"/>
      <point x="142" y="1576" type="line"/>
    </contour>
  </outline>
</glyph>
<glyph name="u005D" format="2">
  <advance width="725"/>
  <unicode hex="005D"/>
  <outline>
    <contour>
      <point x="496" y="-349" type="line"/>
      <point x="54" y="-349" type="line"/>
      <point x="54" y="-293" type="line"/>
      <point x="440" y="-293" type="line"/>
      <point x="440" y="1521" type="line"/>
      <point x="54" y="1521" type="line"/>
      <point x="54" y="1576" type="line"/>
      <point x="496" y="1576" type="line"/>
    </contour>
  </outline>
</glyph>
<glyph name="u005E" format="2">
  <advance width="1262"/>
  <unicode hex="005E"/>
  <outline>
    <contour>
      <point x="376" y="1173" type="line"/>
      <point x="312" y="1173" type="line"/>
      <point x="633" y="1588" type="line"/>
      <point x="683" y="1588" type="line"/>
      <point x="987" y="1173" type="line"/>
      <point x="924" y="1173" type="line"/>
      <point x="655" y="1514" type="line"/>
    </contour>
  </outline>
</glyph>
<glyph name="u005F" format="2">
  <advance width="979"/>
  <unicode hex="005F"/>
  <outline>
    <contour>
      <point x="932" y="-257" type="line"/>
      <point x="60" y="-257" type="line"/>
      <point x="60" y="-200" type="line"/>
      <point x="932" y="-200" type="line"/>
    </contour>
  </outline>
</glyph>
<glyph name="u0060" format="2">
  <advance width="619"/>
  <unicode hex="0060"/>
  <outline>
    <contour>
      <point x="457" y="1338" type="line"/>
      <point x="368" y="1411"/>
      <point x="187" y="1601"/>
      <point x="130" y="1675" type="qcurve"/>
      <point x="130" y="1691" type="line"/>
      <point x="196" y="1691" type="line"/>
      <point x="225" y="1646"/>
      <point x="458" y="1390"/>
      <point x="503" y="1351" type="qcurve"/>
      <point x="503" y="1338" type="line"/>
    </contour>
  </outline>
</glyph>
<glyph name="u0061" format="2">
  <advance width="1237"/>
  <unicode hex="0061"/>
  <outline>
    <contour>
      <point x="278" y="1099" type="line"/>
      <point x="469" y="1186"/>
      <point x="646" y="1186" type="qcurve" smooth="yes"/>
      <point x="1009" y="1186"/>
      <point x="1009" y="773" type="qcurve" smooth="yes"/>
      <point x="1009" y="0" type="line"/>
      <point x="960" y="0" type="line"/>
      <point x="951" y="258" type="line"/>
      <point x="791" y="-22"/>
      <point x="524" y="-22" type="qcurve" smooth="yes"/>
      <point x="170" y="-22"/>
      <point x="170" y="285" type="qcurve" smooth="yes"/>
      <point x="170" y="617"/>
      <point x="724" y="649" type="qcurve" smooth="yes"/>
      <point x="951" y="662" type="line"/>
      <point x="951" y="773" type="line" smooth="yes"/>
      <point x="951" y="1131"/>
      <point x="646" y="1131" type="qcurve" smooth="yes"/>
      <point x="498" y="1131"/>
      <point x="298" y="1042" type="qcurve"/>
    </contour>
    <contour>
      <point x="524" y="33" type="qcurve" smooth="yes"/>
      <point x="797" y="33"/>
      <point x="951" y="360" type="qcurve"/>
      <point x="951" y="607" type="line"/>
      <point x="728" y="596" type="line" smooth="yes"/>
      <point x="231" y="567"/>
      <point x="231" y="285" type="qcurve" smooth="yes"/>
      <point x="231" y="33"/>
    </contour>
  </outline>
</glyph>
<glyph name="u0062" format="2">
  <advance width="1357"/>
  <unicode hex="0062"/>
  <outline>
    <contour>
      <point x="285" y="220" type="qcurve"/>
      <point x="277" y="0" type="line"/>
      <point x="228" y="0" type="line"/>
      <point x="228" y="1677" type="line"/>
      <point x="285" y="1677" type="line"/>
      <point x="285" y="949" type="line"/>
      <point x="468" y="1190"/>
      <point x="694" y="1190" type="qcurve" smooth="yes"/>
      <point x="1188" y="1190"/>
      <point x="1188" y="584" type="qcurve" smooth="yes"/>
      <point x="1188" y="-22"/>
      <point x="694" y="-22" type="qcurve" smooth="yes"/>
      <point x="468" y="-22"/>
    </contour>
    <contour>
      <point x="285" y="854" type="qcurve"/>
      <point x="285" y="315" type="line"/>
      <point x="480" y="33"/>
      <point x="694" y="33" type="qcurve" smooth="yes"/>
      <point x="1129" y="33"/>
      <point x="1129" y="584" type="qcurve" smooth="yes"/>
      <point x="1129" y="1135"/>
      <point x="694" y="1135" type="qcurve" smooth="yes"/>
      <point x="480" y="1135"/>
    </contour>
  </outline>
</glyph>
<glyph name="u0063" format="2">
  <advance width="1059"/>
  <unicode hex="0063"/>
  <outline>
    <contour>
      <point x="129" y="577" type="qcurve" smooth="yes"/>
      <point x="129" y="1188"/>
      <point x="702" y="1188" type="qcurve" smooth="yes"/>
      <point x="848" y="1188"/>
      <point x="974" y="1135" type="qcurve"/>
      <point x="963" y="1079" type="line"/>
      <point x="835" y="1133"/>
      <point x="702" y="1133" type="qcurve" smooth="yes"/>
      <point x="188" y="1133"/>
      <point x="188" y="577" type="qcurve" smooth="yes"/>
      <point x="188" y="33"/>
      <point x="666" y="33" type="qcurve" smooth="yes"/>
      <point x="829" y="33"/>
      <point x="965" y="91" type="qcurve"/>
      <point x="965" y="36" type="line"/>
      <point x="829" y="-22"/>
      <point x="666" y="-22" type="qcurve" smooth="yes"/>
      <point x="129" y="-22"/>
    </contour>
  </outline>
</glyph>
<glyph name="u0064" format="2">
  <advance width="1357"/>
  <unicode hex="0064"/>
  <outline>
    <contour>
      <point x="215" y="584" type="qcurve" smooth="yes"/>
      <point x="215" y="1190"/>
      <point x="710" y="1190" type="qcurve" smooth="yes"/>
      <point x="935" y="1190"/>
      <point x="1118" y="949" type="qcurve"/>
      <point x="1118" y="1677" type="line"/>
      <point x="1175" y="1677" type="line"/>
      <point x="1175" y="0" type="line"/>
      <point x="1127" y="0" type="line"/>
      <point x="1118" y="220" type="line"/>
      <point x="935" y="-22"/>
      <point x="710" y="-22" type="qcurve" smooth="yes"/>
      <point x="215" y="-22"/>
    </contour>
    <contour>
      <point x="710" y="33" type="qcurve" smooth="yes"/>
      <point x="923" y="33"/>
      <point x="1118" y="315" type="qcurve"/>
      <point x="1118" y="854" type="line"/>
      <point x="923" y="1135"/>
      <point x="710" y="1135" type="qcurve" smooth="yes"/>
      <point x="274" y="1135"/>
      <point x="274" y="584" type="qcurve" smooth="yes"/>
      <point x="274" y="33"/>
    </contour>
  </outline>
</glyph>
<glyph name="u0065" format="2">
  <advance width="1244"/>
  <unicode hex="0065"/>
  <outline>
    <contour>
      <point x="172" y="583" type="qcurve" smooth="yes"/>
      <point x="172" y="1188"/>
      <point x="635" y="1188" type="qcurve" smooth="yes"/>
      <point x="1099" y="1188"/>
      <point x="1099" y="642" type="qcurve" smooth="yes"/>
      <point x="1099" y="587" type="line"/>
      <point x="231" y="587" type="line"/>
      <point x="231" y="33"/>
      <point x="695" y="33" type="qcurve" smooth="yes"/>
      <point x="883" y="33"/>
      <point x="1055" y="110" type="qcurve"/>
      <point x="1055" y="51" type="line"/>
      <point x="894" y="-22"/>
      <point x="695" y="-22" type="qcurve" smooth="yes"/>
      <point x="172" y="-22"/>
    </contour>
    <contour>
      <point x="232" y="642" type="qcurve"/>
      <point x="1040" y="642" type="line"/>
      <point x="1040" y="1133"/>
      <point x="635" y="1133" type="qcurve" smooth="yes"/>
      <point x="254" y="1133"/>
    </contour>
  </outline>
</glyph>
<glyph name="u0066" format="2">
  <advance width="758"/>
  <unicode hex="0066"/>
  <outline>
    <contour>
      <point x="348" y="0" type="line"/>
      <point x="291" y="0" type="line"/>
      <point x="291" y="1110" type="line"/>
      <point x="66" y="1110" type="line"/>
      <point x="66" y="1159" type="line"/>
      <point x="291" y="1165" type="line"/>
      <point x="291" y="1331" type="line" smooth="yes"/>
      <point x="291" y="1689"/>
      <point x="609" y="1689" type="qcurve" smooth="yes"/>
      <point x="686" y="1689"/>
      <point x="790" y="1662" type="qcurve"/>
      <point x="782" y="1605" type="line"/>
      <point x="671" y="1634"/>
      <point x="609" y="1634" type="qcurve" smooth="yes"/>
      <point x="348" y="1634"/>
      <point x="348" y="1331" type="qcurve" smooth="yes"/>
      <point x="348" y="1165" type="line"/>
      <point x="611" y="1165" type="line"/>
      <point x="611" y="1110" type="line"/>
      <point x="348" y="1110" type="line"/>
    </contour>
  </outline>
</glyph>
<glyph name="u0067" format="2">
  <advance width="1357"/>
  <unicode hex="0067"/>
  <outline>
    <contour>
      <point x="215" y="584" type="qcurve" smooth="yes"/>
      <point x="215" y="1190"/>
      <point x="710" y="1190" type="qcurve" smooth="yes"/>
      <point x="934" y="1190"/>
      <point x="1114" y="951" type="qcurve"/>
      <point x="1123" y="1165" type="line"/>
      <point x="1171" y="1165" type="line"/>
      <point x="1171" y="-55" type="line" smooth="yes"/>
      <point x="1171" y="-530"/>
      <point x="687" y="-530" type="qcurve" smooth="yes"/>
      <point x="477" y="-530"/>
      <point x="276" y="-448" type="qcurve"/>
      <point x="276" y="-382" type="line"/>
      <point x="504" y="-474"/>
      <point x="687" y="-474" type="qcurve" smooth="yes"/>
      <point x="1114" y="-474"/>
      <point x="1114" y="-55" type="qcurve" smooth="yes"/>
      <point x="1114" y="218" type="line"/>
      <point x="934" y="-22"/>
      <point x="710" y="-22" type="qcurve" smooth="yes"/>
      <point x="215" y="-22"/>
    </contour>
    <contour>
      <point x="710" y="33" type="qcurve" smooth="yes"/>
      <point x="921" y="33"/>
      <point x="1114" y="309" type="qcurve"/>
      <point x="1114" y="859" type="line"/>
      <point x="921" y="1135"/>
      <point x="710" y="1135" type="qcurve" smooth="yes"/>
      <point x="274" y="1135"/>
      <point x="274" y="584" type="qcurve" smooth="yes"/>
      <point x="274" y="33"/>
    </contour>
  </outline>
</glyph>
<glyph name="u0068" format="2">
  <advance width="1363"/>
  <unicode hex="0068"/>
  <outline>
    <contour>
      <point x="320" y="807" type="qcurve"/>
      <point x="320" y="0" type="line"/>
      <point x="263" y="0" type="line"/>
      <point x="263" y="1677" type="line"/>
      <point x="320" y="1677" type="line"/>
      <point x="320" y="915" type="line"/>
      <point x="496" y="1188"/>
      <point x="747" y="1188" type="qcurve" smooth="yes"/>
      <point x="1144" y="1188"/>
      <point x="1144" y="764" type="qcurve" smooth="yes"/>
      <point x="1144" y="0" type="line"/>
      <point x="1087" y="0" type="line"/>
      <point x="1087" y="762" type="line" smooth="yes"/>
      <point x="1087" y="1133"/>
      <point x="747" y="1133" type="qcurve" smooth="yes"/>
      <point x="496" y="1133"/>
    </contour>
  </outline>
</glyph>
<glyph name="u0069" format="2">
  <advance width="569"/>
  <unicode hex="0069"/>
  <outline>
    <contour>
      <point x="214" y="1523" type="qcurve" smooth="yes"/>
      <point x="214" y="1550"/>
      <point x="236" y="1592"/>
      <point x="269" y="1592" type="qcurve" smooth="yes"/>
      <point x="309" y="1592"/>
      <point x="328" y="1550"/>
      <point x="328" y="1523" type="qcurve" smooth="yes"/>
      <point x="328" y="1494"/>
      <point x="309" y="1455"/>
      <point x="269" y="1455" type="qcurve" smooth="yes"/>
      <point x="236" y="1455"/>
      <point x="214" y="1494"/>
    </contour>
    <contour>
      <point x="298" y="0" type="line"/>
      <point x="241" y="0" type="line"/>
      <point x="241" y="1165" type="line"/>
      <point x="298" y="1165" type="line"/>
    </contour>
  </outline>
</glyph>
<glyph name="u006A" format="2">
  <advance width="569"/>
  <unicode hex="006A"/>
  <outline>
    <contour>
      <point x="237" y="1523" type="qcurve" smooth="yes"/>
      <point x="237" y="1550"/>
      <point x="260" y="1592"/>
      <point x="292" y="1592" type="qcurve" smooth="yes"/>
      <point x="332" y="1592"/>
      <point x="353" y="1550"/>
      <point x="353" y="1523" type="qcurve" smooth="yes"/>
      <point x="353" y="1494"/>
      <point x="332" y="1455"/>
      <point x="292" y="1455" type="qcurve" smooth="yes"/>
      <point x="260" y="1455"/>
      <point x="237" y="1494"/>
    </contour>
    <contour>
      <point x="-45" y="-508" type="qcurve"/>
      <point x="-45" y="-451" type="line"/>
      <point x="46" y="-474"/>
      <point x="90" y="-474" type="qcurve" smooth="yes"/>
      <point x="264" y="-474"/>
      <point x="264" y="-257" type="qcurve" smooth="yes"/>
      <point x="264" y="1165" type="line"/>
      <point x="321" y="1165" type="line"/>
      <point x="321" y="-265" type="line" smooth="yes"/>
      <point x="321" y="-530"/>
      <point x="90" y="-530" type="qcurve" smooth="yes"/>
      <point x="43" y="-530"/>
    </contour>
  </outline>
</glyph>
<glyph name="u006B" format="2">
  <advance width="1198"/>
  <unicode hex="006B"/>
  <outline>
    <contour>
      <point x="320" y="0" type="line"/>
      <point x="263" y="0" type="line"/>
      <point x="263" y="1677" type="line"/>
      <point x="320" y="1677" type="line"/>
      <point x="320" y="451" type="line"/>
      <point x="958" y="1165" type="line"/>
      <point x="1034" y="1165" type="line"/>
      <point x="581" y="664" type="line"/>
      <point x="1078" y="0" type="line"/>
      <point x="1009" y="0" type="line"/>
      <point x="541" y="625" type="line"/>
      <point x="320" y="379" type="line"/>
    </contour>
  </outline>
</glyph>
<glyph name="u006C" format="2">
  <advance width="569"/>
  <unicode hex="006C"/>
  <outline>
    <contour>
      <point x="322" y="0" type="line"/>
      <point x="265" y="0" type="line"/>
      <point x="265" y="1677" type="line"/>
      <point x="322" y="1677" type="line"/>
    </contour>
  </outline>
</glyph>
<glyph name="u006D" format="2">
  <advance width="2063"/>
  <unicode hex="006D"/>
  <outline>
    <contour>
      <point x="330" y="1165" type="line"/>
      <point x="343" y="933" type="line"/>
      <point x="475" y="1188"/>
      <point x="699" y="1188" type="qcurve" smooth="yes"/>
      <point x="996" y="1188"/>
      <point x="1051" y="905" type="qcurve"/>
      <point x="1184" y="1188"/>
      <point x="1421" y="1188" type="qcurve" smooth="yes"/>
      <point x="1786" y="1188"/>
      <point x="1786" y="764" type="qcurve" smooth="yes"/>
      <point x="1786" y="0" type="line"/>
      <point x="1728" y="0" type="line"/>
      <point x="1728" y="762" type="line" smooth="yes"/>
      <point x="1728" y="1133"/>
      <point x="1421" y="1133" type="qcurve" smooth="yes"/>
      <point x="1186" y="1133"/>
      <point x="1063" y="828" type="qcurve"/>
      <point x="1063" y="0" type="line"/>
      <point x="1006" y="0" type="line"/>
      <point x="1006" y="762" type="line" smooth="yes"/>
      <point x="1006" y="1133"/>
      <point x="699" y="1133" type="qcurve" smooth="yes"/>
      <point x="465" y="1133"/>
      <point x="343" y="838" type="qcurve"/>
      <point x="341" y="0" type="line"/>
      <point x="284" y="0" type="line"/>
      <point x="284" y="1165" type="line"/>
    </contour>
  </outline>
</glyph>
<glyph name="u006E" format="2">
  <advance width="1363"/>
  <unicode hex="006E"/>
  <outline>
    <contour>
      <point x="309" y="807" type="qcurve"/>
      <point x="309" y="0" type="line"/>
      <point x="252" y="0" type="line"/>
      <point x="252" y="1165" type="line"/>
      <point x="298" y="1165" type="line"/>
      <point x="309" y="921" type="line"/>
      <point x="309" y="915" type="line"/>
      <point x="485" y="1188"/>
      <point x="736" y="1188" type="qcurve" smooth="yes"/>
      <point x="1133" y="1188"/>
      <point x="1133" y="764" type="qcurve" smooth="yes"/>
      <point x="1133" y="0" type="line"/>
      <point x="1076" y="0" type="line"/>
      <point x="1076" y="762" type="line" smooth="yes"/>
      <point x="1076" y="1133"/>
      <point x="736" y="1133" type="qcurve" smooth="yes"/>
      <point x="485" y="1133"/>
    </contour>
  </outline>
</glyph>
<glyph name="u006F" format="2">
  <advance width="1335"/>
  <unicode hex="006F"/>
  <outline>
    <contour>
      <point x="150" y="583" type="qcurve" smooth="yes"/>
      <point x="150" y="1188"/>
      <point x="653" y="1188" type="qcurve" smooth="yes"/>
      <point x="1157" y="1188"/>
      <point x="1157" y="583" type="qcurve" smooth="yes"/>
      <point x="1157" y="-22"/>
      <point x="653" y="-22" type="qcurve" smooth="yes"/>
      <point x="150" y="-22"/>
    </contour>
    <contour>
      <point x="1097" y="583" type="qcurve" smooth="yes"/>
      <point x="1097" y="1133"/>
      <point x="653" y="1133" type="qcurve" smooth="yes"/>
      <point x="209" y="1133"/>
      <point x="209" y="583" type="qcurve" smooth="yes"/>
      <point x="209" y="33"/>
      <point x="653" y="33" type="qcurve" smooth="yes"/>
      <point x="1097" y="33"/>
    </contour>
  </outline>
</glyph>
<glyph name="u0070" format="2">
  <advance width="1357"/>
  <unicode hex="0070"/>
  <outline>
    <contour>
      <point x="294" y="218" type="qcurve"/>
      <point x="294" y="-511" type="line"/>
      <point x="237" y="-511" type="line"/>
      <point x="237" y="1166" type="line"/>
      <point x="286" y="1166" type="line"/>
      <point x="294" y="946" type="line"/>
      <point x="477" y="1188"/>
      <point x="703" y="1188" type="qcurve" smooth="yes"/>
      <point x="1197" y="1188"/>
      <point x="1197" y="582" type="qcurve" smooth="yes"/>
      <point x="1197" y="-24"/>
      <point x="703" y="-24" type="qcurve" smooth="yes"/>
      <point x="477" y="-24"/>
    </contour>
    <contour>
      <point x="294" y="852" type="qcurve"/>
      <point x="294" y="313" type="line"/>
      <point x="489" y="31"/>
      <point x="703" y="31" type="qcurve" smooth="yes"/>
      <point x="1138" y="31"/>
      <point x="1138" y="582" type="qcurve" smooth="yes"/>
      <point x="1138" y="1133"/>
      <point x="703" y="1133" type="qcurve" smooth="yes"/>
      <point x="489" y="1133"/>
    </contour>
  </outline>
</glyph>
<glyph name="u0071" format="2">
  <advance width="1357"/>
  <unicode hex="0071"/>
  <outline>
    <contour>
      <point x="204" y="582" type="qcurve" smooth="yes"/>
      <point x="204" y="1188"/>
      <point x="699" y="1188" type="qcurve" smooth="yes"/>
      <point x="924" y="1188"/>
      <point x="1107" y="946" type="qcurve"/>
      <point x="1116" y="1166" type="line"/>
      <point x="1164" y="1166" type="line"/>
      <point x="1164" y="-511" type="line"/>
      <point x="1107" y="-511" type="line"/>
      <point x="1107" y="218" type="line"/>
      <point x="924" y="-24"/>
      <point x="699" y="-24" type="qcurve" smooth="yes"/>
      <point x="204" y="-24"/>
    </contour>
    <contour>
      <point x="699" y="31" type="qcurve" smooth="yes"/>
      <point x="912" y="31"/>
      <point x="1107" y="313" type="qcurve"/>
      <point x="1107" y="852" type="line"/>
      <point x="912" y="1133"/>
      <point x="699" y="1133" type="qcurve" smooth="yes"/>
      <point x="263" y="1133"/>
      <point x="263" y="582" type="qcurve" smooth="yes"/>
      <point x="263" y="31"/>
    </contour>
  </outline>
</glyph>
<glyph name="u0072" format="2">
  <advance width="910"/>
  <unicode hex="0072"/>
  <outline>
    <contour>
      <point x="266" y="805" type="qcurve"/>
      <point x="266" y="0" type="line"/>
      <point x="209" y="0" type="line"/>
      <point x="209" y="1165" type="line"/>
      <point x="255" y="1165" type="line"/>
      <point x="266" y="921" type="line"/>
      <point x="266" y="908" type="line"/>
      <point x="412" y="1184"/>
      <point x="624" y="1184" type="qcurve" smooth="yes"/>
      <point x="711" y="1184"/>
      <point x="803" y="1159" type="qcurve"/>
      <point x="790" y="1106" type="line"/>
      <point x="705" y="1129"/>
      <point x="624" y="1129" type="qcurve" smooth="yes"/>
      <point x="419" y="1129"/>
    </contour>
  </outline>
</glyph>
<glyph name="u0073" format="2">
  <advance width="1056"/>
  <unicode hex="0073"/>
  <outline>
    <contour>
      <point x="139" y="53" type="qcurve"/>
      <point x="139" y="120" type="line"/>
      <point x="335" y="33"/>
      <point x="523" y="33" type="qcurve" smooth="yes"/>
      <point x="901" y="33"/>
      <point x="901" y="295" type="qcurve" smooth="yes"/>
      <point x="901" y="467"/>
      <point x="548" y="579" type="qcurve" smooth="yes"/>
      <point x="177" y="696"/>
      <point x="177" y="899" type="qcurve" smooth="yes"/>
      <point x="177" y="1188"/>
      <point x="579" y="1188" type="qcurve" smooth="yes"/>
      <point x="773" y="1188"/>
      <point x="931" y="1121" type="qcurve"/>
      <point x="908" y="1066" type="line"/>
      <point x="748" y="1133"/>
      <point x="579" y="1133" type="qcurve" smooth="yes"/>
      <point x="236" y="1133"/>
      <point x="236" y="899" type="qcurve" smooth="yes"/>
      <point x="236" y="735"/>
      <point x="567" y="632" type="qcurve" smooth="yes"/>
      <point x="960" y="507"/>
      <point x="960" y="295" type="qcurve" smooth="yes"/>
      <point x="960" y="-22"/>
      <point x="523" y="-22" type="qcurve" smooth="yes"/>
      <point x="308" y="-22"/>
    </contour>
  </outline>
</glyph>
<glyph name="u0074" format="2">
  <advance width="796"/>
  <unicode hex="0074"/>
  <outline>
    <contour>
      <point x="276" y="309" type="qcurve" smooth="yes"/>
      <point x="276" y="1110" type="line"/>
      <point x="97" y="1110" type="line"/>
      <point x="97" y="1159" type="line"/>
      <point x="274" y="1165" type="line"/>
      <point x="287" y="1455" type="line"/>
      <point x="333" y="1455" type="line"/>
      <point x="333" y="1165" type="line"/>
      <point x="712" y="1165" type="line"/>
      <point x="712" y="1110" type="line"/>
      <point x="333" y="1110" type="line"/>
      <point x="333" y="316" type="line" smooth="yes"/>
      <point x="333" y="33"/>
      <point x="543" y="33" type="qcurve" smooth="yes"/>
      <point x="621" y="33"/>
      <point x="717" y="61" type="qcurve"/>
      <point x="717" y="6" type="line"/>
      <point x="622" y="-22"/>
      <point x="543" y="-22" type="qcurve" smooth="yes"/>
      <point x="276" y="-22"/>
    </contour>
  </outline>
</glyph>
<glyph name="u0075" format="2">
  <advance width="1363"/>
  <unicode hex="0075"/>
  <outline>
    <contour>
      <point x="244" y="402" type="qcurve" smooth="yes"/>
      <point x="244" y="1166" type="line"/>
      <point x="301" y="1166" type="line"/>
      <point x="301" y="404" type="line" smooth="yes"/>
      <point x="301" y="33"/>
      <point x="641" y="33" type="qcurve" smooth="yes"/>
      <point x="892" y="33"/>
      <point x="1068" y="359" type="qcurve"/>
      <point x="1068" y="1166" type="line"/>
      <point x="1125" y="1166" type="line"/>
      <point x="1125" y="1" type="line"/>
      <point x="1078" y="1" type="line"/>
      <point x="1068" y="246" type="line"/>
      <point x="1068" y="251" type="line"/>
      <point x="892" y="-22"/>
      <point x="641" y="-22" type="qcurve" smooth="yes"/>
      <point x="244" y="-22"/>
    </contour>
  </outline>
</glyph>
<glyph name="u0076" format="2">
  <advance width="1121"/>
  <unicode hex="0076"/>
  <outline>
    <contour>
      <point x="585" y="0" type="line"/>
      <point x="537" y="0" type="line"/>
      <point x="86" y="1165" type="line"/>
      <point x="145" y="1165" type="line"/>
      <point x="476" y="305" type="line" smooth="yes"/>
      <point x="505" y="234"/>
      <point x="558" y="80" type="qcurve"/>
      <point x="562" y="80" type="line"/>
      <point x="616" y="234"/>
      <point x="644" y="305" type="qcurve" smooth="yes"/>
      <point x="975" y="1165" type="line"/>
      <point x="1036" y="1165" type="line"/>
    </contour>
  </outline>
</glyph>
<glyph name="u0077" format="2">
  <advance width="1734"/>
  <unicode hex="0077"/>
  <outline>
    <contour>
      <point x="517" y="-2" type="line"/>
      <point x="468" y="-2" type="line"/>
      <point x="131" y="1163" type="line"/>
      <point x="195" y="1163" type="line"/>
      <point x="426" y="344" type="line" smooth="yes"/>
      <point x="455" y="243"/>
      <point x="493" y="91" type="qcurve"/>
      <point x="497" y="91" type="line"/>
      <point x="540" y="243"/>
      <point x="573" y="344" type="qcurve" smooth="yes"/>
      <point x="849" y="1163" type="line"/>
      <point x="895" y="1163" type="line"/>
      <point x="1157" y="347" type="line" smooth="yes"/>
      <point x="1208" y="185"/>
      <point x="1233" y="91" type="qcurve"/>
      <point x="1237" y="91" type="line"/>
      <point x="1272" y="249"/>
      <point x="1296" y="344" type="qcurve" smooth="yes"/>
      <point x="1515" y="1163" type="line"/>
      <point x="1572" y="1163" type="line"/>
      <point x="1262" y="-2" type="line"/>
      <point x="1213" y="-2" type="line"/>
      <point x="934" y="857" type="line" smooth="yes"/>
      <point x="917" y="914"/>
      <point x="870" y="1064" type="qcurve"/>
      <point x="866" y="1064" type="line"/>
      <point x="835" y="954"/>
      <point x="803" y="857" type="qcurve" smooth="yes"/>
    </contour>
  </outline>
</glyph>
<glyph name="u0078" format="2">
  <advance width="1167"/>
  <unicode hex="0078"/>
  <outline>
    <contour>
      <point x="189" y="0" type="line"/>
      <point x="121" y="0" type="line"/>
      <point x="550" y="598" type="line"/>
      <point x="138" y="1165" type="line"/>
      <point x="212" y="1165" type="line"/>
      <point x="586" y="648" type="line"/>
      <point x="957" y="1165" type="line"/>
      <point x="1029" y="1165" type="line"/>
      <point x="621" y="599" type="line"/>
      <point x="1054" y="0" type="line"/>
      <point x="984" y="0" type="line"/>
      <point x="586" y="550" type="line"/>
    </contour>
  </outline>
</glyph>
<glyph name="u0079" format="2">
  <advance width="1125"/>
  <unicode hex="0079"/>
  <outline>
    <contour>
      <point x="84" y="-514" type="qcurve"/>
      <point x="84" y="-457" type="line"/>
      <point x="147" y="-481"/>
      <point x="204" y="-481" type="qcurve" smooth="yes"/>
      <point x="352" y="-481"/>
      <point x="450" y="-225" type="qcurve" smooth="yes"/>
      <point x="541" y="10" type="line"/>
      <point x="97" y="1165" type="line"/>
      <point x="157" y="1165" type="line"/>
      <point x="571" y="87" type="line"/>
      <point x="987" y="1165" type="line"/>
      <point x="1047" y="1165" type="line"/>
      <point x="497" y="-254" type="line" smooth="yes"/>
      <point x="389" y="-537"/>
      <point x="204" y="-537" type="qcurve" smooth="yes"/>
      <point x="143" y="-537"/>
    </contour>
  </outline>
</glyph>
<glyph name="u007A" format="2">
  <advance width="1036"/>
  <unicode hex="007A"/>
  <outline>
    <contour>
      <point x="930" y="0" type="line"/>
      <point x="111" y="0" type="line"/>
      <point x="111" y="38" type="line"/>
      <point x="853" y="1110" type="line"/>
      <point x="170" y="1110" type="line"/>
      <point x="170" y="1165" type="line"/>
      <point x="937" y="1165" type="line"/>
      <point x="937" y="1133" type="line"/>
      <point x="191" y="55" type="line"/>
      <point x="930" y="55" type="line"/>
    </contour>
  </outline>
</glyph>
<glyph name="u007B" format="2">
  <advance width="838"/>
  <unicode hex="007B"/>
  <outline>
    <contour>
      <point x="737" y="-349" type="line"/>
      <point x="375" y="-349"/>
      <point x="375" y="-51" type="qcurve" smooth="yes"/>
      <point x="375" y="327" type="line" smooth="yes"/>
      <point x="375" y="587"/>
      <point x="132" y="587" type="qcurve"/>
      <point x="132" y="640" type="line"/>
      <point x="375" y="640"/>
      <point x="375" y="901" type="qcurve" smooth="yes"/>
      <point x="375" y="1278" type="line" smooth="yes"/>
      <point x="375" y="1576"/>
      <point x="737" y="1576" type="qcurve"/>
      <point x="737" y="1521" type="line"/>
      <point x="435" y="1521"/>
      <point x="435" y="1265" type="qcurve" smooth="yes"/>
      <point x="435" y="891" type="line" smooth="yes"/>
      <point x="435" y="634"/>
      <point x="260" y="615" type="qcurve"/>
      <point x="260" y="611" type="line"/>
      <point x="435" y="594"/>
      <point x="435" y="335" type="qcurve" smooth="yes"/>
      <point x="435" y="-44" type="line" smooth="yes"/>
      <point x="435" y="-293"/>
      <point x="737" y="-293" type="qcurve"/>
    </contour>
  </outline>
</glyph>
<glyph name="u007C" format="2">
  <advance width="1215"/>
  <unicode hex="007C"/>
  <outline>
    <contour>
      <point x="667" y="-554" type="line"/>
      <point x="612" y="-554" type="line"/>
      <point x="612" y="1685" type="line"/>
      <point x="667" y="1685" type="line"/>
    </contour>
  </outline>
</glyph>
<glyph name="u007D" format="2">
  <advance width="838"/>
  <unicode hex="007D"/>
  <outline>
    <contour>
      <point x="473" y="-51" type="line" smooth="yes"/>
      <point x="473" y="-349"/>
      <point x="111" y="-349" type="qcurve"/>
      <point x="111" y="-293" type="line"/>
      <point x="414" y="-293"/>
      <point x="414" y="-44" type="qcurve" smooth="yes"/>
      <point x="414" y="335" type="line" smooth="yes"/>
      <point x="414" y="594"/>
      <point x="587" y="611" type="qcurve"/>
      <point x="587" y="615" type="line"/>
      <point x="414" y="634"/>
      <point x="414" y="891" type="qcurve" smooth="yes"/>
      <point x="414" y="1265" type="line" smooth="yes"/>
      <point x="414" y="1521"/>
      <point x="111" y="1521" type="qcurve"/>
      <point x="111" y="1576" type="line"/>
      <point x="473" y="1576"/>
      <point x="473" y="1278" type="qcurve" smooth="yes"/>
      <point x="473" y="901" type="line" smooth="yes"/>
      <point x="473" y="640"/>
      <point x="716" y="640" type="qcurve"/>
      <point x="716" y="587" type="line"/>
      <point x="473" y="587"/>
      <point x="473" y="327" type="qcurve" smooth="yes"/>
    </contour>
  </outline>
</glyph>
<glyph name="u007E" format="2">
  <advance width="1262"/>
  <unicode hex="007E"/>
  <outline>
    <contour>
      <point x="1144" y="790" type="line"/>
      <point x="1041" y="682"/>
      <point x="893" y="682" type="qcurve" smooth="yes"/>
      <point x="781" y="682"/>
      <point x="632" y="755" type="qcurve" smooth="yes"/>
      <point x="493" y="824"/>
      <point x="392" y="824" type="qcurve"/>
      <point x="253" y="822"/>
      <point x="133" y="702" type="qcurve"/>
      <point x="133" y="771" type="line"/>
      <point x="240" y="876"/>
      <point x="392" y="876" type="qcurve" smooth="yes"/>
      <point x="513" y="876"/>
      <point x="660" y="803" type="qcurve" smooth="yes"/>
      <point x="799" y="735"/>
      <point x="893" y="735" type="qcurve" smooth="yes"/>
      <point x="1029" y="735"/>
      <point x="1144" y="855" type="qcurve"/>
    </contour>
  </outline>
</glyph>
<glyph name="guillemotleft" format="2">
  <advance width="1123"/>
  <unicode hex="00AB"/>
  <outline>
    <contour>
      <point x="930" y="217" type="line"/>
      <point x="894" y="192" type="line"/>
      <point x="559" y="600" type="line"/>
      <point x="559" y="629" type="line"/>
      <point x="894" y="1042" type="line"/>
      <point x="930" y="1015" type="line"/>
      <point x="628" y="615" type="line"/>
    </contour>
    <contour>
      <point x="557" y="217" type="line"/>
      <point x="521" y="192" type="line"/>
      <point x="186" y="600" type="line"/>
      <point x="186" y="629" type="line"/>
      <point x="521" y="1042" type="line"/>
      <point x="557" y="1015" type="line"/>
      <point x="254" y="615" type="line"/>
    </contour>
  </outline>
</glyph>
<glyph name="guillemotright" format="2">
  <advance width="1123"/>
  <unicode hex="00BB"/>
  <outline>
    <contour>
      <point x="898" y="605" type="line"/>
      <point x="563" y="192" type="line"/>
      <point x="527" y="219" type="line"/>
      <point x="830" y="618" type="line"/>
      <point x="527" y="1018" type="line"/>
      <point x="563" y="1042" type="line"/>
      <point x="898" y="634" type="line"/>
    </contour>
    <contour>
      <point x="525" y="605" type="line"/>
      <point x="190" y="192" type="line"/>
      <point x="154" y="219" type="line"/>
      <point x="457" y="618" type="line"/>
      <point x="154" y="1018" type="line"/>
      <point x="190" y="1042" type="line"/>
      <point x="525" y="634" type="line"/>
    </contour>
  </outline>
</glyph>
<glyph name="uni1781" format="2">
  <advance width="1450"/>
  <unicode hex="1781"/>
  <outline>
    <contour>
      <point x="1150" y="660" type="line"/>
      <point x="1150" y="280" type="line" smooth="yes"/>
      <point x="1150" y="200"/>
      <point x="900" y="0"/>
      <point x="750" y="0" type="qcurve" smooth="yes"/>
      <point x="700" y="0" type="line" smooth="yes"/>
      <point x="550" y="0"/>
      <point x="300" y="200"/>
      <point x="300" y="280" type="qcurve" smooth="yes"/>
      <point x="300" y="513" type="line"/>
      <point x="776" y="772" type="line" smooth="yes"/>
      <point x="1082" y="936"/>
      <point x="1082" y="1030" type="qcurve" smooth="yes"/>
      <point x="1082" y="1180" type="line" smooth="yes"/>
      <point x="1082" y="1238"/>
      <point x="873" y="1406"/>
      <point x="750" y="1406" type="qcurve" smooth="yes"/>
      <point x="700" y="1406" type="line" smooth="yes"/>
      <point x="577" y="1406"/>
      <point x="368" y="1238"/>
      <point x="368" y="1180" type="qcurve" smooth="yes"/>
      <point x="368" y="950" type="line" smooth="yes"/>
      <point x="368" y="900"/>
      <point x="418" y="900" type="qcurve" smooth="yes"/>
      <point x="486" y="900"/>
      <point x="486" y="980" type="qcurve" smooth="yes"/>
      <point x="486" y="1035"/>
      <point x="394" y="1035" type="qcurve" smooth="yes"/>
      <point x="352" y="1035" type="line"/>
      <point x="352" y="1085" type="line"/>
      <point x="394" y="1085" type="line" smooth="yes"/>
      <point x="536" y="1085"/>
      <point x="536" y="980" type="qcurve" smooth="yes"/>
      <point x="536" y="850"/>
      <point x="418" y="850" type="qcurve" smooth="yes"/>
      <point x="300" y="850"/>
      <point x="300" y="950" type="qcurve" smooth="yes"/>
      <point x="300" y="1180" type="line" smooth="yes"/>
      <point x="300" y="1260"/>
      <point x="550" y="1460"/>
      <point x="700" y="1460" type="qcurve" smooth="yes"/>
      <point x="750" y="1460" type="line" smooth="yes"/>
      <point x="900" y="1460"/>
      <point x="1150" y="1260"/>
      <point x="1150" y="1180" type="qcurve" smooth="yes"/>
      <point x="1150" y="1030" type="line" smooth="yes"/>
      <point x="1150" y="913"/>
      <point x="804" y="725" type="qcurve" smooth="yes"/>
      <point x="368" y="488" type="line"/>
      <point x="368" y="280" type="line" smooth="yes"/>
      <point x="368" y="222"/>
      <point x="577" y="54"/>
      <point x="700" y="54" type="qcurve" smooth="yes"/>
      <point x="750" y="54" type="line" smooth="yes"/>
      <point x="873" y="54"/>
      <point x="1082" y="222"/>
      <point x="1082" y="280" type="qcurve" smooth="yes"/>
      <point x="1082" y="600" type="line"/>
    </contour>
  </outline>
</glyph>
<glyph name="uni178D" format="2">
  <advance width="2162"/>
  <unicode hex="178D"/>
  <outline>
    <contour>
      <point x="401" y="30" type="qcurve" smooth="yes"/>
      <point x="368" y="0" type="line"/>
      <point x="300" y="0" type="line"/>
      <point x="300" y="1082" type="line"/>
      <point x="210" y="1135"/>
      <point x="210" y="1185" type="qcurve" smooth="yes"/>
      <point x="210" y="1217" type="line" smooth="yes"/>
      <point x="210" y="1268"/>
      <point x="401" y="1460"/>
      <point x="449" y="1460" type="qcurve" smooth="yes"/>
      <point x="496" y="1460"/>
      <point x="649" y="1300"/>
      <point x="677" y="1300" type="qcurve" smooth="yes"/>
      <point x="700" y="1300"/>
      <point x="843" y="1460"/>
      <point x="891" y="1460" type="qcurve" smooth="yes"/>
      <point x="939" y="1460"/>
      <point x="1150" y="1290"/>
      <point x="1150" y="1180" type="qcurve" smooth="yes"/>
      <point x="1150" y="0" type="line"/>
      <point x="1082" y="0" type="line"/>
      <point x="902" y="80"/>
      <point x="902" y="306" type="qcurve" smooth="yes"/>
      <point x="902" y="470"/>
      <point x="1177" y="470" type="qcurve" smooth="yes"/>
      <point x="1462" y="470"/>
      <point x="1462" y="217" type="qcurve" smooth="yes"/>
      <point x="1462" y="60"/>
      <point x="1622" y="60" type="qcurve" smooth="yes"/>
      <point x="1812" y="60"/>
      <point x="1812" y="217" type="qcurve" smooth="yes"/>
      <point x="1812" y="991" type="line"/>
      <point x="1641" y="1087" type="line" smooth="yes"/>
      <point x="1597" y="1110"/>
      <point x="1597" y="1131" type="qcurve" smooth="yes"/>
      <point x="1597" y="1162"/>
      <point x="1620" y="1199" type="qcurve" smooth="yes"/>
      <point x="1781" y="1460" type="line"/>
      <point x="1921" y="1359" type="line" smooth="yes"/>
      <point x="1967" y="1325"/>
      <point x="1996" y="1325" type="qcurve" smooth="yes"/>
      <point x="2034" y="1325"/>
      <point x="2080" y="1345" type="qcurve"/>
      <point x="2080" y="1310"/>
      <point x="2032" y="1262"/>
      <point x="1996" y="1262" type="qcurve" smooth="yes"/>
      <point x="1951" y="1262"/>
      <point x="1872" y="1316" type="qcurve" smooth="yes"/>
      <point x="1793" y="1370" type="line"/>
      <point x="1664" y="1148" type="line"/>
      <point x="1880" y="1028" type="line"/>
      <point x="1880" y="217" type="line" smooth="yes"/>
      <point x="1880" y="0"/>
      <point x="1622" y="0" type="qcurve" smooth="yes"/>
      <point x="1392" y="0"/>
      <point x="1392" y="217" type="qcurve" smooth="yes"/>
      <point x="1392" y="420"/>
      <point x="1177" y="420" type="qcurve" smooth="yes"/>
      <point x="962" y="420"/>
      <point x="962" y="306" type="qcurve" smooth="yes"/>
      <point x="962" y="120"/>
      <point x="1082" y="60" type="qcurve"/>
      <point x="1082" y="1180" type="line" smooth="yes"/>
      <point x="1082" y="1260"/>
      <point x="923" y="1390"/>
      <point x="892" y="1390" type="qcurve" smooth="yes"/>
      <point x="863" y="1390"/>
      <point x="693" y="1230"/>
      <point x="662" y="1230" type="qcurve" smooth="yes"/>
      <point x="631" y="1230"/>
      <point x="483" y="1390"/>
      <point x="449" y="1390" type="qcurve" smooth="yes"/>
      <point x="419" y="1390"/>
      <point x="274" y="1257"/>
      <point x="274" y="1209" type="qcurve" smooth="yes"/>
      <point x="274" y="1160"/>
      <point x="368" y="1110" type="qcurve"/>
      <point x="368" y="84" type="line"/>
      <point x="568" y="274"/>
      <point x="568" y="415" type="qcurve" smooth="yes"/>
      <point x="568" y="531"/>
      <point x="375" y="531" type="qcurve" smooth="yes"/>
      <point x="360" y="531" type="line"/>
      <point x="360" y="590" type="line"/>
      <point x="375" y="590" type="line" smooth="yes"/>
      <point x="630" y="590"/>
      <point x="630" y="415" type="qcurve" smooth="yes"/>
      <point x="630" y="242"/>
    </contour>
  </outline>
</glyph>
<glyph name="uni178E" format="2">
  <advance width="2824"/>
  <unicode hex="178E"/>
  <outline>
    <contour>
      <point x="2466" y="0" type="line"/>
      <point x="2466" y="1100" type="line" smooth="yes"/>
      <point x="2466" y="1176"/>
      <point x="2213" y="1392"/>
      <point x="2104" y="1392" type="qcurve" smooth="yes"/>
      <point x="2044" y="1392"/>
      <point x="1912" y="1292" type="qcurve" smooth="yes"/>
      <point x="1691" y="1126" type="line"/>
      <point x="1775" y="1071" type="line" smooth="yes"/>
      <point x="1802" y="1054"/>
      <point x="1802" y="1010" type="qcurve" smooth="yes"/>
      <point x="1802" y="0" type="line"/>
      <point x="1734" y="0" type="line"/>
      <point x="1412" y="285" type="line"/>
      <point x="1090" y="0" type="line"/>
      <point x="1022" y="0" type="line"/>
      <point x="1022" y="1100" type="line" smooth="yes"/>
      <point x="1022" y="1176"/>
      <point x="769" y="1392"/>
      <point x="660" y="1392" type="qcurve" smooth="yes"/>
      <point x="600" y="1392"/>
      <point x="468" y="1292" type="qcurve" smooth="yes"/>
      <point x="247" y="1126" type="line"/>
      <point x="331" y="1071" type="line" smooth="yes"/>
      <point x="358" y="1054"/>
      <point x="358" y="1010" type="qcurve" smooth="yes"/>
      <point x="358" y="84" type="line"/>
      <point x="538" y="234"/>
      <point x="538" y="420" type="qcurve" smooth="yes"/>
      <point x="538" y="531"/>
      <point x="365" y="531" type="qcurve" smooth="yes"/>
      <point x="350" y="531" type="line"/>
      <point x="350" y="590" type="line"/>
      <point x="365" y="590" type="line" smooth="yes"/>
      <point x="603" y="590"/>
      <point x="603" y="420" type="qcurve" smooth="yes"/>
      <point x="603" y="242"/>
      <point x="422" y="63" type="qcurve" smooth="yes"/>
      <point x="358" y="0" type="line"/>
      <point x="290" y="0" type="line"/>
      <point x="290" y="1008" type="line"/>
      <point x="208" y="1066" type="line" smooth="yes"/>
      <point x="180" y="1085"/>
      <point x="180" y="1120" type="qcurve" smooth="yes"/>
      <point x="180" y="1165"/>
      <point x="280" y="1239" type="qcurve" smooth="yes"/>
      <point x="417" y="1341" type="line" smooth="yes"/>
      <point x="578" y="1460"/>
      <point x="660" y="1460" type="qcurve" smooth="yes"/>
      <point x="788" y="1460"/>
      <point x="1090" y="1215"/>
      <point x="1090" y="1100" type="qcurve" smooth="yes"/>
      <point x="1090" y="76" type="line"/>
      <point x="1412" y="362" type="line"/>
      <point x="1734" y="76" type="line"/>
      <point x="1734" y="1008" type="line"/>
      <point x="1652" y="1066" type="line" smooth="yes"/>
      <point x="1624" y="1085"/>
      <point x="1624" y="1120" type="qcurve" smooth="yes"/>
      <point x="1624" y="1165"/>
      <point x="1724" y="1239" type="qcurve" smooth="yes"/>
      <point x="1861" y="1341" type="line" smooth="yes"/>
      <point x="2022" y="1460"/>
      <point x="2104" y="1460" type="qcurve" smooth="yes"/>
      <point x="2232" y="1460"/>
      <point x="2534" y="1215"/>
      <point x="2534" y="1100" type="qcurve" smooth="yes"/>
      <point x="2534" y="0" type="line"/>
    </contour>
  </outline>
</glyph>
<glyph name="uni178F" format="2">
  <advance width="1450"/>
  <unicode hex="178F"/>
  <outline>
    <contour>
      <point x="393" y="1084" type="line"/>
      <point x="240" y="1122"/>
      <point x="240" y="1185" type="qcurve" smooth="yes"/>
      <point x="240" y="1217" type="line" smooth="yes"/>
      <point x="240" y="1268"/>
      <point x="441" y="1460"/>
      <point x="489" y="1460" type="qcurve" smooth="yes"/>
      <point x="536" y="1460"/>
      <point x="699" y="1290"/>
      <point x="727" y="1290" type="qcurve" smooth="yes"/>
      <point x="750" y="1290"/>
      <point x="893" y="1460"/>
      <point x="941" y="1460" type="qcurve" smooth="yes"/>
      <point x="989" y="1460"/>
      <point x="1123" y="1290"/>
      <point x="1160" y="1290" type="qcurve" smooth="yes"/>
      <point x="1206" y="1290"/>
      <point x="1220" y="1309" type="qcurve"/>
      <point x="1207" y="1220"/>
      <point x="1146" y="1220" type="qcurve" smooth="yes"/>
      <point x="1096" y="1220"/>
      <point x="973" y="1390"/>
      <point x="942" y="1390" type="qcurve" smooth="yes"/>
      <point x="913" y="1390"/>
      <point x="743" y="1220"/>
      <point x="712" y="1220" type="qcurve" smooth="yes"/>
      <point x="681" y="1220"/>
      <point x="523" y="1390"/>
      <point x="489" y="1390" type="qcurve" smooth="yes"/>
      <point x="459" y="1390"/>
      <point x="304" y="1257"/>
      <point x="304" y="1209" type="qcurve" smooth="yes"/>
      <point x="304" y="1160"/>
      <point x="466" y="1125" type="qcurve"/>
    </contour>
    <contour>
      <point x="1082" y="0" type="line"/>
      <point x="1082" y="750" type="line" smooth="yes"/>
      <point x="1082" y="808"/>
      <point x="873" y="976"/>
      <point x="750" y="976" type="qcurve" smooth="yes"/>
      <point x="700" y="976" type="line" smooth="yes"/>
      <point x="577" y="976"/>
      <point x="368" y="808"/>
      <point x="368" y="750" type="qcurve" smooth="yes"/>
      <point x="368" y="94" type="line"/>
      <point x="518" y="254"/>
      <point x="518" y="345" type="qcurve" smooth="yes"/>
      <point x="518" y="441"/>
      <point x="375" y="441" type="qcurve" smooth="yes"/>
      <point x="360" y="441" type="line"/>
      <point x="360" y="500" type="line"/>
      <point x="375" y="500" type="line" smooth="yes"/>
      <point x="580" y="500"/>
      <point x="580" y="345" type="qcurve" smooth="yes"/>
      <point x="580" y="242"/>
      <point x="421" y="61" type="qcurve" smooth="yes"/>
      <point x="368" y="0" type="line"/>
      <point x="300" y="0" type="line"/>
      <point x="300" y="750" type="line" smooth="yes"/>
      <point x="300" y="830"/>
      <point x="550" y="1030"/>
      <point x="700" y="1030" type="qcurve" smooth="yes"/>
      <point x="750" y="1030" type="line" smooth="yes"/>
      <point x="900" y="1030"/>
      <point x="1150" y="830"/>
      <point x="1150" y="750" type="qcurve" smooth="yes"/>
      <point x="1150" y="0" type="line"/>
    </contour>
  </outline>
</glyph>
<glyph name="uni1791" format="2">
  <advance width="1450"/>
  <unicode hex="1791"/>
  <outline>
    <contour>
      <point x="442" y="450" type="line"/>
      <point x="510" y="450" type="line"/>
      <point x="510" y="250" type="line" smooth="yes"/>
      <point x="510" y="64"/>
      <point x="700" y="64" type="qcurve" smooth="yes"/>
      <point x="890" y="64"/>
      <point x="890" y="301" type="qcurve" smooth="yes"/>
      <point x="890" y="651" type="line" smooth="yes"/>
      <point x="890" y="801"/>
      <point x="1032" y="801" type="qcurve" smooth="yes"/>
      <point x="1150" y="801"/>
      <point x="1150" y="692" type="qcurve" smooth="yes"/>
      <point x="1150" y="571"/>
      <point x="1026" y="571" type="qcurve" smooth="yes"/>
      <point x="726" y="571" type="line" smooth="yes"/>
      <point x="300" y="571"/>
      <point x="300" y="945" type="qcurve" smooth="yes"/>
      <point x="300" y="1180" type="line" smooth="yes"/>
      <point x="300" y="1260"/>
      <point x="550" y="1460"/>
      <point x="700" y="1460" type="qcurve" smooth="yes"/>
      <point x="750" y="1460" type="line" smooth="yes"/>
      <point x="900" y="1460"/>
      <point x="1150" y="1260"/>
      <point x="1150" y="1180" type="qcurve" smooth="yes"/>
      <point x="1150" y="1030" type="line" smooth="yes"/>
      <point x="1150" y="930"/>
      <point x="1032" y="930" type="qcurve" smooth="yes"/>
      <point x="914" y="930"/>
      <point x="914" y="1060" type="qcurve" smooth="yes"/>
      <point x="914" y="1165"/>
      <point x="1056" y="1165" type="qcurve" smooth="yes"/>
      <point x="1098" y="1165" type="line"/>
      <point x="1098" y="1115" type="line"/>
      <point x="1056" y="1115" type="line" smooth="yes"/>
      <point x="964" y="1115"/>
      <point x="964" y="1060" type="qcurve" smooth="yes"/>
      <point x="964" y="980"/>
      <point x="1032" y="980" type="qcurve" smooth="yes"/>
      <point x="1082" y="980"/>
      <point x="1082" y="1030" type="qcurve" smooth="yes"/>
      <point x="1082" y="1180" type="line" smooth="yes"/>
      <point x="1082" y="1238"/>
      <point x="873" y="1406"/>
      <point x="750" y="1406" type="qcurve" smooth="yes"/>
      <point x="700" y="1406" type="line" smooth="yes"/>
      <point x="577" y="1406"/>
      <point x="368" y="1238"/>
      <point x="368" y="1180" type="qcurve" smooth="yes"/>
      <point x="368" y="945" type="line" smooth="yes"/>
      <point x="368" y="631"/>
      <point x="726" y="631" type="qcurve" smooth="yes"/>
      <point x="1026" y="633" type="line" smooth="yes"/>
      <point x="1090" y="634"/>
      <point x="1090" y="691" type="qcurve" smooth="yes"/>
      <point x="1090" y="750"/>
      <point x="1032" y="750" type="qcurve" smooth="yes"/>
      <point x="958" y="750"/>
      <point x="958" y="651" type="qcurve" smooth="yes"/>
      <point x="958" y="302" type="line" smooth="yes"/>
      <point x="958" y="0"/>
      <point x="700" y="0" type="qcurve" smooth="yes"/>
      <point x="442" y="0"/>
      <point x="442" y="250" type="qcurve" smooth="yes"/>
    </contour>
  </outline>
</glyph>
<glyph name="uni1792" format="2">
  <advance width="1450"/>
  <unicode hex="1792"/>
  <outline>
    <contour>
      <point x="1082" y="76" type="line"/>
      <point x="1082" y="946" type="line"/>
      <point x="1032" y="946"/>
      <point x="952" y="826"/>
      <point x="952" y="765" type="qcurve" smooth="yes"/>
      <point x="952" y="700"/>
      <point x="1062" y="700" type="qcurve" smooth="yes"/>
      <point x="1092" y="700" type="line"/>
      <point x="1092" y="650" type="line"/>
      <point x="1062" y="650" type="line" smooth="yes"/>
      <point x="902" y="650"/>
      <point x="902" y="765" type="qcurve" smooth="yes"/>
      <point x="902" y="852"/>
      <point x="1022" y="1000"/>
      <point x="1086" y="1000" type="qcurve" smooth="yes"/>
      <point x="1150" y="1000"/>
      <point x="1150" y="940" type="qcurve" smooth="yes"/>
      <point x="1150" y="0" type="line"/>
      <point x="1082" y="0" type="line"/>
      <point x="725" y="316" type="line"/>
      <point x="368" y="0" type="line"/>
      <point x="300" y="0" type="line"/>
      <point x="300" y="1082" type="line"/>
      <point x="210" y="1135"/>
      <point x="210" y="1185" type="qcurve" smooth="yes"/>
      <point x="210" y="1217" type="line" smooth="yes"/>
      <point x="210" y="1268"/>
      <point x="421" y="1460"/>
      <point x="469" y="1460" type="qcurve" smooth="yes"/>
      <point x="516" y="1460"/>
      <point x="689" y="1290"/>
      <point x="717" y="1290" type="qcurve" smooth="yes"/>
      <point x="740" y="1290"/>
      <point x="893" y="1460"/>
      <point x="941" y="1460" type="qcurve" smooth="yes"/>
      <point x="989" y="1460"/>
      <point x="1123" y="1290"/>
      <point x="1160" y="1290" type="qcurve" smooth="yes"/>
      <point x="1206" y="1290"/>
      <point x="1220" y="1309" type="qcurve"/>
      <point x="1207" y="1220"/>
      <point x="1146" y="1220" type="qcurve" smooth="yes"/>
      <point x="1096" y="1220"/>
      <point x="973" y="1390"/>
      <point x="942" y="1390" type="qcurve" smooth="yes"/>
      <point x="913" y="1390"/>
      <point x="733" y="1220"/>
      <point x="702" y="1220" type="qcurve" smooth="yes"/>
      <point x="671" y="1220"/>
      <point x="503" y="1390"/>
      <point x="469" y="1390" type="qcurve" smooth="yes"/>
      <point x="439" y="1390"/>
      <point x="274" y="1257"/>
      <point x="274" y="1209" type="qcurve" smooth="yes"/>
      <point x="274" y="1160"/>
      <point x="368" y="1110" type="qcurve"/>
      <point x="368" y="76" type="line"/>
      <point x="725" y="393" type="line"/>
    </contour>
  </outline>
</glyph>
<glyph name="uni1793" format="2">
  <advance width="1450"/>
  <unicode hex="1793"/>
  <outline>
    <contour>
      <point x="368" y="593" type="line"/>
      <point x="368" y="350" type="line"/>
      <point x="490" y="350"/>
      <point x="797" y="106" type="qcurve" smooth="yes"/>
      <point x="861" y="54"/>
      <point x="923" y="54" type="qcurve" smooth="yes"/>
      <point x="1082" y="54"/>
      <point x="1082" y="250" type="qcurve" smooth="yes"/>
      <point x="1082" y="488" type="line"/>
      <point x="646" y="725" type="line" smooth="yes"/>
      <point x="300" y="913"/>
      <point x="300" y="1030" type="qcurve" smooth="yes"/>
      <point x="300" y="1180" type="line" smooth="yes"/>
      <point x="300" y="1260"/>
      <point x="550" y="1460"/>
      <point x="700" y="1460" type="qcurve" smooth="yes"/>
      <point x="750" y="1460" type="line" smooth="yes"/>
      <point x="900" y="1460"/>
      <point x="1150" y="1260"/>
      <point x="1150" y="1180" type="qcurve" smooth="yes"/>
      <point x="1150" y="950" type="line" smooth="yes"/>
      <point x="1150" y="850"/>
      <point x="1032" y="850" type="qcurve" smooth="yes"/>
      <point x="914" y="850"/>
      <point x="914" y="980" type="qcurve" smooth="yes"/>
      <point x="914" y="1085"/>
      <point x="1056" y="1085" type="qcurve" smooth="yes"/>
      <point x="1098" y="1085" type="line"/>
      <point x="1098" y="1035" type="line"/>
      <point x="1056" y="1035" type="line" smooth="yes"/>
      <point x="964" y="1035"/>
      <point x="964" y="980" type="qcurve" smooth="yes"/>
      <point x="964" y="900"/>
      <point x="1032" y="900" type="qcurve" smooth="yes"/>
      <point x="1082" y="900"/>
      <point x="1082" y="950" type="qcurve" smooth="yes"/>
      <point x="1082" y="1180" type="line" smooth="yes"/>
      <point x="1082" y="1238"/>
      <point x="873" y="1406"/>
      <point x="750" y="1406" type="qcurve" smooth="yes"/>
      <point x="700" y="1406" type="line" smooth="yes"/>
      <point x="577" y="1406"/>
      <point x="368" y="1238"/>
      <point x="368" y="1180" type="qcurve" smooth="yes"/>
      <point x="368" y="1030" type="line" smooth="yes"/>
      <point x="368" y="936"/>
      <point x="674" y="772" type="qcurve" smooth="yes"/>
      <point x="1150" y="513" type="line"/>
      <point x="1150" y="250" type="line" smooth="yes"/>
      <point x="1150" y="0"/>
      <point x="923" y="0" type="qcurve" smooth="yes"/>
      <point x="844" y="0"/>
      <point x="757" y="69" type="qcurve" smooth="yes"/>
      <point x="471" y="296"/>
      <point x="368" y="296" type="qcurve"/>
      <point x="368" y="0" type="line"/>
      <point x="300" y="0" type="line"/>
      <point x="300" y="643" type="line"/>
    </contour>
  </outline>
</glyph>
<glyph name="uni1794" format="2">
  <advance width="1475"/>
  <unicode hex="1794"/>
  <outline>
    <contour>
      <point x="1175" y="280" type="line" smooth="yes"/>
      <point x="1175" y="200"/>
      <point x="925" y="0"/>
      <point x="775" y="0" type="qcurve" smooth="yes"/>
      <point x="725" y="0" type="line" smooth="yes"/>
      <point x="575" y="0"/>
      <point x="325" y="200"/>
      <point x="325" y="280" type="qcurve" smooth="yes"/>
      <point x="325" y="1003" type="line"/>
      <point x="194" y="1080" type="line" smooth="yes"/>
      <point x="150" y="1105"/>
      <point x="150" y="1131" type="qcurve" smooth="yes"/>
      <point x="150" y="1162"/>
      <point x="173" y="1199" type="qcurve" smooth="yes"/>
      <point x="334" y="1460" type="line"/>
      <point x="474" y="1359" type="line" smooth="yes"/>
      <point x="520" y="1325"/>
      <point x="549" y="1325" type="qcurve" smooth="yes"/>
      <point x="587" y="1325"/>
      <point x="633" y="1345" type="qcurve"/>
      <point x="633" y="1310"/>
      <point x="585" y="1262"/>
      <point x="549" y="1262" type="qcurve" smooth="yes"/>
      <point x="504" y="1262"/>
      <point x="425" y="1316" type="qcurve" smooth="yes"/>
      <point x="346" y="1370" type="line"/>
      <point x="211" y="1143" type="line"/>
      <point x="393" y="1040" type="line"/>
      <point x="393" y="280" type="line" smooth="yes"/>
      <point x="393" y="222"/>
      <point x="602" y="54"/>
      <point x="725" y="54" type="qcurve" smooth="yes"/>
      <point x="775" y="54" type="line" smooth="yes"/>
      <point x="898" y="54"/>
      <point x="1107" y="222"/>
      <point x="1107" y="280" type="qcurve" smooth="yes"/>
      <point x="1107" y="991" type="line"/>
      <point x="936" y="1087" type="line" smooth="yes"/>
      <point x="892" y="1110"/>
      <point x="892" y="1131" type="qcurve" smooth="yes"/>
      <point x="892" y="1162"/>
      <point x="915" y="1199" type="qcurve" smooth="yes"/>
      <point x="1076" y="1460" type="line"/>
      <point x="1216" y="1359" type="line" smooth="yes"/>
      <point x="1262" y="1325"/>
      <point x="1291" y="1325" type="qcurve" smooth="yes"/>
      <point x="1329" y="1325"/>
      <point x="1375" y="1345" type="qcurve"/>
      <point x="1375" y="1310"/>
      <point x="1327" y="1262"/>
      <point x="1291" y="1262" type="qcurve" smooth="yes"/>
      <point x="1246" y="1262"/>
      <point x="1167" y="1316" type="qcurve" smooth="yes"/>
      <point x="1088" y="1370" type="line"/>
      <point x="959" y="1148" type="line"/>
      <point x="1175" y="1028" type="line"/>
    </contour>
  </outline>
</glyph>
<glyph name="uni1795" format="2">
  <advance width="1450"/>
  <unicode hex="1795"/>
  <outline>
    <contour>
      <point x="725" y="393" type="line"/>
      <point x="1082" y="76" type="line"/>
      <point x="1082" y="996" type="line"/>
      <point x="1032" y="996"/>
      <point x="952" y="876"/>
      <point x="952" y="815" type="qcurve" smooth="yes"/>
      <point x="952" y="750"/>
      <point x="1062" y="750" type="qcurve" smooth="yes"/>
      <point x="1092" y="750" type="line"/>
      <point x="1092" y="700" type="line"/>
      <point x="1062" y="700" type="line" smooth="yes"/>
      <point x="902" y="700"/>
      <point x="902" y="815" type="qcurve" smooth="yes"/>
      <point x="902" y="902"/>
      <point x="1022" y="1050"/>
      <point x="1086" y="1050" type="qcurve" smooth="yes"/>
      <point x="1150" y="1050"/>
      <point x="1150" y="990" type="qcurve" smooth="yes"/>
      <point x="1150" y="0" type="line"/>
      <point x="1082" y="0" type="line"/>
      <point x="725" y="316" type="line"/>
      <point x="368" y="0" type="line"/>
      <point x="300" y="0" type="line"/>
      <point x="300" y="995" type="line"/>
      <point x="170" y="1068"/>
      <point x="170" y="1127" type="qcurve" smooth="yes"/>
      <point x="170" y="1182" type="line" smooth="yes"/>
      <point x="170" y="1234"/>
      <point x="402" y="1460"/>
      <point x="434" y="1460" type="qcurve" smooth="yes"/>
      <point x="471" y="1460"/>
      <point x="770" y="1200"/>
      <point x="890" y="1200" type="qcurve" smooth="yes"/>
      <point x="1096" y="1200"/>
      <point x="1096" y="1380" type="qcurve" smooth="yes"/>
      <point x="1096" y="1592"/>
      <point x="870" y="1592" type="qcurve" smooth="yes"/>
      <point x="820" y="1592"/>
      <point x="820" y="1621" type="qcurve" smooth="yes"/>
      <point x="820" y="1650"/>
      <point x="870" y="1650" type="qcurve" smooth="yes"/>
      <point x="1150" y="1650"/>
      <point x="1150" y="1380" type="qcurve" smooth="yes"/>
      <point x="1150" y="1136"/>
      <point x="890" y="1136" type="qcurve" smooth="yes"/>
      <point x="738" y="1137"/>
      <point x="465" y="1378"/>
      <point x="427" y="1378" type="qcurve" smooth="yes"/>
      <point x="404" y="1378"/>
      <point x="240" y="1204"/>
      <point x="240" y="1158" type="qcurve" smooth="yes"/>
      <point x="240" y="1098"/>
      <point x="368" y="1030" type="qcurve"/>
      <point x="368" y="76" type="line"/>
    </contour>
  </outline>
</glyph>
<glyph name="uni1799" format="2">
  <advance width="2162"/>
  <unicode hex="1799"/>
  <outline>
    <contour>
      <point x="1880" y="280" type="line" smooth="yes"/>
      <point x="1880" y="200"/>
      <point x="1630" y="0"/>
      <point x="1465" y="0" type="qcurve" smooth="yes"/>
      <point x="1300" y="0"/>
      <point x="1055" y="200"/>
      <point x="1055" y="280" type="qcurve"/>
      <point x="1118" y="280" type="line"/>
      <point x="1118" y="222"/>
      <point x="1327" y="54"/>
      <point x="1465" y="54" type="qcurve" smooth="yes"/>
      <point x="1603" y="54"/>
      <point x="1812" y="222"/>
      <point x="1812" y="280" type="qcurve" smooth="yes"/>
      <point x="1812" y="991" type="line"/>
      <point x="1641" y="1087" type="line" smooth="yes"/>
      <point x="1597" y="1110"/>
      <point x="1597" y="1131" type="qcurve" smooth="yes"/>
      <point x="1597" y="1162"/>
      <point x="1620" y="1199" type="qcurve" smooth="yes"/>
      <point x="1781" y="1460" type="line"/>
      <point x="1921" y="1359" type="line" smooth="yes"/>
      <point x="1967" y="1325"/>
      <point x="1996" y="1325" type="qcurve" smooth="yes"/>
      <point x="2034" y="1325"/>
      <point x="2080" y="1345" type="qcurve"/>
      <point x="2080" y="1310"/>
      <point x="2032" y="1262"/>
      <point x="1996" y="1262" type="qcurve" smooth="yes"/>
      <point x="1951" y="1262"/>
      <point x="1872" y="1316" type="qcurve" smooth="yes"/>
      <point x="1793" y="1370" type="line"/>
      <point x="1664" y="1148" type="line"/>
      <point x="1880" y="1028" type="line"/>
    </contour>
    <contour>
      <point x="358" y="280" type="line" smooth="yes"/>
      <point x="358" y="222"/>
      <point x="567" y="54"/>
      <point x="705" y="54" type="qcurve" smooth="yes"/>
      <point x="843" y="54"/>
      <point x="1052" y="222"/>
      <point x="1052" y="280" type="qcurve" smooth="yes"/>
      <point x="1052" y="991" type="line"/>
      <point x="881" y="1087" type="line" smooth="yes"/>
      <point x="837" y="1110"/>
      <point x="837" y="1131" type="qcurve" smooth="yes"/>
      <point x="837" y="1162"/>
      <point x="860" y="1199" type="qcurve" smooth="yes"/>
      <point x="1021" y="1460" type="line"/>
      <point x="1161" y="1359" type="line" smooth="yes"/>
      <point x="1207" y="1325"/>
      <point x="1236" y="1325" type="qcurve" smooth="yes"/>
      <point x="1274" y="1325"/>
      <point x="1320" y="1345" type="qcurve"/>
      <point x="1320" y="1310"/>
      <point x="1272" y="1262"/>
      <point x="1236" y="1262" type="qcurve" smooth="yes"/>
      <point x="1191" y="1262"/>
      <point x="1112" y="1316" type="qcurve" smooth="yes"/>
      <point x="1033" y="1370" type="line"/>
      <point x="904" y="1148" type="line"/>
      <point x="1120" y="1028" type="line"/>
      <point x="1120" y="280" type="line" smooth="yes"/>
      <point x="1120" y="200"/>
      <point x="870" y="0"/>
      <point x="705" y="0" type="qcurve" smooth="yes"/>
      <point x="540" y="0"/>
      <point x="290" y="200"/>
      <point x="290" y="280" type="qcurve" smooth="yes"/>
      <point x="290" y="1423" type="line" smooth="yes"/>
      <point x="290" y="1460"/>
      <point x="324" y="1460" type="qcurve" smooth="yes"/>
      <point x="358" y="1460"/>
      <point x="411" y="1399" type="qcurve" smooth="yes"/>
      <point x="570" y="1218"/>
      <point x="570" y="1115" type="qcurve" smooth="yes"/>
      <point x="570" y="960"/>
      <point x="365" y="960" type="qcurve" smooth="yes"/>
      <point x="350" y="960" type="line"/>
      <point x="350" y="1019" type="line"/>
      <point x="365" y="1019" type="line" smooth="yes"/>
      <point x="508" y="1019"/>
      <point x="508" y="1115" type="qcurve" smooth="yes"/>
      <point x="508" y="1206"/>
      <point x="358" y="1366" type="qcurve"/>
    </contour>
  </outline>
</glyph>
<glyph name="uni179B" format="2">
  <advance width="2162"/>
  <unicode hex="179B"/>
  <outline>
    <contour>
      <point x="1912" y="280" type="line" smooth="yes"/>
      <point x="1912" y="200"/>
      <point x="1662" y="0"/>
      <point x="1497" y="0" type="qcurve" smooth="yes"/>
      <point x="1332" y="0"/>
      <point x="1082" y="200"/>
      <point x="1082" y="280" type="qcurve" smooth="yes"/>
      <point x="1082" y="1070" type="line" smooth="yes"/>
      <point x="1082" y="1146"/>
      <point x="779" y="1392"/>
      <point x="670" y="1392" type="qcurve" smooth="yes"/>
      <point x="610" y="1392"/>
      <point x="478" y="1292" type="qcurve" smooth="yes"/>
      <point x="257" y="1126" type="line"/>
      <point x="341" y="1071" type="line" smooth="yes"/>
      <point x="368" y="1054"/>
      <point x="368" y="1010" type="qcurve" smooth="yes"/>
      <point x="368" y="84" type="line"/>
      <point x="548" y="234"/>
      <point x="548" y="420" type="qcurve" smooth="yes"/>
      <point x="548" y="531"/>
      <point x="375" y="531" type="qcurve" smooth="yes"/>
      <point x="360" y="531" type="line"/>
      <point x="360" y="590" type="line"/>
      <point x="375" y="590" type="line" smooth="yes"/>
      <point x="613" y="590"/>
      <point x="613" y="420" type="qcurve" smooth="yes"/>
      <point x="613" y="242"/>
      <point x="432" y="63" type="qcurve" smooth="yes"/>
      <point x="368" y="0" type="line"/>
      <point x="300" y="0" type="line"/>
      <point x="300" y="1008" type="line"/>
      <point x="218" y="1066" type="line" smooth="yes"/>
      <point x="190" y="1085"/>
      <point x="190" y="1120" type="qcurve" smooth="yes"/>
      <point x="190" y="1165"/>
      <point x="290" y="1239" type="qcurve" smooth="yes"/>
      <point x="427" y="1341" type="line" smooth="yes"/>
      <point x="588" y="1460"/>
      <point x="670" y="1460" type="qcurve" smooth="yes"/>
      <point x="798" y="1460"/>
      <point x="1150" y="1185"/>
      <point x="1150" y="1070" type="qcurve" smooth="yes"/>
      <point x="1150" y="280" type="line" smooth="yes"/>
      <point x="1150" y="222"/>
      <point x="1359" y="54"/>
      <point x="1497" y="54" type="qcurve" smooth="yes"/>
      <point x="1635" y="54"/>
      <point x="1844" y="222"/>
      <point x="1844" y="280" type="qcurve" smooth="yes"/>
      <point x="1844" y="991" type="line"/>
      <point x="1673" y="1087" type="line" smooth="yes"/>
      <point x="1629" y="1110"/>
      <point x="1629" y="1131" type="qcurve" smooth="yes"/>
      <point x="1629" y="1162"/>
      <point x="1652" y="1199" type="qcurve" smooth="yes"/>
      <point x="1813" y="1460" type="line"/>
      <point x="1953" y="1359" type="line" smooth="yes"/>
      <point x="1999" y="1325"/>
      <point x="2028" y="1325" type="qcurve" smooth="yes"/>
      <point x="2066" y="1325"/>
      <point x="2112" y="1345" type="qcurve"/>
      <point x="2112" y="1310"/>
      <point x="2064" y="1262"/>
      <point x="2028" y="1262" type="qcurve" smooth="yes"/>
      <point x="1983" y="1262"/>
      <point x="1904" y="1316" type="qcurve" smooth="yes"/>
      <point x="1825" y="1370" type="line"/>
      <point x="1696" y="1148" type="line"/>
      <point x="1912" y="1028" type="line"/>
    </contour>
  </outline>
</glyph>
<glyph name="uni179F" format="2">
  <advance width="2162"/>
  <unicode hex="179F"/>
  <outline>
    <contour>
      <point x="1912" y="280" type="line" smooth="yes"/>
      <point x="1912" y="200"/>
      <point x="1662" y="0"/>
      <point x="1497" y="0" type="qcurve" smooth="yes"/>
      <point x="1332" y="0"/>
      <point x="1082" y="200"/>
      <point x="1082" y="280" type="qcurve" smooth="yes"/>
      <point x="1082" y="750" type="line" smooth="yes"/>
      <point x="1082" y="808"/>
      <point x="873" y="976"/>
      <point x="750" y="976" type="qcurve" smooth="yes"/>
      <point x="700" y="976" type="line" smooth="yes"/>
      <point x="577" y="976"/>
      <point x="368" y="808"/>
      <point x="368" y="750" type="qcurve" smooth="yes"/>
      <point x="368" y="94" type="line"/>
      <point x="518" y="254"/>
      <point x="518" y="345" type="qcurve" smooth="yes"/>
      <point x="518" y="441"/>
      <point x="375" y="441" type="qcurve" smooth="yes"/>
      <point x="360" y="441" type="line"/>
      <point x="360" y="500" type="line"/>
      <point x="375" y="500" type="line" smooth="yes"/>
      <point x="580" y="500"/>
      <point x="580" y="345" type="qcurve" smooth="yes"/>
      <point x="580" y="242"/>
      <point x="421" y="61" type="qcurve" smooth="yes"/>
      <point x="368" y="0" type="line"/>
      <point x="300" y="0" type="line"/>
      <point x="300" y="750" type="line" smooth="yes"/>
      <point x="300" y="830"/>
      <point x="550" y="1030"/>
      <point x="700" y="1030" type="qcurve" smooth="yes"/>
      <point x="750" y="1030" type="line" smooth="yes"/>
      <point x="900" y="1030"/>
      <point x="1150" y="830"/>
      <point x="1150" y="750" type="qcurve" smooth="yes"/>
      <point x="1150" y="280" type="line" smooth="yes"/>
      <point x="1150" y="222"/>
      <point x="1359" y="54"/>
      <point x="1497" y="54" type="qcurve" smooth="yes"/>
      <point x="1635" y="54"/>
      <point x="1844" y="222"/>
      <point x="1844" y="280" type="qcurve" smooth="yes"/>
      <point x="1844" y="991" type="line"/>
      <point x="1673" y="1087" type="line" smooth="yes"/>
      <point x="1629" y="1110"/>
      <point x="1629" y="1131" type="qcurve" smooth="yes"/>
      <point x="1629" y="1162"/>
      <point x="1652" y="1199" type="qcurve" smooth="yes"/>
      <point x="1813" y="1460" type="line"/>
      <point x="1953" y="1359" type="line" smooth="yes"/>
      <point x="1999" y="1325"/>
      <point x="2028" y="1325" type="qcurve" smooth="yes"/>
      <point x="2066" y="1325"/>
      <point x="2112" y="1345" type="qcurve"/>
      <point x="2112" y="1310"/>
      <point x="2064" y="1262"/>
      <point x="2028" y="1262" type="qcurve" smooth="yes"/>
      <point x="1983" y="1262"/>
      <point x="1904" y="1316" type="qcurve" smooth="yes"/>
      <point x="1825" y="1370" type="line"/>
      <point x="1696" y="1148" type="line"/>
      <point x="1912" y="1028" type="line"/>
    </contour>
    <contour>
      <point x="554" y="991" type="line"/>
      <point x="383" y="1087" type="line" smooth="yes"/>
      <point x="339" y="1110"/>
      <point x="339" y="1147" type="qcurve" smooth="yes"/>
      <point x="339" y="1168"/>
      <point x="362" y="1199" type="qcurve" smooth="yes"/>
      <point x="553" y="1460" type="line"/>
      <point x="693" y="1359" type="line" smooth="yes"/>
      <point x="739" y="1325"/>
      <point x="788" y="1325" type="qcurve" smooth="yes"/>
      <point x="836" y="1325"/>
      <point x="882" y="1345" type="qcurve"/>
      <point x="882" y="1310"/>
      <point x="834" y="1262"/>
      <point x="788" y="1262" type="qcurve" smooth="yes"/>
      <point x="723" y="1262"/>
      <point x="644" y="1316" type="qcurve" smooth="yes"/>
      <point x="565" y="1370" type="line"/>
      <point x="406" y="1148" type="line"/>
      <point x="658" y="1008" type="line"/>
    </contour>
  </outline>
</glyph>
<glyph name="uni17A0" format="2">
  <advance width="2137"/>
  <unicode hex="17A0"/>
  <outline>
    <contour>
      <point x="1877" y="0" type="line"/>
      <point x="1809" y="0" type="line"/>
      <point x="1809" y="1100" type="line" smooth="yes"/>
      <point x="1809" y="1176"/>
      <point x="1496" y="1392"/>
      <point x="1417" y="1392" type="qcurve" smooth="yes"/>
      <point x="1357" y="1392"/>
      <point x="1196" y="1259" type="qcurve" smooth="yes"/>
      <point x="1034" y="1126" type="line"/>
      <point x="1118" y="1071" type="line" smooth="yes"/>
      <point x="1145" y="1054"/>
      <point x="1145" y="1010" type="qcurve" smooth="yes"/>
      <point x="1145" y="280" type="line" smooth="yes"/>
      <point x="1145" y="200"/>
      <point x="895" y="0"/>
      <point x="735" y="0" type="qcurve" smooth="yes"/>
      <point x="575" y="0"/>
      <point x="325" y="200"/>
      <point x="325" y="280" type="qcurve" smooth="yes"/>
      <point x="325" y="1003" type="line"/>
      <point x="194" y="1080" type="line" smooth="yes"/>
      <point x="150" y="1105"/>
      <point x="150" y="1131" type="qcurve" smooth="yes"/>
      <point x="150" y="1162"/>
      <point x="173" y="1199" type="qcurve" smooth="yes"/>
      <point x="334" y="1460" type="line"/>
      <point x="474" y="1359" type="line" smooth="yes"/>
      <point x="520" y="1325"/>
      <point x="549" y="1325" type="qcurve" smooth="yes"/>
      <point x="587" y="1325"/>
      <point x="633" y="1345" type="qcurve"/>
      <point x="633" y="1310"/>
      <point x="585" y="1262"/>
      <point x="549" y="1262" type="qcurve" smooth="yes"/>
      <point x="504" y="1262"/>
      <point x="425" y="1316" type="qcurve" smooth="yes"/>
      <point x="346" y="1370" type="line"/>
      <point x="211" y="1143" type="line"/>
      <point x="393" y="1040" type="line"/>
      <point x="393" y="280" type="line" smooth="yes"/>
      <point x="393" y="222"/>
      <point x="602" y="54"/>
      <point x="735" y="54" type="qcurve" smooth="yes"/>
      <point x="868" y="54"/>
      <point x="1077" y="222"/>
      <point x="1077" y="280" type="qcurve" smooth="yes"/>
      <point x="1077" y="1008" type="line"/>
      <point x="995" y="1066" type="line" smooth="yes"/>
      <point x="967" y="1085"/>
      <point x="967" y="1120" type="qcurve" smooth="yes"/>
      <point x="967" y="1165"/>
      <point x="1059" y="1239" type="qcurve" smooth="yes"/>
      <point x="1151" y="1313" type="line" smooth="yes"/>
      <point x="1335" y="1460"/>
      <point x="1417" y="1460" type="qcurve" smooth="yes"/>
      <point x="1515" y="1460"/>
      <point x="1877" y="1215"/>
      <point x="1877" y="1100" type="qcurve" smooth="yes"/>
    </contour>
  </outline>
</glyph>
<glyph name="uni17A1" format="2">
  <advance width="2162"/>
  <unicode hex="17A1"/>
  <outline>
    <contour>
      <point x="442" y="250" type="qcurve" smooth="yes"/>
      <point x="442" y="450" type="line"/>
      <point x="510" y="450" type="line"/>
      <point x="510" y="250" type="line" smooth="yes"/>
      <point x="510" y="64"/>
      <point x="700" y="64" type="qcurve" smooth="yes"/>
      <point x="890" y="64"/>
      <point x="890" y="301" type="qcurve" smooth="yes"/>
      <point x="890" y="651" type="line" smooth="yes"/>
      <point x="890" y="801"/>
      <point x="1032" y="801" type="qcurve" smooth="yes"/>
      <point x="1150" y="801"/>
      <point x="1150" y="692" type="qcurve" smooth="yes"/>
      <point x="1150" y="571"/>
      <point x="1026" y="571" type="qcurve" smooth="yes"/>
      <point x="726" y="571" type="line" smooth="yes"/>
      <point x="300" y="571"/>
      <point x="300" y="945" type="qcurve" smooth="yes"/>
      <point x="300" y="1180" type="line" smooth="yes"/>
      <point x="300" y="1260"/>
      <point x="550" y="1460"/>
      <point x="700" y="1460" type="qcurve" smooth="yes"/>
      <point x="750" y="1460" type="line" smooth="yes"/>
      <point x="900" y="1460"/>
      <point x="1150" y="1260"/>
      <point x="1150" y="1180" type="qcurve" smooth="yes"/>
      <point x="1150" y="1030" type="line" smooth="yes"/>
      <point x="1150" y="930"/>
      <point x="1032" y="930" type="qcurve" smooth="yes"/>
      <point x="914" y="930"/>
      <point x="914" y="1060" type="qcurve" smooth="yes"/>
      <point x="914" y="1165"/>
      <point x="1056" y="1165" type="qcurve" smooth="yes"/>
      <point x="1098" y="1165" type="line"/>
      <point x="1098" y="1115" type="line"/>
      <point x="1056" y="1115" type="line" smooth="yes"/>
      <point x="964" y="1115"/>
      <point x="964" y="1060" type="qcurve" smooth="yes"/>
      <point x="964" y="980"/>
      <point x="1032" y="980" type="qcurve" smooth="yes"/>
      <point x="1082" y="980"/>
      <point x="1082" y="1030" type="qcurve" smooth="yes"/>
      <point x="1082" y="1180" type="line" smooth="yes"/>
      <point x="1082" y="1238"/>
      <point x="873" y="1406"/>
      <point x="750" y="1406" type="qcurve" smooth="yes"/>
      <point x="700" y="1406" type="line" smooth="yes"/>
      <point x="577" y="1406"/>
      <point x="368" y="1238"/>
      <point x="368" y="1180" type="qcurve" smooth="yes"/>
      <point x="368" y="945" type="line" smooth="yes"/>
      <point x="368" y="631"/>
      <point x="726" y="631" type="qcurve" smooth="yes"/>
      <point x="1026" y="633" type="line" smooth="yes"/>
      <point x="1090" y="634"/>
      <point x="1090" y="691" type="qcurve" smooth="yes"/>
      <point x="1090" y="750"/>
      <point x="1032" y="750" type="qcurve" smooth="yes"/>
      <point x="958" y="750"/>
      <point x="958" y="651" type="qcurve" smooth="yes"/>
      <point x="958" y="302" type="line" smooth="yes"/>
      <point x="958" y="0"/>
      <point x="700" y="0" type="qcurve" smooth="yes"/>
      <point x="442" y="0"/>
    </contour>
    <contour>
      <point x="1880" y="-580" type="line"/>
      <point x="1812" y="-580" type="line"/>
      <point x="1480" y="-286" type="line"/>
      <point x="1148" y="-580" type="line"/>
      <point x="1080" y="-580" type="line"/>
      <point x="1080" y="-154" type="line"/>
      <point x="1068" y="-154"/>
      <point x="1030" y="-224"/>
      <point x="1030" y="-245" type="qcurve" smooth="yes"/>
      <point x="1030" y="-280"/>
      <point x="1080" y="-280" type="qcurve" smooth="yes"/>
      <point x="1090" y="-280" type="line"/>
      <point x="1090" y="-340" type="line"/>
      <point x="1080" y="-340" type="line" smooth="yes"/>
      <point x="970" y="-340"/>
      <point x="970" y="-245" type="qcurve" smooth="yes"/>
      <point x="970" y="-208"/>
      <point x="1050" y="-80"/>
      <point x="1099" y="-80" type="qcurve" smooth="yes"/>
      <point x="1148" y="-80"/>
      <point x="1148" y="-140" type="qcurve" smooth="yes"/>
      <point x="1148" y="-504" type="line"/>
      <point x="1480" y="-209" type="line"/>
      <point x="1812" y="-504" type="line"/>
      <point x="1812" y="991" type="line"/>
      <point x="1641" y="1087" type="line" smooth="yes"/>
      <point x="1597" y="1110"/>
      <point x="1597" y="1131" type="qcurve" smooth="yes"/>
      <point x="1597" y="1162"/>
      <point x="1620" y="1199" type="qcurve" smooth="yes"/>
      <point x="1781" y="1460" type="line"/>
      <point x="1921" y="1359" type="line" smooth="yes"/>
      <point x="1967" y="1325"/>
      <point x="1996" y="1325" type="qcurve" smooth="yes"/>
      <point x="2034" y="1325"/>
      <point x="2080" y="1345" type="qcurve"/>
      <point x="2080" y="1310"/>
      <point x="2032" y="1262"/>
      <point x="1996" y="1262" type="qcurve" smooth="yes"/>
      <point x="1951" y="1262"/>
      <point x="1872" y="1316" type="qcurve" smooth="yes"/>
      <point x="1793" y="1370" type="line"/>
      <point x="1664" y="1148" type="line"/>
      <point x="1880" y="1028" type="line"/>
    </contour>
  </outline>
</glyph>
<glyph name="uni17A3" format="2">
  <advance width="1475"/>
  <unicode hex="17A3"/>
  <outline>
    <contour>
      <point x="348" y="441" type="line"/>
      <point x="333" y="441" type="line" smooth="yes"/>
      <point x="190" y="441"/>
      <point x="190" y="345" type="qcurve" smooth="yes"/>
      <point x="190" y="254"/>
      <point x="340" y="94" type="qcurve"/>
      <point x="340" y="991" type="line"/>
      <point x="169" y="1087" type="line" smooth="yes"/>
      <point x="125" y="1110"/>
      <point x="125" y="1131" type="qcurve" smooth="yes"/>
      <point x="125" y="1162"/>
      <point x="148" y="1199" type="qcurve" smooth="yes"/>
      <point x="309" y="1460" type="line"/>
      <point x="449" y="1359" type="line" smooth="yes"/>
      <point x="495" y="1325"/>
      <point x="524" y="1325" type="qcurve" smooth="yes"/>
      <point x="562" y="1325"/>
      <point x="608" y="1345" type="qcurve"/>
      <point x="608" y="1310"/>
      <point x="560" y="1262"/>
      <point x="524" y="1262" type="qcurve" smooth="yes"/>
      <point x="479" y="1262"/>
      <point x="400" y="1316" type="qcurve" smooth="yes"/>
      <point x="321" y="1370" type="line"/>
      <point x="192" y="1148" type="line"/>
      <point x="408" y="1028" type="line"/>
      <point x="408" y="0" type="line"/>
      <point x="340" y="0" type="line"/>
      <point x="287" y="61" type="line" smooth="yes"/>
      <point x="128" y="242"/>
      <point x="128" y="345" type="qcurve" smooth="yes"/>
      <point x="128" y="500"/>
      <point x="333" y="500" type="qcurve" smooth="yes"/>
      <point x="348" y="500" type="line"/>
    </contour>
    <contour>
      <point x="1107" y="991" type="line"/>
      <point x="936" y="1087" type="line" smooth="yes"/>
      <point x="892" y="1110"/>
      <point x="892" y="1131" type="qcurve" smooth="yes"/>
      <point x="892" y="1162"/>
      <point x="915" y="1199" type="qcurve" smooth="yes"/>
      <point x="1076" y="1460" type="line"/>
      <point x="1216" y="1359" type="line" smooth="yes"/>
      <point x="1262" y="1325"/>
      <point x="1291" y="1325" type="qcurve" smooth="yes"/>
      <point x="1329" y="1325"/>
      <point x="1375" y="1345" type="qcurve"/>
      <point x="1375" y="1310"/>
      <point x="1327" y="1262"/>
      <point x="1291" y="1262" type="qcurve" smooth="yes"/>
      <point x="1246" y="1262"/>
      <point x="1167" y="1316" type="qcurve" smooth="yes"/>
      <point x="1088" y="1370" type="line"/>
      <point x="959" y="1148" type="line"/>
      <point x="1175" y="1028" type="line"/>
      <point x="1175" y="0" type="line"/>
      <point x="1107" y="0" type="line"/>
      <point x="1054" y="61" type="line" smooth="yes"/>
      <point x="895" y="242"/>
      <point x="895" y="345" type="qcurve" smooth="yes"/>
      <point x="895" y="500"/>
      <point x="1100" y="500" type="qcurve" smooth="yes"/>
      <point x="1115" y="500" type="line"/>
      <point x="1115" y="441" type="line"/>
      <point x="1100" y="441" type="line" smooth="yes"/>
      <point x="957" y="441"/>
      <point x="957" y="345" type="qcurve" smooth="yes"/>
      <point x="957" y="254"/>
      <point x="1107" y="94" type="qcurve"/>
    </contour>
    <contour>
      <point x="393" y="673" type="line"/>
      <point x="393" y="727" type="line"/>
      <point x="1117" y="727" type="line"/>
      <point x="1117" y="673" type="line"/>
    </contour>
  </outline>
</glyph>
<glyph name="uni17A5" format="2">
  <advance width="1450"/>
  <unicode hex="17A5"/>
  <outline>
    <contour>
      <point x="1150" y="0" type="line"/>
      <point x="1082" y="0" type="line"/>
      <point x="1082" y="750" type="line" smooth="yes"/>
      <point x="1082" y="808"/>
      <point x="873" y="976"/>
      <point x="750" y="976" type="qcurve" smooth="yes"/>
      <point x="700" y="976" type="line" smooth="yes"/>
      <point x="577" y="976"/>
      <point x="368" y="808"/>
      <point x="368" y="750" type="qcurve" smooth="yes"/>
      <point x="368" y="94" type="line"/>
      <point x="518" y="254"/>
      <point x="518" y="345" type="qcurve" smooth="yes"/>
      <point x="518" y="441"/>
      <point x="375" y="441" type="qcurve" smooth="yes"/>
      <point x="360" y="441" type="line"/>
      <point x="360" y="500" type="line"/>
      <point x="375" y="500" type="line" smooth="yes"/>
      <point x="580" y="500"/>
      <point x="580" y="345" type="qcurve" smooth="yes"/>
      <point x="580" y="242"/>
      <point x="421" y="61" type="qcurve" smooth="yes"/>
      <point x="368" y="0" type="line"/>
      <point x="300" y="0" type="line"/>
      <point x="300" y="750" type="line" smooth="yes"/>
      <point x="300" y="830"/>
      <point x="550" y="1030"/>
      <point x="700" y="1030" type="qcurve" smooth="yes"/>
      <point x="750" y="1030" type="line" smooth="yes"/>
      <point x="900" y="1030"/>
      <point x="1150" y="830"/>
      <point x="1150" y="750" type="qcurve" smooth="yes"/>
    </contour>
    <contour>
      <point x="300" y="995" type="line"/>
      <point x="170" y="1068"/>
      <point x="170" y="1127" type="qcurve" smooth="yes"/>
      <point x="170" y="1182" type="line" smooth="yes"/>
      <point x="170" y="1234"/>
      <point x="402" y="1460"/>
      <point x="434" y="1460" type="qcurve" smooth="yes"/>
      <point x="471" y="1460"/>
      <point x="770" y="1200"/>
      <point x="890" y="1200" type="qcurve" smooth="yes"/>
      <point x="1096" y="1200"/>
      <point x="1096" y="1380" type="qcurve" smooth="yes"/>
      <point x="1096" y="1592"/>
      <point x="870" y="1592" type="qcurve" smooth="yes"/>
      <point x="820" y="1592"/>
      <point x="820" y="1621" type="qcurve" smooth="yes"/>
      <point x="820" y="1650"/>
      <point x="870" y="1650" type="qcurve" smooth="yes"/>
      <point x="1150" y="1650"/>
      <point x="1150" y="1380" type="qcurve" smooth="yes"/>
      <point x="1150" y="1136"/>
      <point x="890" y="1136" type="qcurve" smooth="yes"/>
      <point x="738" y="1137"/>
      <point x="465" y="1378"/>
      <point x="427" y="1378" type="qcurve" smooth="yes"/>
      <point x="404" y="1378"/>
      <point x="240" y="1204"/>
      <point x="240" y="1158" type="qcurve" smooth="yes"/>
      <point x="240" y="1098"/>
      <point x="368" y="1030" type="qcurve"/>
    </contour>
  </outline>
</glyph>
<glyph name="uni17A6" format="2">
  <advance width="2137"/>
  <unicode hex="17A6"/>
  <outline>
    <contour>
      <point x="1082" y="0" type="line"/>
      <point x="1082" y="1170" type="line" smooth="yes"/>
      <point x="1082" y="1228"/>
      <point x="873" y="1396"/>
      <point x="750" y="1396" type="qcurve" smooth="yes"/>
      <point x="700" y="1396" type="line" smooth="yes"/>
      <point x="577" y="1396"/>
      <point x="368" y="1228"/>
      <point x="368" y="1170" type="qcurve" smooth="yes"/>
      <point x="368" y="84" type="line"/>
      <point x="548" y="234"/>
      <point x="548" y="420" type="qcurve" smooth="yes"/>
      <point x="548" y="531"/>
      <point x="375" y="531" type="qcurve" smooth="yes"/>
      <point x="360" y="531" type="line"/>
      <point x="360" y="590" type="line"/>
      <point x="375" y="590" type="line" smooth="yes"/>
      <point x="613" y="590"/>
      <point x="613" y="420" type="qcurve" smooth="yes"/>
      <point x="613" y="242"/>
      <point x="432" y="63" type="qcurve" smooth="yes"/>
      <point x="368" y="0" type="line"/>
      <point x="300" y="0" type="line"/>
      <point x="300" y="1170" type="line" smooth="yes"/>
      <point x="300" y="1250"/>
      <point x="550" y="1450"/>
      <point x="700" y="1450" type="qcurve" smooth="yes"/>
      <point x="750" y="1450" type="line" smooth="yes"/>
      <point x="900" y="1450"/>
      <point x="1150" y="1250"/>
      <point x="1150" y="1170" type="qcurve" smooth="yes"/>
      <point x="1150" y="0" type="line"/>
    </contour>
    <contour>
      <point x="1880" y="-405" type="line" smooth="yes"/>
      <point x="1880" y="-600"/>
      <point x="1461" y="-600" type="qcurve" smooth="yes"/>
      <point x="1041" y="-600"/>
      <point x="1041" y="-405" type="qcurve" smooth="yes"/>
      <point x="1041" y="-318" type="line" smooth="yes"/>
      <point x="1041" y="-122"/>
      <point x="726" y="-122" type="qcurve" smooth="yes"/>
      <point x="409" y="-122"/>
      <point x="409" y="-318" type="qcurve" smooth="yes"/>
      <point x="409" y="-480" type="line" smooth="yes"/>
      <point x="409" y="-548"/>
      <point x="478" y="-548" type="qcurve" smooth="yes"/>
      <point x="546" y="-548"/>
      <point x="546" y="-480" type="qcurve" smooth="yes"/>
      <point x="546" y="-412"/>
      <point x="470" y="-412" type="qcurve" smooth="yes"/>
      <point x="393" y="-412" type="line"/>
      <point x="393" y="-360" type="line"/>
      <point x="468" y="-360" type="line" smooth="yes"/>
      <point x="605" y="-360"/>
      <point x="605" y="-480" type="qcurve" smooth="yes"/>
      <point x="605" y="-600"/>
      <point x="478" y="-600" type="qcurve" smooth="yes"/>
      <point x="350" y="-600"/>
      <point x="350" y="-480" type="qcurve" smooth="yes"/>
      <point x="350" y="-318" type="line" smooth="yes"/>
      <point x="350" y="-70"/>
      <point x="726" y="-70" type="qcurve" smooth="yes"/>
      <point x="1100" y="-70"/>
      <point x="1100" y="-318" type="qcurve" smooth="yes"/>
      <point x="1100" y="-405" type="line" smooth="yes"/>
      <point x="1100" y="-540"/>
      <point x="1456" y="-540" type="qcurve" smooth="yes"/>
      <point x="1812" y="-540"/>
      <point x="1812" y="-405" type="qcurve" smooth="yes"/>
      <point x="1812" y="991" type="line"/>
      <point x="1641" y="1087" type="line" smooth="yes"/>
      <point x="1597" y="1110"/>
      <point x="1597" y="1131" type="qcurve" smooth="yes"/>
      <point x="1597" y="1162"/>
      <point x="1620" y="1199" type="qcurve"/>
      <point x="1756" y="1460" type="line"/>
      <point x="1888" y="1325"/>
      <point x="1935" y="1325" type="qcurve" smooth="yes"/>
      <point x="1982" y="1325"/>
      <point x="1982" y="1440" type="qcurve" smooth="yes"/>
      <point x="1982" y="1572"/>
      <point x="1775" y="1602"/>
      <point x="1775" y="1631" type="qcurve" smooth="yes"/>
      <point x="1775" y="1660"/>
      <point x="1818" y="1660" type="qcurve" smooth="yes"/>
      <point x="2040" y="1660"/>
      <point x="2040" y="1440" type="qcurve" smooth="yes"/>
      <point x="2040" y="1262"/>
      <point x="1935" y="1262" type="qcurve" smooth="yes"/>
      <point x="1880" y="1262"/>
      <point x="1768" y="1359" type="qcurve"/>
      <point x="1664" y="1148" type="line"/>
      <point x="1880" y="1028" type="line"/>
    </contour>
  </outline>
</glyph>
<glyph name="uni17A8" format="2">
  <advance width="1450"/>
  <unicode hex="17A8"/>
  <outline>
    <contour>
      <point x="1150" y="50" type="line" smooth="yes"/>
      <point x="1150" y="-100"/>
      <point x="1016" y="-100" type="qcurve" smooth="yes"/>
      <point x="942" y="-100"/>
      <point x="942" y="-68" type="qcurve"/>
      <point x="1082" y="-56"/>
      <point x="1082" y="50" type="qcurve" smooth="yes"/>
      <point x="1082" y="296" type="line"/>
      <point x="979" y="296"/>
      <point x="693" y="69" type="qcurve" smooth="yes"/>
      <point x="606" y="0"/>
      <point x="527" y="0" type="qcurve" smooth="yes"/>
      <point x="300" y="0"/>
      <point x="300" y="250" type="qcurve" smooth="yes"/>
      <point x="300" y="513" type="line"/>
      <point x="776" y="772" type="line" smooth="yes"/>
      <point x="1082" y="936"/>
      <point x="1082" y="1030" type="qcurve" smooth="yes"/>
      <point x="1082" y="1180" type="line" smooth="yes"/>
      <point x="1082" y="1238"/>
      <point x="873" y="1406"/>
      <point x="750" y="1406" type="qcurve" smooth="yes"/>
      <point x="700" y="1406" type="line" smooth="yes"/>
      <point x="577" y="1406"/>
      <point x="368" y="1238"/>
      <point x="368" y="1180" type="qcurve" smooth="yes"/>
      <point x="368" y="950" type="line" smooth="yes"/>
      <point x="368" y="900"/>
      <point x="418" y="900" type="qcurve" smooth="yes"/>
      <point x="486" y="900"/>
      <point x="486" y="980" type="qcurve" smooth="yes"/>
      <point x="486" y="1035"/>
      <point x="394" y="1035" type="qcurve" smooth="yes"/>
      <point x="352" y="1035" type="line"/>
      <point x="352" y="1085" type="line"/>
      <point x="394" y="1085" type="line" smooth="yes"/>
      <point x="536" y="1085"/>
      <point x="536" y="980" type="qcurve" smooth="yes"/>
      <point x="536" y="850"/>
      <point x="418" y="850" type="qcurve" smooth="yes"/>
      <point x="300" y="850"/>
      <point x="300" y="950" type="qcurve" smooth="yes"/>
      <point x="300" y="1180" type="line" smooth="yes"/>
      <point x="300" y="1260"/>
      <point x="550" y="1460"/>
      <point x="700" y="1460" type="qcurve" smooth="yes"/>
      <point x="750" y="1460" type="line" smooth="yes"/>
      <point x="900" y="1460"/>
      <point x="1150" y="1260"/>
      <point x="1150" y="1180" type="qcurve" smooth="yes"/>
      <point x="1150" y="1030" type="line" smooth="yes"/>
      <point x="1150" y="913"/>
      <point x="804" y="725" type="qcurve" smooth="yes"/>
      <point x="368" y="488" type="line"/>
      <point x="368" y="250" type="line" smooth="yes"/>
      <point x="368" y="54"/>
      <point x="527" y="54" type="qcurve" smooth="yes"/>
      <point x="589" y="54"/>
      <point x="653" y="106" type="qcurve" smooth="yes"/>
      <point x="960" y="350"/>
      <point x="1082" y="350" type="qcurve"/>
      <point x="1082" y="593" type="line"/>
      <point x="1150" y="643" type="line"/>
    </contour>
    <contour>
      <point x="393" y="1464" type="line"/>
      <point x="240" y="1502"/>
      <point x="240" y="1565" type="qcurve" smooth="yes"/>
      <point x="240" y="1597" type="line" smooth="yes"/>
      <point x="240" y="1648"/>
      <point x="441" y="1840"/>
      <point x="489" y="1840" type="qcurve" smooth="yes"/>
      <point x="536" y="1840"/>
      <point x="699" y="1670"/>
      <point x="727" y="1670" type="qcurve" smooth="yes"/>
      <point x="750" y="1670"/>
      <point x="893" y="1840"/>
      <point x="941" y="1840" type="qcurve" smooth="yes"/>
      <point x="989" y="1840"/>
      <point x="1123" y="1670"/>
      <point x="1160" y="1670" type="qcurve" smooth="yes"/>
      <point x="1206" y="1670"/>
      <point x="1220" y="1689" type="qcurve"/>
      <point x="1207" y="1600"/>
      <point x="1146" y="1600" type="qcurve" smooth="yes"/>
      <point x="1096" y="1600"/>
      <point x="973" y="1770"/>
      <point x="942" y="1770" type="qcurve" smooth="yes"/>
      <point x="913" y="1770"/>
      <point x="743" y="1600"/>
      <point x="712" y="1600" type="qcurve" smooth="yes"/>
      <point x="681" y="1600"/>
      <point x="523" y="1770"/>
      <point x="489" y="1770" type="qcurve" smooth="yes"/>
      <point x="459" y="1770"/>
      <point x="304" y="1637"/>
      <point x="304" y="1589" type="qcurve" smooth="yes"/>
      <point x="304" y="1540"/>
      <point x="466" y="1505" type="qcurve"/>
    </contour>
  </outline>
</glyph>
<glyph name="uni17AA" format="2">
  <advance width="1450"/>
  <unicode hex="17AA"/>
  <outline>
    <contour>
      <point x="1150" y="643" type="line"/>
      <point x="1150" y="50" type="line" smooth="yes"/>
      <point x="1150" y="-100"/>
      <point x="1016" y="-100" type="qcurve" smooth="yes"/>
      <point x="942" y="-100"/>
      <point x="942" y="-68" type="qcurve"/>
      <point x="1082" y="-56"/>
      <point x="1082" y="50" type="qcurve" smooth="yes"/>
      <point x="1082" y="296" type="line"/>
      <point x="979" y="296"/>
      <point x="693" y="69" type="qcurve" smooth="yes"/>
      <point x="606" y="0"/>
      <point x="527" y="0" type="qcurve" smooth="yes"/>
      <point x="300" y="0"/>
      <point x="300" y="250" type="qcurve" smooth="yes"/>
      <point x="300" y="513" type="line"/>
      <point x="776" y="772" type="line" smooth="yes"/>
      <point x="1082" y="936"/>
      <point x="1082" y="1030" type="qcurve" smooth="yes"/>
      <point x="1082" y="1180" type="line" smooth="yes"/>
      <point x="1082" y="1238"/>
      <point x="873" y="1406"/>
      <point x="750" y="1406" type="qcurve" smooth="yes"/>
      <point x="700" y="1406" type="line" smooth="yes"/>
      <point x="577" y="1406"/>
      <point x="368" y="1238"/>
      <point x="368" y="1180" type="qcurve" smooth="yes"/>
      <point x="368" y="950" type="line" smooth="yes"/>
      <point x="368" y="900"/>
      <point x="418" y="900" type="qcurve" smooth="yes"/>
      <point x="486" y="900"/>
      <point x="486" y="980" type="qcurve" smooth="yes"/>
      <point x="486" y="1035"/>
      <point x="394" y="1035" type="qcurve" smooth="yes"/>
      <point x="352" y="1035" type="line"/>
      <point x="352" y="1085" type="line"/>
      <point x="394" y="1085" type="line" smooth="yes"/>
      <point x="536" y="1085"/>
      <point x="536" y="980" type="qcurve" smooth="yes"/>
      <point x="536" y="850"/>
      <point x="418" y="850" type="qcurve" smooth="yes"/>
      <point x="300" y="850"/>
      <point x="300" y="950" type="qcurve" smooth="yes"/>
      <point x="300" y="1180" type="line" smooth="yes"/>
      <point x="300" y="1260"/>
      <point x="550" y="1460"/>
      <point x="700" y="1460" type="qcurve" smooth="yes"/>
      <point x="750" y="1460" type="line" smooth="yes"/>
      <point x="900" y="1460"/>
      <point x="1150" y="1260"/>
      <point x="1150" y="1180" type="qcurve" smooth="yes"/>
      <point x="1150" y="1030" type="line" smooth="yes"/>
      <point x="1150" y="913"/>
      <point x="804" y="725" type="qcurve" smooth="yes"/>
      <point x="368" y="488" type="line"/>
      <point x="368" y="250" type="line" smooth="yes"/>
      <point x="368" y="54"/>
      <point x="527" y="54" type="qcurve" smooth="yes"/>
      <point x="589" y="54"/>
      <point x="653" y="106" type="qcurve" smooth="yes"/>
      <point x="960" y="350"/>
      <point x="1082" y="350" type="qcurve"/>
      <point x="1082" y="593" type="line"/>
    </contour>
    <contour>
      <point x="300" y="1435" type="line"/>
      <point x="170" y="1508"/>
      <point x="170" y="1567" type="qcurve" smooth="yes"/>
      <point x="170" y="1622" type="line" smooth="yes"/>
      <point x="170" y="1674"/>
      <point x="402" y="1900"/>
      <point x="434" y="1900" type="qcurve" smooth="yes"/>
      <point x="471" y="1900"/>
      <point x="770" y="1640"/>
      <point x="890" y="1640" type="qcurve" smooth="yes"/>
      <point x="1096" y="1640"/>
      <point x="1096" y="1820" type="qcurve" smooth="yes"/>
      <point x="1096" y="2032"/>
      <point x="870" y="2032" type="qcurve" smooth="yes"/>
      <point x="820" y="2032"/>
      <point x="820" y="2061" type="qcurve" smooth="yes"/>
      <point x="820" y="2090"/>
      <point x="870" y="2090" type="qcurve" smooth="yes"/>
      <point x="1150" y="2090"/>
      <point x="1150" y="1820" type="qcurve" smooth="yes"/>
      <point x="1150" y="1576"/>
      <point x="890" y="1576" type="qcurve" smooth="yes"/>
      <point x="738" y="1577"/>
      <point x="465" y="1818"/>
      <point x="427" y="1818" type="qcurve" smooth="yes"/>
      <point x="404" y="1818"/>
      <point x="240" y="1644"/>
      <point x="240" y="1598" type="qcurve" smooth="yes"/>
      <point x="240" y="1538"/>
      <point x="368" y="1470" type="qcurve"/>
    </contour>
  </outline>
</glyph>
<glyph name="uni17AF" format="2">
  <advance width="1450"/>
  <unicode hex="17AF"/>
  <outline>
    <contour>
      <point x="1082" y="76" type="line"/>
      <point x="1082" y="1120" type="line" smooth="yes"/>
      <point x="1082" y="1176"/>
      <point x="808" y="1402"/>
      <point x="741" y="1402" type="qcurve" smooth="yes"/>
      <point x="643" y="1402"/>
      <point x="368" y="1126" type="qcurve"/>
      <point x="300" y="1126"/>
      <point x="300" y="1266" type="qcurve" smooth="yes"/>
      <point x="300" y="1332"/>
      <point x="350" y="1458"/>
      <point x="350" y="1526" type="qcurve" smooth="yes"/>
      <point x="350" y="1614"/>
      <point x="250" y="1614" type="qcurve"/>
      <point x="250" y="1650"/>
      <point x="310" y="1650" type="qcurve" smooth="yes"/>
      <point x="410" y="1650"/>
      <point x="410" y="1526" type="qcurve" smooth="yes"/>
      <point x="410" y="1444"/>
      <point x="360" y="1336"/>
      <point x="360" y="1266" type="qcurve" smooth="yes"/>
      <point x="360" y="1201"/>
      <point x="364" y="1182" type="qcurve"/>
      <point x="382" y="1210"/>
      <point x="665" y="1460"/>
      <point x="741" y="1460" type="qcurve" smooth="yes"/>
      <point x="829" y="1460"/>
      <point x="1150" y="1195"/>
      <point x="1150" y="1120" type="qcurve" smooth="yes"/>
      <point x="1150" y="0" type="line"/>
      <point x="1082" y="0" type="line"/>
      <point x="725" y="316" type="line"/>
      <point x="368" y="0" type="line"/>
      <point x="300" y="0" type="line"/>
      <point x="300" y="896" type="line"/>
      <point x="278" y="896"/>
      <point x="230" y="826"/>
      <point x="230" y="785" type="qcurve" smooth="yes"/>
      <point x="230" y="720"/>
      <point x="300" y="720" type="qcurve" smooth="yes"/>
      <point x="310" y="720" type="line"/>
      <point x="310" y="660" type="line"/>
      <point x="300" y="660" type="line" smooth="yes"/>
      <point x="170" y="660"/>
      <point x="170" y="785" type="qcurve" smooth="yes"/>
      <point x="170" y="842"/>
      <point x="270" y="970"/>
      <point x="319" y="970" type="qcurve" smooth="yes"/>
      <point x="368" y="970"/>
      <point x="368" y="870" type="qcurve" smooth="yes"/>
      <point x="368" y="76" type="line"/>
      <point x="725" y="393" type="line"/>
    </contour>
  </outline>
</glyph>
<glyph name="uni17B0" format="2">
  <advance width="1450"/>
  <unicode hex="17B0"/>
  <outline>
    <contour>
      <point x="1150" y="-267" type="line" smooth="yes"/>
      <point x="1150" y="-480"/>
      <point x="973" y="-480" type="qcurve" smooth="yes"/>
      <point x="890" y="-480"/>
      <point x="803" y="-408" type="qcurve"/>
      <point x="775" y="-600"/>
      <point x="586" y="-600" type="qcurve" smooth="yes"/>
      <point x="380" y="-600"/>
      <point x="380" y="-366" type="qcurve" smooth="yes"/>
      <point x="380" y="-261"/>
      <point x="469" y="-241" type="qcurve" smooth="yes"/>
      <point x="1107" y="-99" type="line"/>
      <point x="1107" y="-159" type="line"/>
      <point x="478" y="-299" type="line" smooth="yes"/>
      <point x="439" y="-308"/>
      <point x="439" y="-362" type="qcurve" smooth="yes"/>
      <point x="439" y="-540"/>
      <point x="589" y="-540" type="qcurve" smooth="yes"/>
      <point x="742" y="-540"/>
      <point x="742" y="-369" type="qcurve" smooth="yes"/>
      <point x="742" y="-210" type="line"/>
      <point x="771" y="-210" type="line"/>
      <point x="803" y="-415"/>
      <point x="973" y="-415" type="qcurve" smooth="yes"/>
      <point x="1082" y="-415"/>
      <point x="1082" y="-267" type="qcurve" smooth="yes"/>
      <point x="1082" y="1180" type="line" smooth="yes"/>
      <point x="1082" y="1260"/>
      <point x="923" y="1390"/>
      <point x="892" y="1390" type="qcurve" smooth="yes"/>
      <point x="863" y="1390"/>
      <point x="693" y="1230"/>
      <point x="662" y="1230" type="qcurve" smooth="yes"/>
      <point x="631" y="1230"/>
      <point x="483" y="1390"/>
      <point x="449" y="1390" type="qcurve" smooth="yes"/>
      <point x="419" y="1390"/>
      <point x="274" y="1257"/>
      <point x="274" y="1209" type="qcurve" smooth="yes"/>
      <point x="274" y="1160"/>
      <point x="368" y="1110" type="qcurve"/>
      <point x="368" y="84" type="line"/>
      <point x="568" y="274"/>
      <point x="568" y="415" type="qcurve" smooth="yes"/>
      <point x="568" y="531"/>
      <point x="375" y="531" type="qcurve" smooth="yes"/>
      <point x="360" y="531" type="line"/>
      <point x="360" y="590" type="line"/>
      <point x="375" y="590" type="line" smooth="yes"/>
      <point x="630" y="590"/>
      <point x="630" y="415" type="qcurve" smooth="yes"/>
      <point x="630" y="242"/>
      <point x="401" y="30" type="qcurve" smooth="yes"/>
      <point x="368" y="0" type="line"/>
      <point x="300" y="0" type="line"/>
      <point x="300" y="1082" type="line"/>
      <point x="210" y="1135"/>
      <point x="210" y="1185" type="qcurve" smooth="yes"/>
      <point x="210" y="1217" type="line" smooth="yes"/>
      <point x="210" y="1268"/>
      <point x="401" y="1460"/>
      <point x="449" y="1460" type="qcurve" smooth="yes"/>
      <point x="496" y="1460"/>
      <point x="649" y="1300"/>
      <point x="677" y="1300" type="qcurve" smooth="yes"/>
      <point x="700" y="1300"/>
      <point x="843" y="1460"/>
      <point x="891" y="1460" type="qcurve" smooth="yes"/>
      <point x="939" y="1460"/>
      <point x="1150" y="1290"/>
      <point x="1150" y="1180" type="qcurve" smooth="yes"/>
    </contour>
  </outline>
</glyph>
<glyph name="uni17B2" format="2">
  <advance width="1450"/>
  <unicode hex="17B2"/>
  <outline>
    <contour>
      <point x="662" y="450" type="line"/>
      <point x="905" y="640" type="line" smooth="yes"/>
      <point x="1077" y="781"/>
      <point x="1077" y="870" type="qcurve" smooth="yes"/>
      <point x="1077" y="990"/>
      <point x="930" y="990" type="qcurve" smooth="yes"/>
      <point x="765" y="990"/>
      <point x="765" y="870" type="qcurve" smooth="yes"/>
      <point x="765" y="788"/>
      <point x="823" y="788" type="qcurve" smooth="yes"/>
      <point x="852" y="788"/>
      <point x="895" y="808" type="qcurve"/>
      <point x="885" y="740"/>
      <point x="812" y="740" type="qcurve" smooth="yes"/>
      <point x="705" y="740"/>
      <point x="705" y="870" type="qcurve" smooth="yes"/>
      <point x="705" y="1050"/>
      <point x="930" y="1050" type="qcurve" smooth="yes"/>
      <point x="1145" y="1050"/>
      <point x="1145" y="870" type="qcurve" smooth="yes"/>
      <point x="1145" y="750"/>
      <point x="979" y="622" type="qcurve" smooth="yes"/>
      <point x="702" y="405" type="line"/>
    </contour>
    <contour>
      <point x="1077" y="390" type="line" smooth="yes"/>
      <point x="1077" y="577"/>
      <point x="903" y="577" type="qcurve"/>
      <point x="903" y="622" type="line"/>
      <point x="1145" y="622"/>
      <point x="1145" y="390" type="qcurve" smooth="yes"/>
      <point x="1145" y="280" type="line" smooth="yes"/>
      <point x="1145" y="200"/>
      <point x="895" y="0"/>
      <point x="745" y="0" type="qcurve" smooth="yes"/>
      <point x="695" y="0" type="line" smooth="yes"/>
      <point x="545" y="0"/>
      <point x="295" y="200"/>
      <point x="295" y="280" type="qcurve" smooth="yes"/>
      <point x="295" y="1170" type="line" smooth="yes"/>
      <point x="295" y="1250"/>
      <point x="545" y="1450"/>
      <point x="695" y="1450" type="qcurve" smooth="yes"/>
      <point x="745" y="1450" type="line" smooth="yes"/>
      <point x="895" y="1450"/>
      <point x="1145" y="1250"/>
      <point x="1145" y="1170" type="qcurve"/>
      <point x="1077" y="1170" type="line"/>
      <point x="1077" y="1228"/>
      <point x="868" y="1396"/>
      <point x="745" y="1396" type="qcurve" smooth="yes"/>
      <point x="695" y="1396" type="line" smooth="yes"/>
      <point x="572" y="1396"/>
      <point x="363" y="1228"/>
      <point x="363" y="1170" type="qcurve" smooth="yes"/>
      <point x="363" y="280" type="line" smooth="yes"/>
      <point x="363" y="222"/>
      <point x="572" y="54"/>
      <point x="695" y="54" type="qcurve" smooth="yes"/>
      <point x="745" y="54" type="line" smooth="yes"/>
      <point x="868" y="54"/>
      <point x="1077" y="222"/>
      <point x="1077" y="280" type="qcurve" smooth="yes"/>
    </contour>
  </outline>
</glyph>
<glyph name="uni17B6" format="2">
  <advance width="688"/>
  <unicode hex="17B6"/>
  <outline>
    <contour>
      <point x="300" y="0" type="line"/>
      <point x="300" y="1158" type="line" smooth="yes"/>
      <point x="300" y="1226"/>
      <point x="103" y="1400"/>
      <point x="11" y="1400" type="qcurve" smooth="yes"/>
      <point x="-96" y="1400"/>
      <point x="-366" y="1128" type="qcurve"/>
      <point x="-366" y="1206"/>
      <point x="-94" y="1460"/>
      <point x="11" y="1460" type="qcurve" smooth="yes"/>
      <point x="120" y="1460"/>
      <point x="368" y="1253"/>
      <point x="368" y="1158" type="qcurve" smooth="yes"/>
      <point x="368" y="0" type="line"/>
    </contour>
  </outline>
</glyph>
<glyph name="uni17B8" format="2">
  <unicode hex="17B8"/>
  <outline>
    <contour>
      <point x="-310" y="1730" type="line"/>
      <point x="-370" y="1730" type="line"/>
      <point x="-370" y="2110" type="line"/>
      <point x="-310" y="2110" type="line"/>
    </contour>
    <contour>
      <point x="-354" y="1792" type="qcurve" smooth="yes"/>
      <point x="-310" y="1751" type="line"/>
      <point x="-310" y="1700" type="line"/>
      <point x="-870" y="1700" type="line" smooth="yes"/>
      <point x="-1080" y="1700"/>
      <point x="-1080" y="1880" type="qcurve" smooth="yes"/>
      <point x="-1080" y="2080"/>
      <point x="-850" y="2080" type="qcurve" smooth="yes"/>
      <point x="-662" y="2080"/>
    </contour>
    <contour>
      <point x="-410" y="1760" type="line"/>
      <point x="-679" y="2020"/>
      <point x="-850" y="2020" type="qcurve" smooth="yes"/>
      <point x="-1020" y="2020"/>
      <point x="-1020" y="1880" type="qcurve" smooth="yes"/>
      <point x="-1020" y="1760"/>
      <point x="-870" y="1760" type="qcurve" smooth="yes"/>
    </contour>
  </outline>
</glyph>
<glyph name="uni17B9" format="2">
  <unicode hex="17B9"/>
  <outline>
    <contour>
      <point x="-305" y="1970" type="qcurve" smooth="yes"/>
      <point x="-305" y="1820"/>
      <point x="-470" y="1820" type="qcurve"/>
      <point x="-470" y="1880" type="line"/>
      <point x="-365" y="1880"/>
      <point x="-365" y="1970" type="qcurve" smooth="yes"/>
      <point x="-365" y="2070"/>
      <point x="-470" y="2070" type="qcurve" smooth="yes"/>
      <point x="-575" y="2070"/>
      <point x="-575" y="1960" type="qcurve"/>
      <point x="-635" y="1960" type="line"/>
      <point x="-635" y="2130"/>
      <point x="-470" y="2130" type="qcurve" smooth="yes"/>
      <point x="-305" y="2130"/>
    </contour>
    <contour>
      <point x="-354" y="1792" type="qcurve" smooth="yes"/>
      <point x="-310" y="1751" type="line"/>
      <point x="-310" y="1700" type="line"/>
      <point x="-870" y="1700" type="line" smooth="yes"/>
      <point x="-1080" y="1700"/>
      <point x="-1080" y="1880" type="qcurve" smooth="yes"/>
      <point x="-1080" y="2080"/>
      <point x="-850" y="2080" type="qcurve" smooth="yes"/>
      <point x="-662" y="2080"/>
    </contour>
    <contour>
      <point x="-410" y="1760" type="line"/>
      <point x="-679" y="2020"/>
      <point x="-850" y="2020" type="qcurve" smooth="yes"/>
      <point x="-1020" y="2020"/>
      <point x="-1020" y="1880" type="qcurve" smooth="yes"/>
      <point x="-1020" y="1760"/>
      <point x="-870" y="1760" type="qcurve" smooth="yes"/>
    </contour>
  </outline>
</glyph>
<glyph name="uni17BB" format="2">
  <unicode hex="17BB"/>
  <outline>
    <contour>
      <point x="-370" y="-600" type="line"/>
      <point x="-370" y="-220" type="line"/>
      <point x="-450" y="-220"/>
      <point x="-450" y="-160" type="qcurve" smooth="yes"/>
      <point x="-450" y="-100"/>
      <point x="-380" y="-100" type="qcurve" smooth="yes"/>
      <point x="-310" y="-100"/>
      <point x="-310" y="-180" type="qcurve" smooth="yes"/>
      <point x="-310" y="-600" type="line"/>
    </contour>
  </outline>
</glyph>
<glyph name="uni17BC" format="2">
  <unicode hex="17BC"/>
  <outline>
    <contour>
      <point x="-778" y="-505" type="qcurve" smooth="yes"/>
      <point x="-778" y="-471"/>
      <point x="-757" y="-423" type="qcurve" smooth="yes"/>
      <point x="-659" y="-191" type="line"/>
      <point x="-714" y="-191"/>
      <point x="-714" y="-145" type="qcurve" smooth="yes"/>
      <point x="-714" y="-100"/>
      <point x="-633" y="-100" type="qcurve" smooth="yes"/>
      <point x="-577" y="-100"/>
      <point x="-577" y="-139" type="qcurve" smooth="yes"/>
      <point x="-577" y="-155"/>
      <point x="-587" y="-179" type="qcurve" smooth="yes"/>
      <point x="-701" y="-445" type="line" smooth="yes"/>
      <point x="-713" y="-472"/>
      <point x="-713" y="-505" type="qcurve" smooth="yes"/>
      <point x="-713" y="-545"/>
      <point x="-626" y="-545" type="qcurve" smooth="yes"/>
      <point x="-507" y="-545"/>
      <point x="-321" y="-100"/>
      <point x="-307" y="-100" type="qcurve" smooth="yes"/>
      <point x="-292" y="-100"/>
      <point x="-292" y="-135" type="qcurve" smooth="yes"/>
      <point x="-292" y="-169"/>
      <point x="-469" y="-600"/>
      <point x="-626" y="-600" type="qcurve" smooth="yes"/>
      <point x="-778" y="-600"/>
    </contour>
  </outline>
</glyph>
<glyph name="uni17BD" format="2">
  <unicode hex="17BD"/>
  <outline>
    <contour>
      <point x="-649" y="-172" type="qcurve" smooth="yes"/>
      <point x="-649" y="-209"/>
      <point x="-849" y="-445"/>
      <point x="-849" y="-481" type="qcurve" smooth="yes"/>
      <point x="-849" y="-545"/>
      <point x="-792" y="-545" type="qcurve" smooth="yes"/>
      <point x="-720" y="-545"/>
      <point x="-605" y="-385" type="qcurve"/>
      <point x="-578" y="-385" type="line"/>
      <point x="-498" y="-545"/>
      <point x="-462" y="-545" type="qcurve" smooth="yes"/>
      <point x="-421" y="-545"/>
      <point x="-325" y="-100" type="qcurve"/>
      <point x="-294" y="-100"/>
      <point x="-294" y="-165" type="qcurve" smooth="yes"/>
      <point x="-294" y="-231"/>
      <point x="-373" y="-600"/>
      <point x="-462" y="-600" type="qcurve" smooth="yes"/>
      <point x="-545" y="-600"/>
      <point x="-600" y="-466" type="qcurve"/>
      <point x="-727" y="-600"/>
      <point x="-792" y="-600" type="qcurve" smooth="yes"/>
      <point x="-909" y="-600"/>
      <point x="-909" y="-483" type="qcurve" smooth="yes"/>
      <point x="-909" y="-426"/>
      <point x="-710" y="-206"/>
      <point x="-710" y="-172" type="qcurve" smooth="yes"/>
      <point x="-710" y="-155"/>
      <point x="-739" y="-155" type="qcurve" smooth="yes"/>
      <point x="-786" y="-155"/>
      <point x="-809" y="-182" type="qcurve"/>
      <point x="-809" y="-100"/>
      <point x="-739" y="-100" type="qcurve" smooth="yes"/>
      <point x="-649" y="-100"/>
    </contour>
  </outline>
</glyph>
<glyph name="uni17BE" format="2">
  <unicode hex="17BE"/>
  <outline>
    <contour>
      <point x="-260" y="1730" type="line"/>
      <point x="-320" y="1730" type="line"/>
      <point x="-320" y="2110" type="line"/>
      <point x="-260" y="2110" type="line"/>
    </contour>
    <contour>
      <point x="-304" y="1792" type="qcurve" smooth="yes"/>
      <point x="-260" y="1751" type="line"/>
      <point x="-260" y="1700" type="line"/>
      <point x="-820" y="1700" type="line" smooth="yes"/>
      <point x="-1030" y="1700"/>
      <point x="-1030" y="1880" type="qcurve" smooth="yes"/>
      <point x="-1030" y="2080"/>
      <point x="-800" y="2080" type="qcurve" smooth="yes"/>
      <point x="-612" y="2080"/>
    </contour>
    <contour>
      <point x="-360" y="1760" type="line"/>
      <point x="-629" y="2020"/>
      <point x="-800" y="2020" type="qcurve" smooth="yes"/>
      <point x="-970" y="2020"/>
      <point x="-970" y="1880" type="qcurve" smooth="yes"/>
      <point x="-970" y="1760"/>
      <point x="-820" y="1760" type="qcurve" smooth="yes"/>
    </contour>
  </outline>
</glyph>
<glyph name="uni17BF" format="2">
  <advance width="688"/>
  <unicode hex="17BF"/>
  <outline>
    <contour>
      <point x="50" y="2230" type="line"/>
      <point x="50" y="2010" type="line"/>
      <point x="-10" y="2010" type="line"/>
      <point x="-10" y="2230" type="line"/>
    </contour>
    <contour>
      <point x="300" y="2210" type="line"/>
      <point x="300" y="1830" type="line"/>
      <point x="240" y="1830" type="line"/>
      <point x="240" y="2210" type="line"/>
    </contour>
    <contour>
      <point x="250" y="1800" type="line"/>
      <point x="-310" y="1800" type="line" smooth="yes"/>
      <point x="-520" y="1800"/>
      <point x="-520" y="1980" type="qcurve" smooth="yes"/>
      <point x="-520" y="2180"/>
      <point x="-290" y="2180" type="qcurve" smooth="yes"/>
      <point x="-102" y="2179"/>
      <point x="206" y="1892" type="qcurve" smooth="yes"/>
      <point x="250" y="1851" type="line"/>
    </contour>
    <contour>
      <point x="150" y="1860" type="line"/>
      <point x="-119" y="2120"/>
      <point x="-290" y="2120" type="qcurve" smooth="yes"/>
      <point x="-460" y="2120"/>
      <point x="-460" y="1980" type="qcurve" smooth="yes"/>
      <point x="-460" y="1860"/>
      <point x="-310" y="1860" type="qcurve" smooth="yes"/>
    </contour>
    <contour>
      <point x="-302" y="-150" type="line"/>
      <point x="-302" y="-400" type="line" smooth="yes"/>
      <point x="-302" y="-590"/>
      <point x="0" y="-590" type="qcurve" smooth="yes"/>
      <point x="302" y="-590"/>
      <point x="302" y="-400" type="qcurve" smooth="yes"/>
      <point x="302" y="1570" type="line" smooth="yes"/>
      <point x="302" y="1800"/>
      <point x="46" y="1800" type="qcurve"/>
      <point x="46" y="1860" type="line"/>
      <point x="370" y="1860"/>
      <point x="370" y="1570" type="qcurve" smooth="yes"/>
      <point x="370" y="-400" type="line" smooth="yes"/>
      <point x="370" y="-650"/>
      <point x="0" y="-650" type="qcurve" smooth="yes"/>
      <point x="-370" y="-650"/>
      <point x="-370" y="-400" type="qcurve" smooth="yes"/>
      <point x="-370" y="-150" type="line"/>
    </contour>
  </outline>
</glyph>
<glyph name="uni17C2" format="2">
  <advance width="713"/>
  <unicode hex="17C2"/>
  <outline>
    <contour>
      <point x="340" y="991" type="line"/>
      <point x="169" y="1087" type="line" smooth="yes"/>
      <point x="125" y="1110"/>
      <point x="125" y="1131" type="qcurve" smooth="yes"/>
      <point x="125" y="1162"/>
      <point x="148" y="1199" type="qcurve" smooth="yes"/>
      <point x="309" y="1460" type="line"/>
      <point x="449" y="1359" type="line" smooth="yes"/>
      <point x="495" y="1325"/>
      <point x="524" y="1325" type="qcurve" smooth="yes"/>
      <point x="562" y="1325"/>
      <point x="608" y="1345" type="qcurve"/>
      <point x="608" y="1310"/>
      <point x="560" y="1262"/>
      <point x="524" y="1262" type="qcurve" smooth="yes"/>
      <point x="479" y="1262"/>
      <point x="400" y="1316" type="qcurve" smooth="yes"/>
      <point x="321" y="1370" type="line"/>
      <point x="192" y="1148" type="line"/>
      <point x="408" y="1028" type="line"/>
      <point x="408" y="94" type="line"/>
      <point x="558" y="254"/>
      <point x="558" y="345" type="qcurve" smooth="yes"/>
      <point x="558" y="441"/>
      <point x="415" y="441" type="qcurve" smooth="yes"/>
      <point x="400" y="441" type="line"/>
      <point x="400" y="500" type="line"/>
      <point x="415" y="500" type="line" smooth="yes"/>
      <point x="620" y="500"/>
      <point x="620" y="345" type="qcurve" smooth="yes"/>
      <point x="620" y="242"/>
      <point x="461" y="61" type="qcurve" smooth="yes"/>
      <point x="408" y="0" type="line"/>
      <point x="340" y="0" type="line"/>
    </contour>
    <contour>
      <point x="260" y="1856" type="line"/>
      <point x="170" y="1856"/>
      <point x="170" y="1794" type="qcurve" smooth="yes"/>
      <point x="170" y="1720"/>
      <point x="340" y="1720" type="qcurve" smooth="yes"/>
      <point x="550" y="1720"/>
      <point x="550" y="1915" type="qcurve" smooth="yes"/>
      <point x="550" y="2120"/>
      <point x="270" y="2120" type="qcurve"/>
      <point x="270" y="2170"/>
      <point x="340" y="2170" type="qcurve" smooth="yes"/>
      <point x="610" y="2170"/>
      <point x="610" y="1915" type="qcurve" smooth="yes"/>
      <point x="610" y="1660"/>
      <point x="340" y="1660" type="qcurve" smooth="yes"/>
      <point x="110" y="1660"/>
      <point x="110" y="1794" type="qcurve" smooth="yes"/>
      <point x="110" y="1907"/>
      <point x="230" y="1907" type="qcurve" smooth="yes"/>
      <point x="260" y="1907" type="line"/>
    </contour>
  </outline>
</glyph>
<glyph name="uni17C4" format="2">
  <advance width="688"/>
  <unicode hex="17C4"/>
  <outline>
    <contour>
      <point x="-240" y="1328" type="qcurve" smooth="yes"/>
      <point x="-240" y="1346"/>
      <point x="-78" y="1460"/>
      <point x="-7" y="1460" type="qcurve" smooth="yes"/>
      <point x="77" y="1460"/>
      <point x="178" y="1353" type="qcurve" smooth="yes"/>
      <point x="320" y="1204" type="line" smooth="yes"/>
      <point x="368" y="1154"/>
      <point x="368" y="1128" type="qcurve" smooth="yes"/>
      <point x="368" y="0" type="line"/>
      <point x="300" y="0" type="line"/>
      <point x="300" y="1128" type="line"/>
      <point x="57" y="1406"/>
      <point x="-11" y="1406" type="qcurve" smooth="yes"/>
      <point x="-48" y="1406"/>
      <point x="-221" y="1283" type="qcurve"/>
      <point x="-240" y="1300"/>
    </contour>
  </outline>
</glyph>
<glyph name="uni17C5" format="2">
  <advance width="688"/>
  <unicode hex="17C5"/>
  <outline>
    <contour>
      <point x="-240" y="1328" type="qcurve" smooth="yes"/>
      <point x="-240" y="1346"/>
      <point x="-78" y="1460"/>
      <point x="-7" y="1460" type="qcurve" smooth="yes"/>
      <point x="77" y="1460"/>
      <point x="178" y="1353" type="qcurve" smooth="yes"/>
      <point x="320" y="1204" type="line" smooth="yes"/>
      <point x="368" y="1154"/>
      <point x="368" y="1128" type="qcurve" smooth="yes"/>
      <point x="368" y="0" type="line"/>
      <point x="300" y="0" type="line"/>
      <point x="300" y="1128" type="line"/>
      <point x="57" y="1406"/>
      <point x="-11" y="1406" type="qcurve" smooth="yes"/>
      <point x="-48" y="1406"/>
      <point x="-221" y="1283" type="qcurve"/>
      <point x="-240" y="1300"/>
    </contour>
    <contour>
      <point x="340" y="1118" type="line"/>
      <point x="340" y="1644" type="line" smooth="yes"/>
      <point x="340" y="1757"/>
      <point x="230" y="1757" type="qcurve"/>
      <point x="230" y="1797"/>
      <point x="285" y="1797" type="qcurve" smooth="yes"/>
      <point x="400" y="1797"/>
      <point x="400" y="1644" type="qcurve" smooth="yes"/>
      <point x="400" y="1284" type="line" smooth="yes"/>
      <point x="400" y="1196"/>
      <point x="335" y="1064" type="qcurve"/>
    </contour>
  </outline>
</glyph>
<glyph name="uni17C6" format="2">
  <unicode hex="17C6"/>
  <outline>
    <contour>
      <point x="-870" y="2035" type="qcurve" smooth="yes"/>
      <point x="-870" y="1880"/>
      <point x="-715" y="1880" type="qcurve" smooth="yes"/>
      <point x="-560" y="1880"/>
      <point x="-560" y="2035" type="qcurve" smooth="yes"/>
      <point x="-560" y="2190"/>
      <point x="-715" y="2190" type="qcurve" smooth="yes"/>
      <point x="-870" y="2190"/>
    </contour>
    <contour>
      <point x="-500" y="2035" type="qcurve" smooth="yes"/>
      <point x="-500" y="1820"/>
      <point x="-715" y="1820" type="qcurve" smooth="yes"/>
      <point x="-930" y="1820"/>
      <point x="-930" y="2035" type="qcurve" smooth="yes"/>
      <point x="-930" y="2250"/>
      <point x="-715" y="2250" type="qcurve" smooth="yes"/>
      <point x="-500" y="2250"/>
    </contour>
  </outline>
</glyph>
<glyph name="uni17C7" format="2">
  <advance width="845"/>
  <unicode hex="17C7"/>
  <outline>
    <contour>
      <point x="210" y="215" type="qcurve" smooth="yes"/>
      <point x="210" y="60"/>
      <point x="365" y="60" type="qcurve" smooth="yes"/>
      <point x="520" y="60"/>
      <point x="520" y="215" type="qcurve" smooth="yes"/>
      <point x="520" y="370"/>
      <point x="365" y="370" type="qcurve" smooth="yes"/>
      <point x="210" y="370"/>
    </contour>
    <contour>
      <point x="580" y="215" type="qcurve" smooth="yes"/>
      <point x="580" y="0"/>
      <point x="365" y="0" type="qcurve" smooth="yes"/>
      <point x="150" y="0"/>
      <point x="150" y="215" type="qcurve" smooth="yes"/>
      <point x="150" y="430"/>
      <point x="365" y="430" type="qcurve" smooth="yes"/>
      <point x="580" y="430"/>
    </contour>
    <contour>
      <point x="210" y="1185" type="qcurve" smooth="yes"/>
      <point x="210" y="1030"/>
      <point x="365" y="1030" type="qcurve" smooth="yes"/>
      <point x="520" y="1030"/>
      <point x="520" y="1185" type="qcurve" smooth="yes"/>
      <point x="520" y="1340"/>
      <point x="365" y="1340" type="qcurve" smooth="yes"/>
      <point x="210" y="1340"/>
    </contour>
    <contour>
      <point x="580" y="1185" type="qcurve" smooth="yes"/>
      <point x="580" y="970"/>
      <point x="365" y="970" type="qcurve" smooth="yes"/>
      <point x="150" y="970"/>
      <point x="150" y="1185" type="qcurve" smooth="yes"/>
      <point x="150" y="1400"/>
      <point x="365" y="1400" type="qcurve" smooth="yes"/>
      <point x="580" y="1400"/>
    </contour>
  </outline>
</glyph>
<glyph name="uni17C8" format="2">
  <advance width="450"/>
  <unicode hex="17C8"/>
  <outline>
    <contour>
      <point x="250" y="180" type="qcurve" smooth="yes"/>
      <point x="250" y="167"/>
      <point x="237" y="144"/>
      <point x="213" y="130"/>
      <point x="200" y="130" type="qcurve" smooth="yes"/>
      <point x="187" y="130"/>
      <point x="163" y="144"/>
      <point x="150" y="167"/>
      <point x="150" y="180" type="qcurve" smooth="yes"/>
      <point x="150" y="193"/>
      <point x="163" y="217"/>
      <point x="187" y="230"/>
      <point x="200" y="230" type="qcurve" smooth="yes"/>
      <point x="213" y="230"/>
      <point x="237" y="217"/>
      <point x="250" y="193"/>
    </contour>
    <contour>
      <point x="250" y="1280" type="qcurve" smooth="yes"/>
      <point x="250" y="1267"/>
      <point x="237" y="1244"/>
      <point x="213" y="1230"/>
      <point x="200" y="1230" type="qcurve" smooth="yes"/>
      <point x="187" y="1230"/>
      <point x="163" y="1244"/>
      <point x="150" y="1267"/>
      <point x="150" y="1280" type="qcurve" smooth="yes"/>
      <point x="150" y="1293"/>
      <point x="163" y="1317"/>
      <point x="187" y="1330"/>
      <point x="200" y="1330" type="qcurve" smooth="yes"/>
      <point x="213" y="1330"/>
      <point x="237" y="1317"/>
      <point x="250" y="1293"/>
    </contour>
  </outline>
</glyph>
<glyph name="uni17C9" format="2">
  <unicode hex="17C9"/>
  <outline>
    <contour>
      <point x="-812" y="2183" type="line"/>
      <point x="-812" y="1843" type="line" smooth="yes"/>
      <point x="-812" y="1763"/>
      <point x="-842" y="1743" type="qcurve"/>
      <point x="-872" y="1763"/>
      <point x="-872" y="1843" type="qcurve" smooth="yes"/>
      <point x="-872" y="2183" type="line"/>
    </contour>
    <contour>
      <point x="-427" y="2183" type="line"/>
      <point x="-427" y="1843" type="line" smooth="yes"/>
      <point x="-427" y="1763"/>
      <point x="-457" y="1743" type="qcurve"/>
      <point x="-487" y="1763"/>
      <point x="-487" y="1843" type="qcurve" smooth="yes"/>
      <point x="-487" y="2183" type="line"/>
    </contour>
  </outline>
</glyph>
<glyph name="uni17CA" format="2">
  <unicode hex="17CA"/>
  <outline>
    <contour>
      <point x="-703" y="1560" type="qcurve" smooth="yes"/>
      <point x="-680" y="1560"/>
      <point x="-537" y="1700"/>
      <point x="-489" y="1700" type="qcurve" smooth="yes"/>
      <point x="-441" y="1700"/>
      <point x="-307" y="1550"/>
      <point x="-270" y="1550" type="qcurve" smooth="yes"/>
      <point x="-224" y="1550"/>
      <point x="-210" y="1569" type="qcurve"/>
      <point x="-223" y="1500"/>
      <point x="-284" y="1500" type="qcurve" smooth="yes"/>
      <point x="-334" y="1500"/>
      <point x="-457" y="1630"/>
      <point x="-488" y="1630" type="qcurve" smooth="yes"/>
      <point x="-517" y="1630"/>
      <point x="-687" y="1500"/>
      <point x="-718" y="1500" type="qcurve" smooth="yes"/>
      <point x="-749" y="1500"/>
      <point x="-907" y="1640"/>
      <point x="-941" y="1640" type="qcurve" smooth="yes"/>
      <point x="-971" y="1640"/>
      <point x="-1112" y="1567"/>
      <point x="-1112" y="1539" type="qcurve" smooth="yes"/>
      <point x="-1112" y="1510"/>
      <point x="-964" y="1485" type="qcurve"/>
      <point x="-1047" y="1454" type="line"/>
      <point x="-1170" y="1472"/>
      <point x="-1170" y="1537" type="qcurve" smooth="yes"/>
      <point x="-1170" y="1598"/>
      <point x="-989" y="1700"/>
      <point x="-941" y="1700" type="qcurve" smooth="yes"/>
      <point x="-894" y="1700"/>
      <point x="-731" y="1560"/>
    </contour>
  </outline>
</glyph>
<glyph name="uni17CB" format="2">
  <unicode hex="17CB"/>
  <outline>
    <contour>
      <point x="-680" y="2160" type="line"/>
      <point x="-680" y="1810" type="line" smooth="yes"/>
      <point x="-680" y="1730"/>
      <point x="-710" y="1710" type="qcurve"/>
      <point x="-740" y="1730"/>
      <point x="-740" y="1810" type="qcurve" smooth="yes"/>
      <point x="-740" y="2160" type="line"/>
    </contour>
  </outline>
</glyph>
<glyph name="uni17CC" format="2">
  <unicode hex="17CC"/>
  <outline>
    <contour>
      <point x="-492" y="1741" type="line"/>
      <point x="-603" y="1881"/>
      <point x="-722" y="1881" type="qcurve" smooth="yes"/>
      <point x="-803" y="1881"/>
      <point x="-875" y="1844" type="qcurve"/>
      <point x="-870" y="1906" type="line"/>
      <point x="-788" y="1941"/>
      <point x="-722" y="1941" type="qcurve"/>
      <point x="-556" y="1922"/>
      <point x="-423" y="1757" type="qcurve"/>
    </contour>
    <contour>
      <point x="-605" y="2251" type="line"/>
      <point x="-605" y="2150"/>
      <point x="-804" y="1845"/>
      <point x="-920" y="1779" type="qcurve"/>
      <point x="-1027" y="1779" type="line"/>
      <point x="-845" y="1884"/>
      <point x="-665" y="2174"/>
      <point x="-665" y="2251" type="qcurve"/>
    </contour>
  </outline>
</glyph>
<glyph name="uni17CD" format="2">
  <unicode hex="17CD"/>
  <outline>
    <contour>
      <point x="-992" y="1875" type="qcurve" smooth="yes"/>
      <point x="-992" y="2050"/>
      <point x="-803" y="2050" type="qcurve" smooth="yes"/>
      <point x="-740" y="2050"/>
      <point x="-614" y="1990"/>
      <point x="-531" y="1990" type="qcurve" smooth="yes"/>
      <point x="-350" y="1990"/>
      <point x="-310" y="2190" type="qcurve"/>
      <point x="-270" y="2190"/>
      <point x="-270" y="2145" type="qcurve"/>
      <point x="-320" y="1940"/>
      <point x="-531" y="1940" type="qcurve" smooth="yes"/>
      <point x="-614" y="1940"/>
      <point x="-740" y="2000"/>
      <point x="-803" y="2000" type="qcurve" smooth="yes"/>
      <point x="-942" y="2000"/>
      <point x="-942" y="1875" type="qcurve" smooth="yes"/>
      <point x="-942" y="1750"/>
      <point x="-814" y="1750" type="qcurve" smooth="yes"/>
      <point x="-707" y="1750"/>
      <point x="-707" y="1820" type="qcurve"/>
      <point x="-657" y="1820" type="line"/>
      <point x="-657" y="1700"/>
      <point x="-814" y="1700" type="qcurve" smooth="yes"/>
      <point x="-992" y="1700"/>
    </contour>
  </outline>
</glyph>
<glyph name="uni17CE" format="2">
  <unicode hex="17CE"/>
  <outline>
    <contour>
      <point x="-617" y="2170" type="line"/>
      <point x="-617" y="1991" type="line"/>
      <point x="-437" y="1991" type="line"/>
      <point x="-437" y="1930" type="line"/>
      <point x="-617" y="1930" type="line"/>
      <point x="-617" y="1751" type="line"/>
      <point x="-677" y="1751" type="line"/>
      <point x="-677" y="1930" type="line"/>
      <point x="-857" y="1930" type="line"/>
      <point x="-857" y="1991" type="line"/>
      <point x="-677" y="1991" type="line"/>
      <point x="-677" y="2170" type="line"/>
    </contour>
  </outline>
</glyph>
<glyph name="uni17CF" format="2">
  <unicode hex="17CF"/>
  <outline>
    <contour>
      <point x="-560" y="1700" type="qcurve" smooth="yes"/>
      <point x="-655" y="1700"/>
      <point x="-725" y="1785" type="qcurve"/>
      <point x="-795" y="1700"/>
      <point x="-880" y="1700" type="qcurve" smooth="yes"/>
      <point x="-1065" y="1700"/>
      <point x="-1065" y="1889" type="qcurve" smooth="yes"/>
      <point x="-1065" y="2110"/>
      <point x="-685" y="2110" type="qcurve"/>
      <point x="-612" y="2290"/>
      <point x="-406" y="2290" type="qcurve"/>
      <point x="-406" y="2230" type="line"/>
      <point x="-580" y="2230"/>
      <point x="-643" y="2050" type="qcurve"/>
      <point x="-705" y="2050" type="line" smooth="yes"/>
      <point x="-1005" y="2050"/>
      <point x="-1005" y="1889" type="qcurve" smooth="yes"/>
      <point x="-1005" y="1760"/>
      <point x="-875" y="1760" type="qcurve" smooth="yes"/>
      <point x="-805" y="1760"/>
      <point x="-725" y="1880" type="qcurve"/>
      <point x="-655" y="1760"/>
      <point x="-565" y="1760" type="qcurve" smooth="yes"/>
      <point x="-445" y="1760"/>
      <point x="-445" y="1837" type="qcurve" smooth="yes"/>
      <point x="-445" y="1929"/>
      <point x="-575" y="1929" type="qcurve"/>
      <point x="-575" y="1974"/>
      <point x="-505" y="1974" type="qcurve" smooth="yes"/>
      <point x="-385" y="1974"/>
      <point x="-385" y="1837" type="qcurve" smooth="yes"/>
      <point x="-385" y="1700"/>
    </contour>
  </outline>
</glyph>
<glyph name="uni17D0" format="2">
  <unicode hex="17D0"/>
  <outline>
    <contour>
      <point x="-1040" y="1870" type="qcurve" smooth="yes"/>
      <point x="-1040" y="2010"/>
      <point x="-935" y="2010" type="qcurve" smooth="yes"/>
      <point x="-830" y="2010"/>
      <point x="-830" y="1900" type="qcurve"/>
      <point x="-890" y="1900" type="line"/>
      <point x="-890" y="1950"/>
      <point x="-935" y="1950" type="qcurve" smooth="yes"/>
      <point x="-980" y="1950"/>
      <point x="-980" y="1870" type="qcurve" smooth="yes"/>
      <point x="-980" y="1760"/>
      <point x="-725" y="1760" type="qcurve" smooth="yes"/>
      <point x="-470" y="1760"/>
      <point x="-470" y="1965" type="qcurve" smooth="yes"/>
      <point x="-470" y="2128"/>
      <point x="-640" y="2128" type="qcurve"/>
      <point x="-630" y="2169"/>
      <point x="-570" y="2169" type="qcurve" smooth="yes"/>
      <point x="-410" y="2169"/>
      <point x="-410" y="1965" type="qcurve" smooth="yes"/>
      <point x="-410" y="1700"/>
      <point x="-725" y="1700" type="qcurve" smooth="yes"/>
      <point x="-1040" y="1700"/>
    </contour>
  </outline>
</glyph>
<glyph name="uni17D1" format="2">
  <unicode hex="17D1"/>
  <outline>
    <contour>
      <point x="-1025" y="1830" type="line"/>
      <point x="-275" y="1830" type="line"/>
      <point x="-275" y="1770" type="line"/>
      <point x="-1025" y="1770" type="line"/>
    </contour>
  </outline>
</glyph>
<glyph name="uni17D2" format="2">
  <unicode hex="17D2"/>
  <outline>
    <contour>
      <point x="-643" y="-200" type="line"/>
      <point x="-643" y="-370" type="line"/>
      <point x="-473" y="-370" type="line"/>
      <point x="-473" y="-430" type="line"/>
      <point x="-643" y="-430" type="line"/>
      <point x="-643" y="-600" type="line"/>
      <point x="-703" y="-600" type="line"/>
      <point x="-703" y="-430" type="line"/>
      <point x="-873" y="-430" type="line"/>
      <point x="-873" y="-370" type="line"/>
      <point x="-703" y="-370" type="line"/>
      <point x="-703" y="-200" type="line"/>
    </contour>
  </outline>
</glyph>
<glyph name="uni17D3" format="2">
  <unicode hex="17D3"/>
  <outline>
    <contour>
      <point x="-920" y="1900" type="qcurve" smooth="yes"/>
      <point x="-920" y="1760"/>
      <point x="-730" y="1760" type="qcurve" smooth="yes"/>
      <point x="-540" y="1760"/>
      <point x="-540" y="1900" type="qcurve" smooth="yes"/>
      <point x="-540" y="2040"/>
      <point x="-730" y="2040" type="qcurve" smooth="yes"/>
      <point x="-920" y="2040"/>
    </contour>
    <contour>
      <point x="-480" y="1900" type="qcurve" smooth="yes"/>
      <point x="-480" y="1700"/>
      <point x="-730" y="1700" type="qcurve" smooth="yes"/>
      <point x="-980" y="1700"/>
      <point x="-980" y="1900" type="qcurve" smooth="yes"/>
      <point x="-980" y="2100"/>
      <point x="-730" y="2100" type="qcurve" smooth="yes"/>
      <point x="-480" y="2100"/>
    </contour>
  </outline>
</glyph>
<glyph name="uni17D4" format="2">
  <advance width="1538"/>
  <unicode hex="17D4"/>
  <outline>
    <contour>
      <point x="650" y="1400" type="line"/>
      <point x="610" y="1400" type="line" smooth="yes"/>
      <point x="460" y="1400"/>
      <point x="460" y="1243" type="qcurve" smooth="yes"/>
      <point x="460" y="1097"/>
      <point x="640" y="1097" type="qcurve" smooth="yes"/>
      <point x="938" y="1097"/>
      <point x="1150" y="1366" type="qcurve"/>
      <point x="1150" y="1460" type="line"/>
      <point x="1210" y="1460" type="line"/>
      <point x="1210" y="178" type="line" smooth="yes"/>
      <point x="1210" y="0"/>
      <point x="1080" y="0" type="qcurve" smooth="yes"/>
      <point x="970" y="0"/>
      <point x="970" y="48" type="qcurve"/>
      <point x="1150" y="48"/>
      <point x="1150" y="178" type="qcurve" smooth="yes"/>
      <point x="1150" y="1298" type="line"/>
      <point x="952" y="1047"/>
      <point x="640" y="1047" type="qcurve" smooth="yes"/>
      <point x="400" y="1047"/>
      <point x="400" y="1243" type="qcurve" smooth="yes"/>
      <point x="400" y="1460"/>
      <point x="610" y="1460" type="qcurve" smooth="yes"/>
      <point x="650" y="1460" type="line"/>
    </contour>
  </outline>
</glyph>
<glyph name="uni17D5" format="2">
  <advance width="1850"/>
  <unicode hex="17D5"/>
  <outline>
    <contour>
      <point x="650" y="1400" type="line"/>
      <point x="610" y="1400" type="line" smooth="yes"/>
      <point x="460" y="1400"/>
      <point x="460" y="1243" type="qcurve" smooth="yes"/>
      <point x="460" y="1097"/>
      <point x="640" y="1097" type="qcurve" smooth="yes"/>
      <point x="938" y="1097"/>
      <point x="1150" y="1366" type="qcurve"/>
      <point x="1150" y="1460" type="line"/>
      <point x="1210" y="1460" type="line"/>
      <point x="1210" y="178" type="line" smooth="yes"/>
      <point x="1210" y="0"/>
      <point x="1080" y="0" type="qcurve" smooth="yes"/>
      <point x="970" y="0"/>
      <point x="970" y="48" type="qcurve"/>
      <point x="1150" y="48"/>
      <point x="1150" y="178" type="qcurve" smooth="yes"/>
      <point x="1150" y="1298" type="line"/>
      <point x="952" y="1047"/>
      <point x="640" y="1047" type="qcurve" smooth="yes"/>
      <point x="400" y="1047"/>
      <point x="400" y="1243" type="qcurve" smooth="yes"/>
      <point x="400" y="1460"/>
      <point x="610" y="1460" type="qcurve" smooth="yes"/>
      <point x="650" y="1460" type="line"/>
    </contour>
    <contour>
      <point x="1500" y="1460" type="line"/>
      <point x="1500" y="130" type="line" smooth="yes"/>
      <point x="1500" y="0"/>
      <point x="1320" y="0" type="qcurve"/>
      <point x="1440" y="52"/>
      <point x="1440" y="130" type="qcurve" smooth="yes"/>
      <point x="1440" y="1460" type="line"/>
    </contour>
  </outline>
</glyph>
<glyph name="uni17D6" format="2">
  <advance width="1150"/>
  <unicode hex="17D6"/>
  <outline>
    <contour>
      <point x="980" y="665" type="line"/>
      <point x="180" y="665" type="line"/>
      <point x="180" y="725" type="line"/>
      <point x="980" y="725" type="line"/>
    </contour>
    <contour>
      <point x="425" y="215" type="qcurve" smooth="yes"/>
      <point x="425" y="60"/>
      <point x="580" y="60" type="qcurve" smooth="yes"/>
      <point x="735" y="60"/>
      <point x="735" y="215" type="qcurve" smooth="yes"/>
      <point x="735" y="370"/>
      <point x="580" y="370" type="qcurve" smooth="yes"/>
      <point x="425" y="370"/>
    </contour>
    <contour>
      <point x="795" y="215" type="qcurve" smooth="yes"/>
      <point x="795" y="0"/>
      <point x="580" y="0" type="qcurve" smooth="yes"/>
      <point x="365" y="0"/>
      <point x="365" y="215" type="qcurve" smooth="yes"/>
      <point x="365" y="430"/>
      <point x="580" y="430" type="qcurve" smooth="yes"/>
      <point x="795" y="430"/>
    </contour>
    <contour>
      <point x="425" y="1175" type="qcurve" smooth="yes"/>
      <point x="425" y="1020"/>
      <point x="580" y="1020" type="qcurve" smooth="yes"/>
      <point x="735" y="1020"/>
      <point x="735" y="1175" type="qcurve" smooth="yes"/>
      <point x="735" y="1330"/>
      <point x="580" y="1330" type="qcurve" smooth="yes"/>
      <point x="425" y="1330"/>
    </contour>
    <contour>
      <point x="795" y="1175" type="qcurve" smooth="yes"/>
      <point x="795" y="960"/>
      <point x="580" y="960" type="qcurve" smooth="yes"/>
      <point x="365" y="960"/>
      <point x="365" y="1175" type="qcurve" smooth="yes"/>
      <point x="365" y="1390"/>
      <point x="580" y="1390" type="qcurve" smooth="yes"/>
      <point x="795" y="1390"/>
    </contour>
  </outline>
</glyph>
<glyph name="uni17D7" format="2">
  <advance width="1488"/>
  <unicode hex="17D7"/>
  <outline>
    <contour>
      <point x="1130" y="303" type="qcurve" smooth="yes"/>
      <point x="1130" y="1393" type="line"/>
      <point x="836" y="1200" type="line"/>
      <point x="582" y="1390" type="line"/>
      <point x="415" y="1208" type="line"/>
      <point x="415" y="1110"/>
      <point x="518" y="1110" type="qcurve" smooth="yes"/>
      <point x="605" y="1110"/>
      <point x="605" y="1155" type="qcurve"/>
      <point x="656" y="1155" type="line"/>
      <point x="656" y="1050"/>
      <point x="518" y="1050" type="qcurve" smooth="yes"/>
      <point x="360" y="1050"/>
      <point x="360" y="1218" type="qcurve"/>
      <point x="572" y="1460" type="line"/>
      <point x="844" y="1268" type="line"/>
      <point x="1123" y="1459" type="line"/>
      <point x="1190" y="1459" type="line"/>
      <point x="1190" y="303" type="line" smooth="yes"/>
      <point x="1190" y="0"/>
      <point x="834" y="0" type="qcurve" smooth="yes"/>
      <point x="419" y="0"/>
      <point x="419" y="182" type="qcurve" smooth="yes"/>
      <point x="419" y="232"/>
      <point x="438" y="252" type="qcurve"/>
      <point x="438" y="60"/>
      <point x="834" y="60" type="qcurve" smooth="yes"/>
      <point x="1130" y="60"/>
    </contour>
  </outline>
</glyph>
